<svg xmlns="http://www.w3.org/2000/svg" xmlns:xlink="http://www.w3.org/1999/xlink" width="226" zoomAndPan="magnify" viewBox="0 0 169.92 141.750002" height="188" preserveAspectRatio="xMidYMid meet" version="1.0"><defs><clipPath id="febf875618"><path d="M 17.523438 87 L 81 87 L 81 138.027344 L 17.523438 138.027344 Z M 17.523438 87 " clip-rule="nonzero"/></clipPath><clipPath id="7ae5b42c99"><path d="M 26 120 L 32 120 L 32 138.027344 L 26 138.027344 Z M 26 120 " clip-rule="nonzero"/></clipPath><clipPath id="6ee42a1603"><path d="M 89 22 L 152.285156 22 L 152.285156 73 L 89 73 Z M 89 22 " clip-rule="nonzero"/></clipPath><clipPath id="e2fa9a4dd9"><path d="M 89 3.265625 L 112 3.265625 L 112 40 L 89 40 Z M 89 3.265625 " clip-rule="nonzero"/></clipPath></defs><g clip-path="url(#febf875618)"><path fill="#ff5757" d="M 22.019531 115.722656 C 22.019531 112.171875 27.195312 111.222656 30.242188 111.222656 L 50.820312 111.222656 L 64.050781 115.609375 C 64.519531 115.769531 64.992188 115.769531 65.464844 115.609375 L 76 112.097656 L 76 114.332031 L 64.4375 120.113281 L 53.960938 118.015625 C 53.796875 117.984375 53.628906 117.96875 53.464844 117.972656 C 53.296875 117.976562 53.132812 117.996094 52.972656 118.035156 C 52.808594 118.078125 52.652344 118.132812 52.503906 118.207031 C 52.355469 118.285156 52.214844 118.375 52.085938 118.480469 C 51.957031 118.585938 51.839844 118.703125 51.738281 118.832031 C 51.636719 118.964844 51.546875 119.105469 51.476562 119.257812 C 51.40625 119.40625 51.351562 119.5625 51.316406 119.726562 C 51.277344 119.890625 51.261719 120.054688 51.261719 120.222656 L 51.261719 138.214844 L 55.757812 138.214844 L 55.757812 122.964844 L 64.304688 124.675781 C 64.808594 124.773438 65.289062 124.710938 65.75 124.484375 L 79.246094 117.734375 C 79.628906 117.546875 79.933594 117.269531 80.160156 116.90625 C 80.386719 116.546875 80.5 116.148438 80.5 115.722656 L 80.5 108.976562 C 80.5 108.613281 80.417969 108.273438 80.253906 107.949219 C 80.089844 107.628906 79.859375 107.359375 79.566406 107.148438 C 79.273438 106.9375 78.949219 106.804688 78.589844 106.75 C 78.234375 106.695312 77.882812 106.726562 77.542969 106.84375 L 64.753906 111.101562 L 51.890625 106.839844 C 51.660156 106.765625 51.425781 106.726562 51.183594 106.726562 L 44.554688 106.726562 C 44.890625 106.558594 45.214844 106.371094 45.53125 106.164062 C 45.847656 105.960938 46.152344 105.738281 46.441406 105.5 C 46.734375 105.257812 47.007812 105.003906 47.273438 104.734375 C 47.535156 104.464844 47.78125 104.179688 48.011719 103.882812 C 48.242188 103.585938 48.457031 103.277344 48.652344 102.953125 C 48.847656 102.632812 49.027344 102.300781 49.1875 101.960938 C 49.34375 101.617188 49.484375 101.269531 49.605469 100.914062 C 49.726562 100.554688 49.824219 100.191406 49.90625 99.824219 C 49.984375 99.457031 50.042969 99.085938 50.082031 98.710938 C 50.121094 98.335938 50.140625 97.960938 50.136719 97.585938 C 50.132812 97.207031 50.105469 96.832031 50.0625 96.457031 C 50.015625 96.085938 49.949219 95.714844 49.863281 95.347656 C 49.777344 94.980469 49.667969 94.621094 49.542969 94.265625 C 49.414062 93.910156 49.269531 93.566406 49.101562 93.226562 C 48.9375 92.886719 48.753906 92.5625 48.550781 92.242188 C 48.347656 91.925781 48.128906 91.621094 47.894531 91.328125 C 47.65625 91.035156 47.40625 90.753906 47.136719 90.488281 C 46.871094 90.222656 46.589844 89.976562 46.292969 89.742188 C 45.996094 89.507812 45.691406 89.292969 45.371094 89.089844 C 45.050781 88.890625 44.722656 88.710938 44.382812 88.550781 C 44.042969 88.386719 43.695312 88.242188 43.339844 88.121094 C 42.980469 87.996094 42.621094 87.894531 42.253906 87.808594 C 41.886719 87.726562 41.515625 87.664062 41.140625 87.621094 C 40.765625 87.578125 40.390625 87.558594 40.015625 87.558594 C 39.636719 87.558594 39.261719 87.578125 38.886719 87.621094 C 38.515625 87.664062 38.144531 87.726562 37.777344 87.808594 C 37.410156 87.894531 37.046875 87.996094 36.691406 88.121094 C 36.335938 88.242188 35.988281 88.386719 35.648438 88.550781 C 35.308594 88.710938 34.976562 88.890625 34.660156 89.089844 C 34.339844 89.292969 34.03125 89.507812 33.734375 89.742188 C 33.441406 89.976562 33.160156 90.222656 32.890625 90.488281 C 32.625 90.753906 32.371094 91.035156 32.136719 91.328125 C 31.898438 91.621094 31.679688 91.925781 31.476562 92.242188 C 31.273438 92.5625 31.089844 92.886719 30.925781 93.226562 C 30.761719 93.566406 30.613281 93.910156 30.488281 94.265625 C 30.359375 94.621094 30.253906 94.980469 30.164062 95.347656 C 30.078125 95.714844 30.011719 96.085938 29.96875 96.457031 C 29.921875 96.832031 29.898438 97.207031 29.894531 97.585938 C 29.890625 97.960938 29.90625 98.335938 29.945312 98.710938 C 29.984375 99.085938 30.042969 99.457031 30.125 99.824219 C 30.203125 100.191406 30.304688 100.554688 30.421875 100.914062 C 30.542969 101.269531 30.683594 101.617188 30.84375 101.960938 C 31.003906 102.300781 31.179688 102.632812 31.375 102.953125 C 31.574219 103.277344 31.785156 103.585938 32.015625 103.882812 C 32.246094 104.179688 32.496094 104.464844 32.757812 104.734375 C 33.019531 105.003906 33.296875 105.257812 33.585938 105.5 C 33.878906 105.738281 34.179688 105.960938 34.496094 106.164062 C 34.8125 106.371094 35.140625 106.558594 35.476562 106.726562 L 30.242188 106.726562 C 22.632812 106.726562 17.523438 110.339844 17.523438 115.722656 L 17.523438 138.214844 L 22.019531 138.214844 Z M 40.015625 92.105469 C 40.382812 92.105469 40.75 92.144531 41.113281 92.214844 C 41.472656 92.285156 41.824219 92.394531 42.167969 92.535156 C 42.507812 92.675781 42.832031 92.847656 43.136719 93.054688 C 43.445312 93.257812 43.730469 93.492188 43.992188 93.753906 C 44.25 94.015625 44.484375 94.296875 44.691406 94.605469 C 44.894531 94.914062 45.066406 95.238281 45.210938 95.578125 C 45.351562 95.917969 45.457031 96.269531 45.53125 96.632812 C 45.601562 96.996094 45.636719 97.359375 45.636719 97.730469 C 45.636719 98.097656 45.601562 98.464844 45.53125 98.828125 C 45.457031 99.1875 45.351562 99.539062 45.210938 99.882812 C 45.066406 100.222656 44.894531 100.546875 44.691406 100.855469 C 44.484375 101.160156 44.25 101.445312 43.992188 101.707031 C 43.730469 101.964844 43.445312 102.199219 43.136719 102.40625 C 42.832031 102.609375 42.507812 102.785156 42.167969 102.925781 C 41.824219 103.066406 41.472656 103.171875 41.113281 103.246094 C 40.75 103.316406 40.382812 103.351562 40.015625 103.351562 C 39.644531 103.351562 39.28125 103.316406 38.917969 103.246094 C 38.554688 103.171875 38.203125 103.066406 37.863281 102.925781 C 37.523438 102.785156 37.199219 102.609375 36.890625 102.40625 C 36.582031 102.199219 36.300781 101.964844 36.039062 101.707031 C 35.777344 101.445312 35.542969 101.160156 35.339844 100.855469 C 35.132812 100.546875 34.960938 100.222656 34.820312 99.882812 C 34.679688 99.539062 34.570312 99.1875 34.5 98.828125 C 34.425781 98.464844 34.390625 98.097656 34.390625 97.730469 C 34.390625 97.359375 34.425781 96.996094 34.5 96.632812 C 34.570312 96.269531 34.679688 95.917969 34.820312 95.578125 C 34.960938 95.238281 35.132812 94.914062 35.339844 94.605469 C 35.542969 94.296875 35.777344 94.015625 36.039062 93.753906 C 36.300781 93.492188 36.582031 93.257812 36.890625 93.054688 C 37.199219 92.847656 37.523438 92.675781 37.863281 92.535156 C 38.203125 92.394531 38.554688 92.285156 38.917969 92.214844 C 39.28125 92.144531 39.644531 92.105469 40.015625 92.105469 Z M 40.015625 92.105469 " fill-opacity="1" fill-rule="nonzero"/></g><g clip-path="url(#7ae5b42c99)"><path fill="#ff5757" d="M 26.519531 120.222656 L 31.019531 120.222656 L 31.019531 138.214844 L 26.519531 138.214844 Z M 26.519531 120.222656 " fill-opacity="1" fill-rule="nonzero"/></g><path fill="#ff5757" d="M 59.371094 97.226562 L 70.617188 102.046875 C 71.207031 102.300781 71.796875 102.300781 72.390625 102.046875 L 83.632812 97.226562 C 84.046875 97.046875 84.378906 96.773438 84.625 96.398438 C 84.875 96.019531 84.996094 95.609375 84.996094 95.160156 L 84.996094 82.308594 C 84.996094 81.855469 84.875 81.445312 84.625 81.070312 C 84.378906 80.695312 84.046875 80.417969 83.632812 80.238281 L 72.390625 75.421875 C 71.796875 75.167969 71.207031 75.167969 70.617188 75.421875 L 59.371094 80.238281 C 58.957031 80.417969 58.625 80.695312 58.378906 81.070312 C 58.132812 81.445312 58.007812 81.855469 58.007812 82.308594 L 58.007812 95.160156 C 58.007812 95.609375 58.132812 96.019531 58.378906 96.398438 C 58.625 96.773438 58.957031 97.046875 59.371094 97.226562 Z M 62.507812 85.71875 L 69.253906 88.609375 L 69.253906 96.570312 L 62.507812 93.679688 Z M 73.75 96.570312 L 73.75 88.609375 L 80.5 85.71875 L 80.5 93.679688 Z M 71.503906 79.925781 L 77.039062 82.296875 L 71.503906 84.683594 L 65.964844 82.3125 Z M 71.503906 79.925781 " fill-opacity="1" fill-rule="nonzero"/><g clip-path="url(#6ee42a1603)"><path fill="#ff5757" d="M 139.753906 41.5 L 134.519531 41.5 C 134.855469 41.332031 135.183594 41.144531 135.5 40.9375 C 135.8125 40.734375 136.117188 40.511719 136.410156 40.273438 C 136.699219 40.035156 136.976562 39.777344 137.238281 39.507812 C 137.5 39.238281 137.746094 38.953125 137.976562 38.65625 C 138.210938 38.359375 138.421875 38.050781 138.621094 37.730469 C 138.816406 37.40625 138.992188 37.074219 139.152344 36.734375 C 139.3125 36.394531 139.453125 36.042969 139.570312 35.6875 C 139.691406 35.332031 139.792969 34.96875 139.871094 34.597656 C 139.953125 34.230469 140.011719 33.859375 140.050781 33.484375 C 140.085938 33.109375 140.105469 32.734375 140.101562 32.359375 C 140.097656 31.980469 140.074219 31.605469 140.027344 31.234375 C 139.984375 30.859375 139.917969 30.488281 139.828125 30.121094 C 139.742188 29.753906 139.636719 29.394531 139.507812 29.039062 C 139.382812 28.6875 139.234375 28.339844 139.070312 28 C 138.902344 27.664062 138.71875 27.335938 138.519531 27.015625 C 138.316406 26.699219 138.097656 26.394531 137.859375 26.101562 C 137.625 25.808594 137.371094 25.527344 137.105469 25.261719 C 136.835938 25 136.554688 24.75 136.257812 24.515625 C 135.964844 24.28125 135.65625 24.066406 135.335938 23.867188 C 135.015625 23.667969 134.6875 23.484375 134.347656 23.324219 C 134.007812 23.160156 133.660156 23.019531 133.304688 22.894531 C 132.949219 22.769531 132.585938 22.667969 132.21875 22.582031 C 131.851562 22.5 131.480469 22.4375 131.105469 22.394531 C 130.734375 22.355469 130.359375 22.332031 129.980469 22.332031 C 129.605469 22.332031 129.230469 22.355469 128.855469 22.394531 C 128.480469 22.4375 128.109375 22.5 127.742188 22.582031 C 127.375 22.667969 127.011719 22.769531 126.65625 22.894531 C 126.300781 23.019531 125.953125 23.160156 125.613281 23.324219 C 125.273438 23.484375 124.945312 23.667969 124.625 23.867188 C 124.304688 24.066406 123.996094 24.28125 123.703125 24.515625 C 123.40625 24.75 123.125 25 122.859375 25.261719 C 122.589844 25.527344 122.339844 25.808594 122.101562 26.101562 C 121.867188 26.394531 121.644531 26.699219 121.445312 27.015625 C 121.242188 27.335938 121.058594 27.664062 120.890625 28 C 120.726562 28.339844 120.578125 28.6875 120.453125 29.039062 C 120.324219 29.394531 120.21875 29.753906 120.132812 30.121094 C 120.046875 30.488281 119.980469 30.859375 119.933594 31.234375 C 119.886719 31.605469 119.863281 31.980469 119.859375 32.359375 C 119.855469 32.734375 119.875 33.109375 119.914062 33.484375 C 119.949219 33.859375 120.007812 34.230469 120.089844 34.597656 C 120.167969 34.96875 120.269531 35.332031 120.390625 35.6875 C 120.511719 36.042969 120.648438 36.394531 120.808594 36.734375 C 120.96875 37.074219 121.144531 37.40625 121.34375 37.730469 C 121.539062 38.050781 121.753906 38.359375 121.984375 38.65625 C 122.214844 38.953125 122.460938 39.238281 122.722656 39.507812 C 122.984375 39.777344 123.261719 40.035156 123.554688 40.273438 C 123.84375 40.511719 124.148438 40.734375 124.464844 40.9375 C 124.777344 41.144531 125.105469 41.332031 125.441406 41.5 L 118.8125 41.5 C 118.570312 41.5 118.335938 41.539062 118.105469 41.617188 L 105.238281 45.878906 L 92.453125 41.617188 C 92.285156 41.5625 92.113281 41.527344 91.933594 41.511719 C 91.757812 41.496094 91.582031 41.503906 91.40625 41.527344 C 91.226562 41.554688 91.058594 41.601562 90.894531 41.671875 C 90.730469 41.738281 90.574219 41.824219 90.429688 41.929688 C 90.285156 42.03125 90.15625 42.152344 90.039062 42.285156 C 89.921875 42.421875 89.824219 42.566406 89.742188 42.726562 C 89.664062 42.886719 89.601562 43.050781 89.558594 43.222656 C 89.515625 43.394531 89.496094 43.570312 89.496094 43.75 L 89.496094 50.496094 C 89.496094 50.921875 89.609375 51.316406 89.832031 51.679688 C 90.054688 52.042969 90.359375 52.320312 90.738281 52.511719 L 104.234375 59.257812 C 104.695312 59.484375 105.175781 59.546875 105.679688 59.449219 L 114.226562 57.738281 L 114.226562 72.988281 L 118.726562 72.988281 L 118.726562 54.996094 C 118.726562 54.828125 118.707031 54.664062 118.671875 54.5 C 118.632812 54.339844 118.582031 54.183594 118.507812 54.03125 C 118.4375 53.878906 118.351562 53.738281 118.246094 53.609375 C 118.144531 53.476562 118.027344 53.359375 117.898438 53.253906 C 117.769531 53.148438 117.632812 53.058594 117.480469 52.984375 C 117.332031 52.910156 117.175781 52.851562 117.015625 52.8125 C 116.851562 52.769531 116.6875 52.75 116.523438 52.746094 C 116.355469 52.742188 116.191406 52.757812 116.027344 52.792969 L 105.539062 54.886719 L 93.996094 49.105469 L 93.996094 46.871094 L 104.53125 50.378906 C 105 50.539062 105.472656 50.539062 105.945312 50.378906 L 119.183594 46 L 139.765625 46 C 142.800781 46 147.972656 46.945312 147.972656 50.496094 L 147.972656 72.988281 L 152.472656 72.988281 L 152.472656 50.496094 C 152.472656 45.113281 147.363281 41.5 139.753906 41.5 Z M 129.980469 26.882812 C 130.351562 26.882812 130.714844 26.917969 131.078125 26.988281 C 131.441406 27.0625 131.792969 27.167969 132.132812 27.308594 C 132.472656 27.449219 132.796875 27.625 133.105469 27.828125 C 133.410156 28.035156 133.695312 28.265625 133.957031 28.527344 C 134.21875 28.789062 134.449219 29.074219 134.65625 29.378906 C 134.859375 29.6875 135.035156 30.011719 135.175781 30.351562 C 135.316406 30.691406 135.421875 31.046875 135.496094 31.40625 C 135.566406 31.769531 135.605469 32.136719 135.605469 32.503906 C 135.605469 32.875 135.566406 33.238281 135.496094 33.601562 C 135.421875 33.964844 135.316406 34.316406 135.175781 34.65625 C 135.035156 34.996094 134.859375 35.320312 134.65625 35.628906 C 134.449219 35.933594 134.21875 36.21875 133.957031 36.480469 C 133.695312 36.742188 133.410156 36.972656 133.105469 37.179688 C 132.796875 37.382812 132.472656 37.558594 132.132812 37.699219 C 131.792969 37.839844 131.441406 37.945312 131.078125 38.019531 C 130.714844 38.089844 130.351562 38.125 129.980469 38.125 C 129.613281 38.125 129.246094 38.089844 128.882812 38.019531 C 128.523438 37.945312 128.171875 37.839844 127.828125 37.699219 C 127.488281 37.558594 127.164062 37.382812 126.855469 37.179688 C 126.550781 36.972656 126.265625 36.742188 126.003906 36.480469 C 125.742188 36.21875 125.511719 35.933594 125.304688 35.628906 C 125.101562 35.320312 124.925781 34.996094 124.785156 34.65625 C 124.644531 34.316406 124.539062 33.964844 124.464844 33.601562 C 124.394531 33.238281 124.359375 32.875 124.359375 32.503906 C 124.359375 32.136719 124.394531 31.769531 124.464844 31.40625 C 124.539062 31.046875 124.644531 30.691406 124.785156 30.351562 C 124.925781 30.011719 125.101562 29.6875 125.304688 29.378906 C 125.511719 29.074219 125.742188 28.789062 126.003906 28.527344 C 126.265625 28.265625 126.550781 28.035156 126.855469 27.828125 C 127.164062 27.625 127.488281 27.449219 127.828125 27.308594 C 128.171875 27.167969 128.523438 27.0625 128.882812 26.988281 C 129.246094 26.917969 129.613281 26.882812 129.980469 26.882812 Z M 129.980469 26.882812 " fill-opacity="1" fill-rule="nonzero"/></g><path fill="#ff5757" d="M 138.976562 54.996094 L 143.476562 54.996094 L 143.476562 72.988281 L 138.976562 72.988281 Z M 138.976562 54.996094 " fill-opacity="1" fill-rule="nonzero"/><g clip-path="url(#e2fa9a4dd9)"><path fill="#ff5757" d="M 107.488281 15.636719 L 111.988281 15.636719 C 111.949219 15.082031 111.855469 14.539062 111.707031 14.003906 C 111.5625 13.46875 111.367188 12.953125 111.117188 12.457031 C 110.871094 11.960938 110.578125 11.496094 110.242188 11.054688 C 109.902344 10.617188 109.523438 10.214844 109.105469 9.851562 C 108.691406 9.484375 108.242188 9.164062 107.761719 8.886719 C 107.28125 8.609375 106.78125 8.382812 106.253906 8.203125 C 105.730469 8.023438 105.195312 7.898438 104.644531 7.824219 C 104.09375 7.75 103.542969 7.730469 102.992188 7.761719 L 102.992188 3.265625 L 98.492188 3.265625 L 98.492188 7.761719 C 97.9375 7.730469 97.386719 7.75 96.839844 7.824219 C 96.289062 7.898438 95.753906 8.023438 95.226562 8.203125 C 94.703125 8.382812 94.203125 8.609375 93.722656 8.886719 C 93.242188 9.164062 92.792969 9.484375 92.375 9.851562 C 91.960938 10.214844 91.582031 10.617188 91.242188 11.054688 C 90.90625 11.496094 90.613281 11.960938 90.363281 12.457031 C 90.117188 12.953125 89.921875 13.46875 89.773438 14.003906 C 89.628906 14.539062 89.535156 15.082031 89.496094 15.636719 C 89.535156 16.1875 89.628906 16.730469 89.773438 17.265625 C 89.921875 17.800781 90.117188 18.316406 90.363281 18.8125 C 90.613281 19.308594 90.90625 19.777344 91.242188 20.214844 C 91.582031 20.652344 91.960938 21.054688 92.375 21.421875 C 92.792969 21.785156 93.242188 22.105469 93.722656 22.382812 C 94.203125 22.660156 94.703125 22.890625 95.226562 23.066406 C 95.753906 23.246094 96.289062 23.375 96.839844 23.445312 C 97.386719 23.519531 97.9375 23.542969 98.492188 23.507812 L 98.492188 30.253906 C 96.054688 30.253906 93.996094 28.710938 93.996094 26.882812 L 89.496094 26.882812 C 89.535156 27.433594 89.628906 27.976562 89.773438 28.511719 C 89.921875 29.046875 90.117188 29.5625 90.363281 30.058594 C 90.613281 30.554688 90.90625 31.023438 91.242188 31.460938 C 91.582031 31.898438 91.960938 32.300781 92.375 32.667969 C 92.792969 33.03125 93.242188 33.351562 93.722656 33.628906 C 94.203125 33.90625 94.703125 34.132812 95.226562 34.3125 C 95.753906 34.492188 96.289062 34.617188 96.839844 34.691406 C 97.386719 34.765625 97.9375 34.785156 98.492188 34.753906 L 98.492188 39.25 L 102.992188 39.25 L 102.992188 34.753906 C 103.542969 34.785156 104.09375 34.765625 104.644531 34.691406 C 105.195312 34.617188 105.730469 34.492188 106.253906 34.3125 C 106.78125 34.132812 107.28125 33.90625 107.761719 33.628906 C 108.242188 33.351562 108.691406 33.03125 109.105469 32.667969 C 109.523438 32.300781 109.902344 31.898438 110.242188 31.460938 C 110.578125 31.023438 110.871094 30.554688 111.117188 30.058594 C 111.367188 29.5625 111.5625 29.046875 111.707031 28.511719 C 111.855469 27.976562 111.949219 27.433594 111.988281 26.882812 C 111.949219 26.328125 111.855469 25.785156 111.707031 25.25 C 111.5625 24.714844 111.367188 24.199219 111.117188 23.703125 C 110.871094 23.207031 110.578125 22.742188 110.242188 22.300781 C 109.902344 21.863281 109.523438 21.460938 109.105469 21.097656 C 108.691406 20.730469 108.242188 20.410156 107.761719 20.132812 C 107.28125 19.855469 106.78125 19.628906 106.253906 19.449219 C 105.730469 19.269531 105.195312 19.144531 104.644531 19.070312 C 104.09375 18.996094 103.542969 18.976562 102.992188 19.007812 L 102.992188 12.261719 C 105.429688 12.261719 107.488281 13.808594 107.488281 15.636719 Z M 107.488281 26.882812 C 107.488281 28.710938 105.429688 30.253906 102.992188 30.253906 L 102.992188 23.507812 C 105.429688 23.507812 107.488281 25.050781 107.488281 26.882812 Z M 98.492188 19.007812 C 96.054688 19.007812 93.996094 17.464844 93.996094 15.636719 C 93.996094 13.808594 96.054688 12.261719 98.492188 12.261719 Z M 98.492188 19.007812 " fill-opacity="1" fill-rule="nonzero"/></g><path fill="#ff5757" d="M 35.515625 70.738281 C 35.519531 69.121094 35.597656 67.503906 35.757812 65.890625 C 35.917969 64.28125 36.160156 62.679688 36.476562 61.089844 C 36.792969 59.5 37.1875 57.933594 37.660156 56.382812 C 38.128906 54.832031 38.675781 53.308594 39.296875 51.8125 C 39.917969 50.316406 40.609375 48.855469 41.375 47.425781 C 42.140625 45.996094 42.972656 44.609375 43.871094 43.261719 C 44.773438 41.914062 45.738281 40.617188 46.765625 39.363281 C 47.792969 38.113281 48.878906 36.914062 50.027344 35.765625 C 51.171875 34.621094 52.371094 33.535156 53.621094 32.507812 C 54.875 31.480469 56.171875 30.515625 57.519531 29.613281 C 58.867188 28.714844 60.253906 27.882812 61.683594 27.117188 C 63.113281 26.351562 64.574219 25.660156 66.070312 25.039062 C 67.566406 24.417969 69.089844 23.871094 70.640625 23.402344 C 72.191406 22.929688 73.757812 22.535156 75.347656 22.21875 C 76.9375 21.902344 78.539062 21.660156 80.148438 21.5 C 81.761719 21.339844 83.378906 21.261719 84.996094 21.257812 L 84.996094 16.761719 C 83.230469 16.761719 81.46875 16.851562 79.707031 17.027344 C 77.949219 17.199219 76.203125 17.460938 74.472656 17.808594 C 72.738281 18.152344 71.027344 18.585938 69.335938 19.097656 C 67.644531 19.613281 65.984375 20.207031 64.351562 20.886719 C 62.71875 21.5625 61.121094 22.320312 59.5625 23.152344 C 58.007812 23.984375 56.492188 24.894531 55.023438 25.875 C 53.554688 26.859375 52.136719 27.910156 50.769531 29.03125 C 49.402344 30.152344 48.097656 31.339844 46.847656 32.589844 C 45.597656 33.839844 44.410156 35.144531 43.289062 36.511719 C 42.167969 37.878906 41.117188 39.296875 40.132812 40.765625 C 39.152344 42.234375 38.242188 43.746094 37.410156 45.304688 C 36.578125 46.863281 35.820312 48.460938 35.144531 50.09375 C 34.464844 51.726562 33.871094 53.386719 33.355469 55.078125 C 32.84375 56.769531 32.410156 58.480469 32.066406 60.214844 C 31.71875 61.945312 31.457031 63.691406 31.285156 65.449219 C 31.109375 67.210938 31.019531 68.972656 31.019531 70.738281 Z M 35.515625 70.738281 " fill-opacity="1" fill-rule="nonzero"/><path fill="#ff5757" d="M 138.527344 77.777344 L 134.066406 77.195312 C 133.871094 78.667969 133.609375 80.128906 133.28125 81.578125 C 132.953125 83.027344 132.5625 84.457031 132.105469 85.871094 C 131.652344 87.285156 131.132812 88.671875 130.550781 90.039062 C 129.972656 91.40625 129.332031 92.746094 128.628906 94.054688 C 127.929688 95.363281 127.167969 96.636719 126.355469 97.878906 C 125.539062 99.121094 124.667969 100.320312 123.746094 101.484375 C 122.820312 102.648438 121.847656 103.765625 120.824219 104.839844 C 119.796875 105.917969 118.726562 106.945312 117.609375 107.921875 C 116.496094 108.902344 115.335938 109.828125 114.136719 110.703125 C 112.9375 111.578125 111.699219 112.398438 110.425781 113.160156 C 109.152344 113.925781 107.847656 114.632812 106.511719 115.277344 C 105.171875 115.925781 103.808594 116.507812 102.421875 117.03125 C 101.03125 117.558594 99.621094 118.019531 98.191406 118.414062 C 96.757812 118.8125 95.3125 119.144531 93.851562 119.410156 C 92.390625 119.679688 90.921875 119.878906 89.445312 120.015625 C 87.964844 120.152344 86.484375 120.21875 84.996094 120.222656 L 84.996094 124.71875 C 86.617188 124.71875 88.234375 124.640625 89.847656 124.496094 C 91.460938 124.347656 93.066406 124.128906 94.660156 123.835938 C 96.253906 123.542969 97.828125 123.179688 99.390625 122.75 C 100.953125 122.316406 102.488281 121.8125 104.007812 121.242188 C 105.523438 120.667969 107.007812 120.03125 108.46875 119.324219 C 109.925781 118.621094 111.351562 117.851562 112.738281 117.015625 C 114.128906 116.183594 115.476562 115.289062 116.785156 114.335938 C 118.097656 113.378906 119.359375 112.367188 120.578125 111.300781 C 121.796875 110.230469 122.964844 109.113281 124.082031 107.9375 C 125.199219 106.765625 126.261719 105.542969 127.269531 104.277344 C 128.277344 103.007812 129.222656 101.695312 130.113281 100.34375 C 131.003906 98.988281 131.832031 97.597656 132.597656 96.167969 C 133.359375 94.742188 134.058594 93.28125 134.695312 91.789062 C 135.328125 90.296875 135.894531 88.78125 136.390625 87.238281 C 136.886719 85.699219 137.3125 84.136719 137.671875 82.558594 C 138.027344 80.976562 138.3125 79.382812 138.527344 77.777344 Z M 138.527344 77.777344 " fill-opacity="1" fill-rule="nonzero"/></svg>