<svg xmlns="http://www.w3.org/2000/svg" xmlns:xlink="http://www.w3.org/1999/xlink" width="226" zoomAndPan="magnify" viewBox="0 0 169.92 141.750002" height="188" preserveAspectRatio="xMidYMid meet" version="1.0"><defs><clipPath id="5d478fea4c"><path d="M 3.761719 5.1875 L 166.222656 5.1875 L 166.222656 139.203125 L 3.761719 139.203125 Z M 3.761719 5.1875 " clip-rule="nonzero"/></clipPath><clipPath id="d8222fee2f"><path d="M 55.90625 46.5625 C 53.957031 40.964844 50.082031 36.421875 45.269531 34.097656 C 41.535156 32.292969 37.484375 31.992188 33.871094 33.253906 C 25.3125 36.234375 21.273438 47.0625 24.863281 57.382812 C 26.808594 62.980469 30.683594 67.527344 35.496094 69.851562 C 37.710938 70.921875 40.039062 71.460938 42.320312 71.460938 C 43.882812 71.460938 45.425781 71.207031 46.894531 70.695312 C 55.453125 67.710938 59.496094 56.886719 55.90625 46.5625 Z M 46.046875 68.261719 C 43.039062 69.3125 39.78125 69.058594 36.617188 67.53125 C 32.417969 65.5 29.019531 61.496094 27.296875 56.539062 C 24.175781 47.558594 27.503906 38.203125 34.722656 35.6875 C 35.9375 35.261719 37.195312 35.050781 38.472656 35.050781 C 40.347656 35.050781 42.265625 35.507812 44.148438 36.417969 C 48.347656 38.445312 51.746094 42.453125 53.46875 47.410156 C 56.59375 56.390625 53.261719 65.746094 46.046875 68.261719 Z M 43.429688 39.097656 C 40.882812 37.863281 38.136719 37.652344 35.699219 38.503906 C 29.769531 40.570312 27.046875 48.296875 29.628906 55.722656 C 31.066406 59.851562 33.875 63.175781 37.335938 64.851562 C 38.859375 65.585938 40.449219 65.957031 42.003906 65.957031 C 43.050781 65.957031 44.085938 65.785156 45.070312 65.445312 C 51 63.378906 53.71875 55.652344 51.136719 48.226562 C 49.703125 44.097656 46.894531 40.769531 43.429688 39.097656 Z M 44.222656 63.011719 C 42.410156 63.640625 40.417969 63.476562 38.460938 62.53125 C 35.609375 61.152344 33.277344 58.363281 32.066406 54.875 C 29.949219 48.789062 31.960938 42.535156 36.546875 40.9375 C 37.269531 40.6875 38.015625 40.5625 38.78125 40.5625 C 39.9375 40.5625 41.128906 40.847656 42.308594 41.417969 C 45.160156 42.796875 47.492188 45.585938 48.703125 49.074219 C 50.820312 55.160156 48.808594 61.414062 44.222656 63.011719 Z M 41.023438 45.746094 C 40.042969 45.273438 39.042969 45.1875 38.132812 45.507812 C 35.667969 46.367188 34.726562 49.878906 35.988281 53.503906 C 36.550781 55.128906 37.480469 56.535156 38.605469 57.464844 C 39.53125 58.230469 40.546875 58.628906 41.523438 58.628906 C 41.902344 58.628906 42.277344 58.566406 42.632812 58.441406 C 45.097656 57.582031 46.042969 54.070312 44.78125 50.441406 C 44.027344 48.273438 42.621094 46.515625 41.023438 45.746094 Z M 41.785156 56.007812 C 41.382812 56.144531 40.824219 55.953125 40.25 55.476562 C 39.496094 54.851562 38.828125 53.824219 38.421875 52.660156 C 37.632812 50.386719 38.074219 48.253906 38.984375 47.9375 C 39.070312 47.910156 39.164062 47.894531 39.261719 47.894531 C 39.453125 47.894531 39.667969 47.949219 39.902344 48.066406 C 40.867188 48.53125 41.828125 49.796875 42.347656 51.289062 C 43.136719 53.5625 42.691406 55.691406 41.785156 56.007812 Z M 164.925781 81.015625 L 136.3125 81.015625 C 135.796875 81.015625 135.332031 81.324219 135.128906 81.796875 L 130.503906 92.601562 L 110.675781 88.023438 L 110.675781 84.652344 C 118.414062 82.585938 124.140625 75.527344 124.140625 67.140625 C 124.140625 66.523438 124.097656 65.902344 124.035156 65.285156 L 143.390625 59.957031 C 143.789062 59.851562 144.109375 59.558594 144.253906 59.171875 C 145.539062 55.757812 146.136719 52.191406 146.019531 48.566406 C 145.925781 45.695312 145.371094 42.875 144.398438 40.164062 C 145.632812 36.078125 147.101562 28.316406 144.273438 19.5625 C 142.125 12.914062 138.332031 8.277344 135.53125 5.554688 C 135.523438 5.550781 135.515625 5.546875 135.507812 5.542969 C 135.394531 5.4375 135.265625 5.355469 135.125 5.296875 C 135.113281 5.292969 135.105469 5.28125 135.097656 5.28125 C 134.949219 5.21875 134.796875 5.1875 134.632812 5.1875 L 85.824219 5.1875 C 85.71875 5.1875 85.613281 5.203125 85.511719 5.226562 L 4.726562 25.449219 C 4.699219 25.457031 4.675781 25.476562 4.648438 25.484375 C 4.625 25.492188 4.597656 25.488281 4.574219 25.496094 C 4.527344 25.511719 4.5 25.550781 4.457031 25.570312 C 4.371094 25.617188 4.292969 25.660156 4.222656 25.722656 C 4.167969 25.769531 4.121094 25.816406 4.074219 25.871094 C 4.015625 25.9375 3.96875 26.007812 3.925781 26.085938 C 3.890625 26.148438 3.863281 26.210938 3.839844 26.277344 C 3.8125 26.359375 3.792969 26.441406 3.78125 26.527344 C 3.773438 26.605469 3.765625 26.675781 3.769531 26.753906 C 3.769531 26.789062 3.757812 26.820312 3.761719 26.855469 C 3.769531 26.914062 3.800781 26.964844 3.816406 27.019531 C 3.828125 27.066406 3.820312 27.117188 3.839844 27.164062 L 15.621094 57.496094 C 15.621094 57.5 15.628906 57.507812 15.628906 57.511719 C 15.632812 57.515625 15.632812 57.519531 15.632812 57.523438 L 24.046875 77.742188 C 24.246094 78.222656 24.71875 78.539062 25.238281 78.539062 L 74.4375 78.539062 L 74.4375 95.785156 C 74.4375 95.792969 74.445312 95.800781 74.445312 95.8125 C 74.449219 95.972656 74.476562 96.128906 74.539062 96.273438 C 74.570312 96.351562 74.625 96.410156 74.671875 96.480469 C 74.71875 96.550781 74.75 96.625 74.8125 96.6875 C 74.914062 96.792969 75.039062 96.871094 75.171875 96.933594 C 75.191406 96.945312 75.203125 96.960938 75.222656 96.972656 L 75.226562 96.972656 L 130.394531 120.40625 L 141.960938 138.601562 C 142.195312 138.976562 142.609375 139.199219 143.046875 139.199219 L 164.929688 139.199219 C 164.933594 139.199219 164.933594 139.199219 164.933594 139.199219 C 165.253906 139.199219 165.546875 139.082031 165.769531 138.886719 C 165.824219 138.839844 165.875 138.789062 165.917969 138.738281 C 166.105469 138.511719 166.214844 138.226562 166.214844 137.910156 L 166.214844 82.304688 C 166.214844 81.59375 165.636719 81.015625 164.925781 81.015625 Z M 137.167969 83.59375 L 156.460938 83.59375 L 152.257812 97.628906 L 133.054688 93.191406 Z M 108.097656 85.28125 L 108.097656 89.046875 C 108.097656 89.644531 108.511719 90.167969 109.097656 90.300781 L 151.855469 100.179688 L 151.855469 117.472656 L 95.527344 94.914062 L 95.527344 85.28125 Z M 131.527344 118.089844 L 82.058594 97.074219 L 93.992188 97.074219 L 146.460938 118.089844 Z M 132.40625 44.417969 C 133.203125 46.820312 133.542969 49.367188 133.34375 51.871094 C 133.027344 55.878906 131.503906 58.945312 130.183594 60.917969 L 115.984375 64.828125 C 115.96875 64.828125 115.953125 64.820312 115.9375 64.824219 C 115.757812 64.839844 115.59375 64.894531 115.445312 64.976562 L 77.699219 75.367188 C 78.453125 72.675781 78.789062 69.902344 78.695312 67.097656 C 78.613281 64.492188 78.140625 61.933594 77.332031 59.457031 Z M 114.792969 67.828125 C 114.441406 72.371094 110.644531 75.960938 106.019531 75.960938 C 103.144531 75.960938 100.472656 74.527344 98.839844 72.222656 Z M 87.902344 75.234375 L 87.902344 82.703125 L 77.015625 82.703125 L 77.015625 78.230469 Z M 77.015625 85.28125 L 92.949219 85.28125 L 92.949219 94.496094 L 77.015625 94.496094 Z M 94.238281 82.703125 L 90.480469 82.703125 L 90.480469 76.449219 C 92.039062 79.035156 94.210938 81.179688 96.765625 82.703125 Z M 121.5625 67.140625 C 121.5625 75.722656 114.589844 82.703125 106.019531 82.703125 C 100.132812 82.703125 94.71875 79.285156 92.113281 74.074219 L 96.246094 72.9375 C 98.277344 76.363281 101.992188 78.539062 106.019531 78.539062 C 112.300781 78.539062 117.40625 73.425781 117.40625 67.140625 C 117.40625 67.128906 117.40625 67.121094 117.40625 67.109375 L 121.511719 65.980469 C 121.542969 66.367188 121.5625 66.753906 121.5625 67.140625 Z M 142.0625 57.648438 L 133.722656 59.945312 C 134.753906 57.871094 135.667969 55.230469 135.917969 52.078125 C 136.140625 49.277344 135.765625 46.429688 134.894531 43.742188 L 142.210938 41.742188 C 142.9375 43.980469 143.367188 46.296875 143.441406 48.644531 C 143.539062 51.714844 143.078125 54.738281 142.0625 57.648438 Z M 142.019531 39.125 L 70.003906 58.789062 C 68.953125 53.375 67.3125 48.085938 65.128906 43.035156 C 62.734375 37.511719 59.6875 32.285156 56.066406 27.472656 L 134.230469 7.90625 C 136.757812 10.472656 139.953125 14.585938 141.820312 20.355469 C 144.367188 28.234375 143.140625 35.269531 142.019531 39.125 Z M 85.984375 7.765625 L 124.175781 7.765625 L 53.6875 25.410156 L 15.496094 25.410156 Z M 15.53125 50.148438 L 6.925781 27.988281 L 15.53125 27.988281 Z M 26.097656 75.960938 L 18.113281 56.773438 L 18.113281 27.988281 L 53.199219 27.988281 C 57.050781 32.921875 60.277344 38.320312 62.761719 44.058594 C 65.054688 49.355469 66.722656 54.925781 67.726562 60.621094 C 67.789062 60.980469 68 61.292969 68.304688 61.488281 C 68.511719 61.621094 68.753906 61.6875 68.996094 61.6875 C 69.109375 61.6875 69.222656 61.671875 69.335938 61.644531 L 74.84375 60.140625 C 75.601562 62.417969 76.042969 64.78125 76.121094 67.183594 C 76.21875 70.171875 75.753906 73.117188 74.792969 75.960938 Z M 143.753906 136.625 L 133.613281 120.664062 L 152.4375 120.664062 L 162.578125 136.625 Z M 163.636719 133.480469 L 154.433594 119.003906 L 154.433594 99.34375 L 159.152344 83.59375 L 163.636719 83.59375 Z M 163.636719 133.480469 " clip-rule="nonzero"/></clipPath><linearGradient x1="62.995998" gradientTransform="matrix(1.289393, 0, 0, 1.288586, 3.760557, 5.188701)" y1="-0.00000211997" x2="62.995998" gradientUnits="userSpaceOnUse" y2="103.998998" id="9e5cdad5ff"><stop stop-opacity="1" stop-color="rgb(93.699646%, 79.598999%, 34.498596%)" offset="0"/><stop stop-opacity="1" stop-color="rgb(93.64624%, 79.420471%, 34.667969%)" offset="0.0078125"/><stop stop-opacity="1" stop-color="rgb(93.537903%, 79.064941%, 35.00824%)" offset="0.015625"/><stop stop-opacity="1" stop-color="rgb(93.431091%, 78.709412%, 35.348511%)" offset="0.0234375"/><stop stop-opacity="1" stop-color="rgb(93.32428%, 78.353882%, 35.688782%)" offset="0.03125"/><stop stop-opacity="1" stop-color="rgb(93.217468%, 77.998352%, 36.027527%)" offset="0.0390625"/><stop stop-opacity="1" stop-color="rgb(93.110657%, 77.642822%, 36.367798%)" offset="0.046875"/><stop stop-opacity="1" stop-color="rgb(93.003845%, 77.287292%, 36.708069%)" offset="0.0546875"/><stop stop-opacity="1" stop-color="rgb(92.897034%, 76.931763%, 37.046814%)" offset="0.0625"/><stop stop-opacity="1" stop-color="rgb(92.788696%, 76.577759%, 37.387085%)" offset="0.0703125"/><stop stop-opacity="1" stop-color="rgb(92.681885%, 76.222229%, 37.727356%)" offset="0.078125"/><stop stop-opacity="1" stop-color="rgb(92.575073%, 75.866699%, 38.067627%)" offset="0.0859375"/><stop stop-opacity="1" stop-color="rgb(92.468262%, 75.511169%, 38.406372%)" offset="0.09375"/><stop stop-opacity="1" stop-color="rgb(92.36145%, 75.15564%, 38.746643%)" offset="0.101562"/><stop stop-opacity="1" stop-color="rgb(92.254639%, 74.80011%, 39.086914%)" offset="0.109375"/><stop stop-opacity="1" stop-color="rgb(92.147827%, 74.44458%, 39.425659%)" offset="0.117188"/><stop stop-opacity="1" stop-color="rgb(92.03949%, 74.08905%, 39.76593%)" offset="0.125"/><stop stop-opacity="1" stop-color="rgb(91.932678%, 73.733521%, 40.106201%)" offset="0.132812"/><stop stop-opacity="1" stop-color="rgb(91.825867%, 73.377991%, 40.446472%)" offset="0.140625"/><stop stop-opacity="1" stop-color="rgb(91.719055%, 73.022461%, 40.785217%)" offset="0.148437"/><stop stop-opacity="1" stop-color="rgb(91.612244%, 72.666931%, 41.125488%)" offset="0.15625"/><stop stop-opacity="1" stop-color="rgb(91.505432%, 72.311401%, 41.465759%)" offset="0.164062"/><stop stop-opacity="1" stop-color="rgb(91.398621%, 71.955872%, 41.804504%)" offset="0.171875"/><stop stop-opacity="1" stop-color="rgb(91.290283%, 71.600342%, 42.144775%)" offset="0.179687"/><stop stop-opacity="1" stop-color="rgb(91.183472%, 71.244812%, 42.485046%)" offset="0.1875"/><stop stop-opacity="1" stop-color="rgb(91.07666%, 70.889282%, 42.825317%)" offset="0.195312"/><stop stop-opacity="1" stop-color="rgb(90.969849%, 70.533752%, 43.164062%)" offset="0.203125"/><stop stop-opacity="1" stop-color="rgb(90.863037%, 70.178223%, 43.504333%)" offset="0.210937"/><stop stop-opacity="1" stop-color="rgb(90.756226%, 69.822693%, 43.844604%)" offset="0.21875"/><stop stop-opacity="1" stop-color="rgb(90.649414%, 69.467163%, 44.184875%)" offset="0.226562"/><stop stop-opacity="1" stop-color="rgb(90.541077%, 69.111633%, 44.523621%)" offset="0.234375"/><stop stop-opacity="1" stop-color="rgb(90.434265%, 68.756104%, 44.863892%)" offset="0.242187"/><stop stop-opacity="1" stop-color="rgb(90.327454%, 68.4021%, 45.204163%)" offset="0.25"/><stop stop-opacity="1" stop-color="rgb(90.220642%, 68.04657%, 45.542908%)" offset="0.257812"/><stop stop-opacity="1" stop-color="rgb(90.113831%, 67.69104%, 45.883179%)" offset="0.265625"/><stop stop-opacity="1" stop-color="rgb(90.007019%, 67.33551%, 46.22345%)" offset="0.273438"/><stop stop-opacity="1" stop-color="rgb(89.900208%, 66.97998%, 46.563721%)" offset="0.28125"/><stop stop-opacity="1" stop-color="rgb(89.79187%, 66.624451%, 46.902466%)" offset="0.289062"/><stop stop-opacity="1" stop-color="rgb(89.685059%, 66.268921%, 47.242737%)" offset="0.296875"/><stop stop-opacity="1" stop-color="rgb(89.578247%, 65.913391%, 47.583008%)" offset="0.304688"/><stop stop-opacity="1" stop-color="rgb(89.471436%, 65.557861%, 47.921753%)" offset="0.3125"/><stop stop-opacity="1" stop-color="rgb(89.364624%, 65.202332%, 48.262024%)" offset="0.320312"/><stop stop-opacity="1" stop-color="rgb(89.257812%, 64.846802%, 48.602295%)" offset="0.328125"/><stop stop-opacity="1" stop-color="rgb(89.151001%, 64.491272%, 48.942566%)" offset="0.335938"/><stop stop-opacity="1" stop-color="rgb(89.042664%, 64.135742%, 49.281311%)" offset="0.34375"/><stop stop-opacity="1" stop-color="rgb(88.935852%, 63.780212%, 49.621582%)" offset="0.351562"/><stop stop-opacity="1" stop-color="rgb(88.829041%, 63.424683%, 49.961853%)" offset="0.359375"/><stop stop-opacity="1" stop-color="rgb(88.722229%, 63.069153%, 50.300598%)" offset="0.367188"/><stop stop-opacity="1" stop-color="rgb(88.615417%, 62.713623%, 50.640869%)" offset="0.375"/><stop stop-opacity="1" stop-color="rgb(88.508606%, 62.358093%, 50.98114%)" offset="0.382812"/><stop stop-opacity="1" stop-color="rgb(88.401794%, 62.002563%, 51.321411%)" offset="0.390625"/><stop stop-opacity="1" stop-color="rgb(88.293457%, 61.647034%, 51.660156%)" offset="0.398438"/><stop stop-opacity="1" stop-color="rgb(88.186646%, 61.291504%, 52.000427%)" offset="0.40625"/><stop stop-opacity="1" stop-color="rgb(88.079834%, 60.935974%, 52.340698%)" offset="0.414062"/><stop stop-opacity="1" stop-color="rgb(87.973022%, 60.580444%, 52.679443%)" offset="0.421875"/><stop stop-opacity="1" stop-color="rgb(87.866211%, 60.224915%, 53.019714%)" offset="0.429688"/><stop stop-opacity="1" stop-color="rgb(87.759399%, 59.870911%, 53.359985%)" offset="0.4375"/><stop stop-opacity="1" stop-color="rgb(87.652588%, 59.515381%, 53.700256%)" offset="0.445312"/><stop stop-opacity="1" stop-color="rgb(87.54425%, 59.159851%, 54.039001%)" offset="0.453125"/><stop stop-opacity="1" stop-color="rgb(87.437439%, 58.804321%, 54.379272%)" offset="0.460938"/><stop stop-opacity="1" stop-color="rgb(87.330627%, 58.448792%, 54.719543%)" offset="0.46875"/><stop stop-opacity="1" stop-color="rgb(87.223816%, 58.093262%, 55.058289%)" offset="0.476562"/><stop stop-opacity="1" stop-color="rgb(87.117004%, 57.737732%, 55.39856%)" offset="0.484375"/><stop stop-opacity="1" stop-color="rgb(87.010193%, 57.382202%, 55.738831%)" offset="0.492188"/><stop stop-opacity="1" stop-color="rgb(86.903381%, 57.026672%, 56.079102%)" offset="0.5"/><stop stop-opacity="1" stop-color="rgb(86.795044%, 56.671143%, 56.417847%)" offset="0.507812"/><stop stop-opacity="1" stop-color="rgb(86.688232%, 56.315613%, 56.758118%)" offset="0.515625"/><stop stop-opacity="1" stop-color="rgb(86.581421%, 55.960083%, 57.098389%)" offset="0.523438"/><stop stop-opacity="1" stop-color="rgb(86.474609%, 55.604553%, 57.43866%)" offset="0.53125"/><stop stop-opacity="1" stop-color="rgb(86.367798%, 55.249023%, 57.777405%)" offset="0.539062"/><stop stop-opacity="1" stop-color="rgb(86.260986%, 54.893494%, 58.117676%)" offset="0.546875"/><stop stop-opacity="1" stop-color="rgb(86.154175%, 54.537964%, 58.457947%)" offset="0.554688"/><stop stop-opacity="1" stop-color="rgb(86.045837%, 54.182434%, 58.796692%)" offset="0.5625"/><stop stop-opacity="1" stop-color="rgb(85.939026%, 53.826904%, 59.136963%)" offset="0.570313"/><stop stop-opacity="1" stop-color="rgb(85.832214%, 53.471375%, 59.477234%)" offset="0.578125"/><stop stop-opacity="1" stop-color="rgb(85.725403%, 53.115845%, 59.817505%)" offset="0.585938"/><stop stop-opacity="1" stop-color="rgb(85.618591%, 52.760315%, 60.15625%)" offset="0.59375"/><stop stop-opacity="1" stop-color="rgb(85.51178%, 52.404785%, 60.496521%)" offset="0.601562"/><stop stop-opacity="1" stop-color="rgb(85.404968%, 52.049255%, 60.836792%)" offset="0.609375"/><stop stop-opacity="1" stop-color="rgb(85.296631%, 51.693726%, 61.175537%)" offset="0.617188"/><stop stop-opacity="1" stop-color="rgb(85.189819%, 51.339722%, 61.515808%)" offset="0.625"/><stop stop-opacity="1" stop-color="rgb(85.083008%, 50.984192%, 61.856079%)" offset="0.632813"/><stop stop-opacity="1" stop-color="rgb(84.976196%, 50.628662%, 62.19635%)" offset="0.640625"/><stop stop-opacity="1" stop-color="rgb(84.869385%, 50.273132%, 62.535095%)" offset="0.648438"/><stop stop-opacity="1" stop-color="rgb(84.762573%, 49.917603%, 62.875366%)" offset="0.65625"/><stop stop-opacity="1" stop-color="rgb(84.655762%, 49.562073%, 63.215637%)" offset="0.664062"/><stop stop-opacity="1" stop-color="rgb(84.547424%, 49.206543%, 63.554382%)" offset="0.671875"/><stop stop-opacity="1" stop-color="rgb(84.440613%, 48.851013%, 63.894653%)" offset="0.679688"/><stop stop-opacity="1" stop-color="rgb(84.333801%, 48.495483%, 64.234924%)" offset="0.6875"/><stop stop-opacity="1" stop-color="rgb(84.22699%, 48.139954%, 64.575195%)" offset="0.695313"/><stop stop-opacity="1" stop-color="rgb(84.120178%, 47.784424%, 64.91394%)" offset="0.703125"/><stop stop-opacity="1" stop-color="rgb(84.013367%, 47.428894%, 65.254211%)" offset="0.710938"/><stop stop-opacity="1" stop-color="rgb(83.906555%, 47.073364%, 65.594482%)" offset="0.71875"/><stop stop-opacity="1" stop-color="rgb(83.798218%, 46.717834%, 65.933228%)" offset="0.726562"/><stop stop-opacity="1" stop-color="rgb(83.691406%, 46.362305%, 66.273499%)" offset="0.734375"/><stop stop-opacity="1" stop-color="rgb(83.584595%, 46.006775%, 66.61377%)" offset="0.742188"/><stop stop-opacity="1" stop-color="rgb(83.477783%, 45.651245%, 66.954041%)" offset="0.75"/><stop stop-opacity="1" stop-color="rgb(83.370972%, 45.295715%, 67.292786%)" offset="0.757812"/><stop stop-opacity="1" stop-color="rgb(83.26416%, 44.940186%, 67.633057%)" offset="0.765625"/><stop stop-opacity="1" stop-color="rgb(83.157349%, 44.584656%, 67.973328%)" offset="0.773438"/><stop stop-opacity="1" stop-color="rgb(83.049011%, 44.229126%, 68.312073%)" offset="0.78125"/><stop stop-opacity="1" stop-color="rgb(82.9422%, 43.873596%, 68.652344%)" offset="0.789062"/><stop stop-opacity="1" stop-color="rgb(82.835388%, 43.518066%, 68.992615%)" offset="0.796875"/><stop stop-opacity="1" stop-color="rgb(82.728577%, 43.164062%, 69.332886%)" offset="0.804688"/><stop stop-opacity="1" stop-color="rgb(82.621765%, 42.808533%, 69.671631%)" offset="0.8125"/><stop stop-opacity="1" stop-color="rgb(82.514954%, 42.453003%, 70.011902%)" offset="0.820312"/><stop stop-opacity="1" stop-color="rgb(82.408142%, 42.097473%, 70.352173%)" offset="0.828125"/><stop stop-opacity="1" stop-color="rgb(82.299805%, 41.741943%, 70.692444%)" offset="0.835938"/><stop stop-opacity="1" stop-color="rgb(82.192993%, 41.386414%, 71.031189%)" offset="0.84375"/><stop stop-opacity="1" stop-color="rgb(82.086182%, 41.030884%, 71.37146%)" offset="0.851562"/><stop stop-opacity="1" stop-color="rgb(81.97937%, 40.675354%, 71.711731%)" offset="0.859375"/><stop stop-opacity="1" stop-color="rgb(81.872559%, 40.319824%, 72.050476%)" offset="0.867188"/><stop stop-opacity="1" stop-color="rgb(81.765747%, 39.964294%, 72.390747%)" offset="0.875"/><stop stop-opacity="1" stop-color="rgb(81.658936%, 39.608765%, 72.731018%)" offset="0.882812"/><stop stop-opacity="1" stop-color="rgb(81.550598%, 39.253235%, 73.071289%)" offset="0.890625"/><stop stop-opacity="1" stop-color="rgb(81.443787%, 38.897705%, 73.410034%)" offset="0.898438"/><stop stop-opacity="1" stop-color="rgb(81.336975%, 38.542175%, 73.750305%)" offset="0.90625"/><stop stop-opacity="1" stop-color="rgb(81.230164%, 38.186646%, 74.090576%)" offset="0.914062"/><stop stop-opacity="1" stop-color="rgb(81.123352%, 37.831116%, 74.429321%)" offset="0.921875"/><stop stop-opacity="1" stop-color="rgb(81.016541%, 37.475586%, 74.769592%)" offset="0.929688"/><stop stop-opacity="1" stop-color="rgb(80.909729%, 37.120056%, 75.109863%)" offset="0.9375"/><stop stop-opacity="1" stop-color="rgb(80.801392%, 36.764526%, 75.450134%)" offset="0.945312"/><stop stop-opacity="1" stop-color="rgb(80.69458%, 36.408997%, 75.788879%)" offset="0.953125"/><stop stop-opacity="1" stop-color="rgb(80.587769%, 36.053467%, 76.12915%)" offset="0.960938"/><stop stop-opacity="1" stop-color="rgb(80.480957%, 35.697937%, 76.469421%)" offset="0.96875"/><stop stop-opacity="1" stop-color="rgb(80.374146%, 35.342407%, 76.808167%)" offset="0.976562"/><stop stop-opacity="1" stop-color="rgb(80.267334%, 34.986877%, 77.148438%)" offset="0.984375"/><stop stop-opacity="1" stop-color="rgb(80.160522%, 34.632874%, 77.488708%)" offset="0.992188"/><stop stop-opacity="1" stop-color="rgb(80.052185%, 34.277344%, 77.828979%)" offset="1"/></linearGradient></defs><g clip-path="url(#5d478fea4c)"><g clip-path="url(#d8222fee2f)"><path fill="url(#9e5cdad5ff)" d="M 3.761719 5.1875 L 3.761719 139.199219 L 166.214844 139.199219 L 166.214844 5.1875 Z M 3.761719 5.1875 " fill-rule="nonzero"/></g></g></svg>