<svg xmlns="http://www.w3.org/2000/svg" xmlns:xlink="http://www.w3.org/1999/xlink" width="226" zoomAndPan="magnify" viewBox="0 0 169.92 141.750002" height="188" preserveAspectRatio="xMidYMid meet" version="1.0"><defs><clipPath id="ce3df29db7"><path d="M 8.453125 4 L 165.675781 4 L 165.675781 138.1875 L 8.453125 138.1875 Z M 8.453125 4 " clip-rule="nonzero"/></clipPath></defs><g clip-path="url(#ce3df29db7)"><path fill="#000000" d="M 156.777344 31.332031 L 115.878906 31.332031 C 114.550781 15.386719 100.609375 3.425781 84.675781 4.753906 C 70.464844 5.949219 59.3125 17.113281 58.117188 31.332031 L 17.351562 31.332031 C 12.839844 31.332031 9.121094 35.054688 8.988281 39.574219 L 8.988281 129.8125 C 8.988281 134.464844 12.707031 138.054688 17.351562 138.1875 L 156.777344 138.1875 C 161.425781 138.1875 165.007812 134.464844 165.140625 129.8125 L 165.140625 39.574219 C 165.007812 35.054688 161.292969 31.332031 156.777344 31.332031 Z M 13.769531 129.8125 L 13.769531 39.574219 C 13.769531 39.308594 13.769531 39.042969 13.902344 38.777344 L 65.820312 84.625 L 13.769531 130.476562 C 13.769531 130.34375 13.769531 130.078125 13.769531 129.8125 Z M 87.066406 62.566406 C 102.203125 62.566406 114.683594 51.003906 115.878906 35.851562 L 156.511719 35.851562 L 89.851562 94.59375 C 88.261719 96.054688 85.738281 96.054688 84.144531 94.59375 L 17.484375 35.984375 L 58.117188 35.984375 C 59.445312 51.003906 71.925781 62.566406 87.066406 62.566406 Z M 69.40625 87.816406 L 81.222656 98.183594 C 84.675781 101.105469 89.71875 101.105469 93.039062 98.183594 L 104.859375 87.816406 L 156.644531 133.535156 L 17.484375 133.535156 Z M 108.308594 84.625 L 160.363281 38.777344 C 160.363281 39.042969 160.496094 39.308594 160.496094 39.574219 L 160.496094 129.8125 C 160.496094 130.078125 160.496094 130.34375 160.363281 130.609375 Z M 87.066406 9.273438 C 100.476562 9.273438 111.363281 20.167969 111.363281 33.59375 C 111.363281 47.015625 100.476562 57.914062 87.066406 57.914062 C 73.652344 57.914062 62.765625 47.015625 62.765625 33.59375 C 62.765625 20.167969 73.652344 9.273438 87.066406 9.273438 Z M 87.066406 9.273438 " fill-opacity="1" fill-rule="nonzero"/></g><path fill="#000000" d="M 89.054688 17.644531 L 85.074219 17.644531 C 77.371094 17.644531 71.128906 23.890625 71.128906 31.597656 L 71.128906 35.585938 C 71.128906 43.292969 77.371094 49.539062 85.074219 49.539062 L 87.332031 49.539062 C 88.660156 49.539062 89.585938 48.476562 89.585938 47.148438 C 89.585938 45.820312 88.527344 44.757812 87.332031 44.757812 L 85.074219 44.757812 C 79.894531 44.757812 75.777344 40.636719 75.777344 35.453125 L 75.777344 31.464844 C 75.777344 26.28125 79.894531 22.164062 85.074219 22.164062 L 89.054688 22.164062 C 94.234375 22.164062 98.351562 26.28125 98.351562 31.464844 L 98.351562 38.511719 C 98.351562 39.175781 97.820312 39.707031 97.15625 39.707031 L 95.695312 39.707031 C 95.03125 39.707031 94.5 39.175781 94.5 38.511719 L 94.5 31.996094 C 94.5 28.675781 91.84375 26.015625 88.527344 26.015625 L 85.738281 26.015625 C 82.417969 26.015625 79.761719 28.675781 79.761719 31.996094 L 79.761719 34.789062 C 79.761719 38.109375 82.417969 40.769531 85.738281 40.769531 L 90.382812 40.769531 C 91.3125 42.894531 93.304688 44.359375 95.695312 44.359375 L 97.15625 44.359375 C 100.34375 44.359375 103 41.699219 103 38.511719 L 103 31.464844 C 103 23.890625 96.757812 17.644531 89.054688 17.644531 Z M 84.410156 35.054688 L 84.410156 32.261719 C 84.410156 31.597656 84.941406 30.933594 85.738281 30.933594 L 88.527344 30.933594 C 89.1875 30.933594 89.851562 31.464844 89.851562 32.261719 L 89.851562 36.382812 L 85.738281 36.382812 C 84.941406 36.382812 84.410156 35.71875 84.410156 35.054688 Z M 84.410156 35.054688 " fill-opacity="1" fill-rule="nonzero"/></svg>