<svg xmlns="http://www.w3.org/2000/svg" xmlns:xlink="http://www.w3.org/1999/xlink" width="226" zoomAndPan="magnify" viewBox="0 0 169.92 141.750002" height="188" preserveAspectRatio="xMidYMid meet" version="1.0"><defs><clipPath id="0df842e58c"><path d="M 76 5.625 L 98 5.625 L 98 32 L 76 32 Z M 76 5.625 " clip-rule="nonzero"/></clipPath><clipPath id="fe35af33c7"><path d="M 21.527344 55 L 47 55 L 47 82 L 21.527344 82 Z M 21.527344 55 " clip-rule="nonzero"/></clipPath><clipPath id="f40249afdd"><path d="M 133 66 L 148.804688 66 L 148.804688 82 L 133 82 Z M 133 66 " clip-rule="nonzero"/></clipPath><clipPath id="6547c2db6b"><path d="M 80 114.21875 L 97.199219 114.21875 L 97.199219 131.1875 L 80 131.1875 Z M 80 114.21875 " clip-rule="nonzero"/></clipPath><clipPath id="11e6c80552"><path d="M 78.722656 121.558594 L 88.59375 121.558594 L 88.59375 131.1875 L 78.722656 131.1875 Z M 78.722656 121.558594 " clip-rule="nonzero"/></clipPath></defs><path fill="#ff66c4" d="M 58.800781 63.914062 L 58.800781 86.753906 C 58.800781 86.910156 58.925781 87.035156 59.082031 87.035156 L 118.128906 87.035156 C 118.285156 87.035156 118.410156 86.910156 118.410156 86.753906 L 118.410156 47.824219 C 118.410156 47.671875 118.285156 47.542969 118.128906 47.542969 L 76.519531 47.542969 C 76.839844 50.546875 76.234375 53.617188 74.789062 56.285156 L 79.433594 63.285156 C 79.554688 63.464844 79.550781 63.699219 79.425781 63.875 C 79.304688 64.050781 79.085938 64.132812 78.875 64.085938 L 69.542969 61.878906 C 68.308594 62.652344 66.964844 63.238281 65.550781 63.628906 C 63.351562 64.234375 61.03125 64.332031 58.800781 63.914062 Z M 118.128906 88.082031 L 59.082031 88.082031 C 58.347656 88.082031 57.753906 87.488281 57.753906 86.753906 L 57.753906 63.265625 C 57.753906 63.109375 57.824219 62.957031 57.953125 62.855469 C 58.078125 62.757812 58.242188 62.71875 58.398438 62.757812 C 60.648438 63.285156 63.027344 63.234375 65.273438 62.617188 C 66.65625 62.238281 67.96875 61.652344 69.164062 60.878906 C 69.285156 60.800781 69.429688 60.773438 69.570312 60.808594 L 77.828125 62.757812 L 73.738281 56.601562 C 73.632812 56.433594 73.625 56.222656 73.722656 56.050781 C 75.261719 53.34375 75.859375 50.164062 75.40625 47.097656 C 75.382812 46.945312 75.429688 46.792969 75.527344 46.679688 C 75.628906 46.5625 75.773438 46.496094 75.925781 46.496094 L 118.128906 46.496094 C 118.863281 46.496094 119.457031 47.09375 119.457031 47.824219 L 119.457031 86.753906 C 119.457031 87.488281 118.863281 88.082031 118.128906 88.082031 " fill-opacity="1" fill-rule="nonzero"/><path fill="#ff66c4" d="M 121.011719 92.09375 C 120.722656 92.09375 120.488281 91.859375 120.488281 91.570312 L 120.488281 45.800781 C 120.488281 45.582031 120.324219 45.402344 120.125 45.402344 L 75.441406 45.402344 C 75.152344 45.402344 74.917969 45.167969 74.917969 44.878906 C 74.917969 44.589844 75.152344 44.355469 75.441406 44.355469 L 120.125 44.355469 C 120.902344 44.355469 121.535156 45.003906 121.535156 45.800781 L 121.535156 91.570312 C 121.535156 91.859375 121.300781 92.09375 121.011719 92.09375 " fill-opacity="1" fill-rule="nonzero"/><path fill="#ff66c4" d="M 56.199219 92.09375 C 55.910156 92.09375 55.675781 91.859375 55.675781 91.570312 L 55.675781 62.613281 C 55.675781 62.324219 55.910156 62.089844 56.199219 62.089844 C 56.488281 62.089844 56.722656 62.324219 56.722656 62.613281 L 56.722656 91.570312 C 56.722656 91.859375 56.488281 92.09375 56.199219 92.09375 " fill-opacity="1" fill-rule="nonzero"/><path fill="#ff66c4" d="M 51.679688 95.429688 L 125.53125 95.429688 L 127.40625 93.664062 L 127.40625 92.0625 L 49.804688 92.0625 L 49.804688 93.664062 Z M 125.652344 96.476562 L 51.558594 96.476562 C 51.371094 96.476562 51.1875 96.40625 51.050781 96.277344 L 48.992188 94.339844 C 48.84375 94.199219 48.757812 93.996094 48.757812 93.789062 L 48.757812 91.769531 C 48.757812 91.351562 49.089844 91.015625 49.503906 91.015625 L 127.710938 91.015625 C 128.121094 91.015625 128.457031 91.351562 128.457031 91.769531 L 128.457031 93.789062 C 128.457031 93.996094 128.367188 94.199219 128.21875 94.339844 L 126.160156 96.277344 C 126.023438 96.40625 125.84375 96.476562 125.652344 96.476562 " fill-opacity="1" fill-rule="nonzero"/><path fill="#ff66c4" d="M 127.929688 94.414062 L 49.28125 94.414062 C 48.992188 94.414062 48.757812 94.179688 48.757812 93.890625 C 48.757812 93.601562 48.992188 93.367188 49.28125 93.367188 L 127.929688 93.367188 C 128.21875 93.367188 128.457031 93.601562 128.457031 93.890625 C 128.457031 94.179688 128.21875 94.414062 127.929688 94.414062 " fill-opacity="1" fill-rule="nonzero"/><path fill="#ff66c4" d="M 88.605469 52.710938 C 84.777344 52.710938 81.664062 55.824219 81.664062 59.652344 C 81.664062 63.480469 84.777344 66.59375 88.605469 66.59375 C 92.433594 66.59375 95.546875 63.480469 95.546875 59.652344 C 95.546875 55.824219 92.433594 52.710938 88.605469 52.710938 Z M 88.605469 67.640625 C 84.199219 67.640625 80.617188 64.058594 80.617188 59.652344 C 80.617188 55.246094 84.199219 51.660156 88.605469 51.660156 C 93.011719 51.660156 96.597656 55.246094 96.597656 59.652344 C 96.597656 64.058594 93.011719 67.640625 88.605469 67.640625 " fill-opacity="1" fill-rule="nonzero"/><path fill="#ff66c4" d="M 77.117188 84.785156 L 75.585938 84.785156 C 74.46875 84.785156 73.441406 84.222656 72.839844 83.28125 C 72.234375 82.34375 72.15625 81.175781 72.621094 80.15625 C 73.769531 77.667969 75.453125 74.089844 76.988281 71.167969 C 77.167969 70.636719 77.84375 69.992188 81.074219 69.542969 C 83.105469 69.257812 85.785156 69.101562 88.628906 69.101562 C 88.636719 69.101562 88.644531 69.101562 88.652344 69.101562 C 91.492188 69.101562 94.164062 69.257812 96.179688 69.542969 C 99.382812 69.992188 100.054688 70.640625 100.230469 71.167969 C 101.757812 74.078125 103.445312 77.664062 104.589844 80.164062 C 105.058594 81.175781 104.976562 82.34375 104.371094 83.285156 C 103.769531 84.222656 102.742188 84.785156 101.625 84.785156 L 100.097656 84.785156 C 99.945312 84.785156 99.804688 84.722656 99.703125 84.609375 L 95.679688 80.066406 C 95.488281 79.851562 95.507812 79.519531 95.722656 79.328125 C 95.941406 79.136719 96.273438 79.15625 96.464844 79.371094 L 100.332031 83.738281 L 101.625 83.738281 C 102.382812 83.738281 103.082031 83.355469 103.488281 82.71875 C 103.898438 82.082031 103.953125 81.289062 103.636719 80.601562 C 102.488281 78.097656 100.804688 74.511719 99.28125 71.609375 C 99.265625 71.578125 99.25 71.546875 99.242188 71.511719 C 99.214844 71.472656 98.824219 70.964844 95.949219 70.570312 C 94.050781 70.308594 91.539062 70.160156 88.878906 70.152344 C 86.121094 70.140625 83.496094 70.28125 81.480469 70.546875 C 78.421875 70.945312 78.007812 71.46875 77.980469 71.515625 C 77.96875 71.546875 77.957031 71.582031 77.941406 71.609375 C 76.410156 74.519531 74.722656 78.101562 73.574219 80.597656 C 73.257812 81.285156 73.3125 82.078125 73.722656 82.71875 C 74.128906 83.355469 74.828125 83.738281 75.585938 83.738281 L 76.878906 83.738281 L 80.75 79.371094 C 80.941406 79.15625 81.273438 79.136719 81.488281 79.328125 C 81.703125 79.519531 81.726562 79.851562 81.53125 80.066406 L 77.507812 84.609375 C 77.410156 84.722656 77.265625 84.785156 77.117188 84.785156 " fill-opacity="1" fill-rule="nonzero"/><path fill="#ff66c4" d="M 97.371094 81.710938 L 79.839844 81.710938 C 79.550781 81.710938 79.316406 81.476562 79.316406 81.1875 C 79.316406 80.898438 79.550781 80.664062 79.839844 80.664062 L 97.371094 80.664062 C 97.660156 80.664062 97.894531 80.898438 97.894531 81.1875 C 97.894531 81.476562 97.660156 81.710938 97.371094 81.710938 " fill-opacity="1" fill-rule="nonzero"/><path fill="#ff66c4" d="M 61.800781 53.964844 C 62.21875 53.976562 62.578125 53.648438 62.613281 53.230469 L 63.628906 40.984375 C 63.644531 40.761719 63.574219 40.546875 63.421875 40.382812 C 63.273438 40.214844 63.066406 40.121094 62.84375 40.117188 L 61.238281 40.089844 C 61.015625 40.085938 60.804688 40.171875 60.648438 40.332031 C 60.492188 40.496094 60.414062 40.707031 60.421875 40.929688 L 61.015625 53.203125 C 61.035156 53.621094 61.378906 53.957031 61.800781 53.964844 Z M 61.816406 55.015625 C 61.804688 55.015625 61.792969 55.015625 61.78125 55.015625 C 60.808594 54.996094 60.011719 54.222656 59.964844 53.253906 L 59.375 40.980469 C 59.351562 40.472656 59.539062 39.96875 59.894531 39.601562 C 60.25 39.238281 60.746094 39.03125 61.257812 39.042969 L 62.859375 39.070312 C 63.371094 39.078125 63.859375 39.300781 64.199219 39.675781 C 64.542969 40.054688 64.714844 40.566406 64.671875 41.074219 L 63.660156 53.316406 C 63.578125 54.273438 62.773438 55.015625 61.816406 55.015625 " fill-opacity="1" fill-rule="nonzero"/><path fill="#ff66c4" d="M 61.875 56.453125 C 61.816406 56.453125 61.75 56.460938 61.6875 56.476562 C 61.46875 56.523438 61.277344 56.660156 61.152344 56.851562 C 61.03125 57.042969 60.988281 57.273438 61.039062 57.496094 C 61.140625 57.957031 61.597656 58.25 62.058594 58.144531 C 62.519531 58.042969 62.8125 57.585938 62.710938 57.125 C 62.660156 56.902344 62.527344 56.710938 62.335938 56.589844 C 62.195312 56.5 62.039062 56.453125 61.875 56.453125 Z M 61.875 59.214844 C 61 59.214844 60.210938 58.609375 60.015625 57.722656 C 59.90625 57.226562 59.996094 56.714844 60.269531 56.289062 C 60.542969 55.859375 60.964844 55.5625 61.460938 55.449219 C 61.960938 55.339844 62.46875 55.429688 62.898438 55.703125 C 63.328125 55.976562 63.625 56.402344 63.734375 56.898438 C 63.960938 57.925781 63.3125 58.941406 62.289062 59.167969 C 62.148438 59.199219 62.011719 59.214844 61.875 59.214844 " fill-opacity="1" fill-rule="nonzero"/><path fill="#ff66c4" d="M 58.277344 63.792969 C 58.238281 63.792969 58.199219 63.789062 58.160156 63.777344 C 57.425781 63.609375 56.703125 63.378906 56.003906 63.101562 C 53.890625 62.257812 51.964844 60.925781 50.4375 59.25 C 48.835938 57.488281 47.699219 55.425781 47.0625 53.117188 C 46 49.242188 46.507812 45.1875 48.492188 41.695312 C 50.476562 38.203125 53.703125 35.695312 57.578125 34.628906 C 61.378906 33.582031 65.371094 34.054688 68.820312 35.957031 C 72.265625 37.855469 74.792969 40.96875 75.941406 44.726562 C 75.980469 44.847656 76.019531 44.984375 76.0625 45.140625 C 76.226562 45.738281 76.355469 46.34375 76.445312 46.945312 C 76.484375 47.230469 76.289062 47.496094 76 47.539062 C 75.714844 47.582031 75.449219 47.382812 75.40625 47.097656 C 75.324219 46.539062 75.207031 45.972656 75.054688 45.417969 C 75.011719 45.273438 74.976562 45.152344 74.941406 45.035156 C 72.710938 37.742188 65.207031 33.617188 57.855469 35.640625 C 54.25 36.628906 51.25 38.964844 49.402344 42.214844 C 47.554688 45.460938 47.085938 49.234375 48.074219 52.839844 C 49.25 57.101562 52.28125 60.488281 56.394531 62.128906 C 57.042969 62.386719 57.71875 62.597656 58.398438 62.757812 C 58.679688 62.824219 58.851562 63.105469 58.789062 63.386719 C 58.730469 63.628906 58.515625 63.792969 58.277344 63.792969 " fill-opacity="1" fill-rule="nonzero"/><g clip-path="url(#0df842e58c)"><path fill="#ff66c4" d="M 77.785156 10.234375 C 77.050781 19.222656 80.070312 25.675781 87.265625 30.488281 C 94.574219 25.453125 97.597656 19 96.757812 10.234375 L 87.269531 6.710938 Z M 87.269531 31.644531 C 87.171875 31.644531 87.070312 31.617188 86.984375 31.558594 C 79.128906 26.433594 75.886719 19.523438 76.773438 9.8125 C 76.789062 9.609375 76.921875 9.4375 77.109375 9.367188 L 87.085938 5.65625 C 87.207031 5.613281 87.335938 5.613281 87.453125 5.65625 L 97.429688 9.367188 C 97.617188 9.4375 97.746094 9.605469 97.769531 9.804688 C 98.773438 19.277344 95.527344 26.1875 87.5625 31.554688 C 87.472656 31.613281 87.371094 31.644531 87.269531 31.644531 " fill-opacity="1" fill-rule="nonzero"/></g><g clip-path="url(#fe35af33c7)"><path fill="#ff66c4" d="M 28.113281 74.707031 C 28.359375 74.707031 28.609375 74.789062 28.8125 74.953125 C 29.492188 75.511719 30.261719 75.949219 31.101562 76.253906 C 31.523438 76.410156 31.8125 76.800781 31.835938 77.246094 L 31.992188 80.28125 C 31.996094 80.316406 32.023438 80.34375 32.058594 80.34375 C 32.058594 80.34375 35.875 80.316406 35.875 80.316406 C 35.910156 80.316406 35.941406 80.285156 35.941406 80.25 L 36.054688 77.21875 C 36.074219 76.769531 36.351562 76.378906 36.769531 76.21875 C 37.175781 76.0625 37.578125 75.871094 37.964844 75.644531 C 38.347656 75.417969 38.714844 75.160156 39.046875 74.882812 C 39.390625 74.597656 39.867188 74.542969 40.265625 74.746094 L 42.972656 76.125 C 43.003906 76.144531 43.042969 76.128906 43.058594 76.097656 L 44.945312 72.78125 C 44.960938 72.75 44.953125 72.710938 44.921875 72.691406 L 42.351562 71.074219 C 41.972656 70.835938 41.773438 70.394531 41.84375 69.949219 C 41.984375 69.070312 41.976562 68.183594 41.824219 67.316406 C 41.75 66.878906 41.941406 66.4375 42.316406 66.191406 L 44.863281 64.539062 C 44.894531 64.519531 44.902344 64.480469 44.882812 64.449219 L 42.953125 61.160156 C 42.9375 61.128906 42.898438 61.117188 42.867188 61.136719 L 40.179688 62.550781 C 39.785156 62.761719 39.304688 62.714844 38.960938 62.433594 C 38.277344 61.878906 37.507812 61.4375 36.667969 61.132812 C 36.246094 60.976562 35.957031 60.585938 35.933594 60.140625 L 35.777344 57.109375 C 35.777344 57.070312 35.746094 57.042969 35.710938 57.042969 C 35.710938 57.042969 31.894531 57.070312 31.894531 57.070312 C 31.859375 57.074219 31.828125 57.101562 31.828125 57.136719 L 31.710938 60.171875 C 31.695312 60.617188 31.417969 61.007812 31 61.167969 C 30.59375 61.324219 30.191406 61.519531 29.804688 61.746094 C 29.421875 61.972656 29.054688 62.226562 28.722656 62.507812 C 28.378906 62.792969 27.902344 62.84375 27.503906 62.640625 L 24.800781 61.261719 C 24.765625 61.246094 24.726562 61.257812 24.710938 61.289062 L 22.824219 64.605469 C 22.808594 64.636719 22.816406 64.675781 22.847656 64.695312 L 25.417969 66.3125 C 25.796875 66.550781 25.996094 66.992188 25.925781 67.4375 C 25.785156 68.316406 25.792969 69.203125 25.945312 70.070312 C 26.023438 70.507812 25.828125 70.953125 25.453125 71.195312 L 22.902344 72.847656 C 22.875 72.867188 22.863281 72.910156 22.882812 72.941406 L 24.8125 76.230469 C 24.832031 76.257812 24.871094 76.269531 24.902344 76.253906 L 27.589844 74.835938 C 27.753906 74.75 27.933594 74.707031 28.113281 74.707031 Z M 32.058594 81.390625 C 31.464844 81.390625 30.976562 80.929688 30.945312 80.335938 L 30.789062 77.300781 C 30.785156 77.273438 30.765625 77.25 30.738281 77.238281 C 29.792969 76.890625 28.921875 76.398438 28.148438 75.765625 C 28.128906 75.753906 28.101562 75.75 28.078125 75.761719 L 25.390625 77.179688 C 24.863281 77.460938 24.210938 77.273438 23.910156 76.757812 L 21.976562 73.46875 C 21.675781 72.953125 21.832031 72.296875 22.332031 71.96875 L 24.882812 70.316406 C 24.902344 70.300781 24.914062 70.277344 24.910156 70.253906 C 24.738281 69.269531 24.730469 68.269531 24.890625 67.273438 C 24.894531 67.242188 24.882812 67.214844 24.859375 67.199219 L 22.289062 65.582031 C 21.78125 65.265625 21.617188 64.605469 21.914062 64.085938 L 23.796875 60.769531 C 24.09375 60.25 24.742188 60.054688 25.277344 60.328125 L 27.980469 61.707031 C 28.003906 61.71875 28.03125 61.71875 28.050781 61.703125 C 28.429688 61.386719 28.839844 61.09375 29.277344 60.839844 C 29.710938 60.585938 30.164062 60.367188 30.625 60.1875 C 30.648438 60.179688 30.664062 60.15625 30.664062 60.132812 L 30.78125 57.097656 C 30.800781 56.5 31.289062 56.027344 31.886719 56.023438 L 35.703125 55.996094 C 35.703125 55.996094 35.707031 55.996094 35.710938 55.996094 C 36.304688 55.996094 36.792969 56.457031 36.824219 57.054688 L 36.980469 60.085938 C 36.984375 60.113281 37.003906 60.136719 37.03125 60.148438 C 37.976562 60.496094 38.847656 60.992188 39.621094 61.621094 C 39.640625 61.636719 39.667969 61.636719 39.691406 61.625 L 42.375 60.207031 C 42.90625 59.929688 43.558594 60.113281 43.859375 60.628906 L 45.789062 63.917969 C 46.09375 64.433594 45.9375 65.09375 45.433594 65.421875 L 42.886719 67.074219 C 42.867188 67.085938 42.855469 67.113281 42.859375 67.132812 C 43.03125 68.117188 43.039062 69.121094 42.878906 70.113281 C 42.875 70.144531 42.886719 70.175781 42.910156 70.1875 L 45.480469 71.804688 C 45.988281 72.125 46.152344 72.78125 45.855469 73.300781 L 43.972656 76.617188 C 43.675781 77.136719 43.027344 77.332031 42.496094 77.058594 L 39.789062 75.679688 C 39.765625 75.667969 39.738281 75.671875 39.71875 75.6875 C 39.339844 76.003906 38.929688 76.292969 38.492188 76.546875 C 38.058594 76.804688 37.605469 77.023438 37.144531 77.199219 C 37.121094 77.207031 37.105469 77.230469 37.105469 77.257812 L 36.988281 80.289062 C 36.96875 80.886719 36.480469 81.359375 35.882812 81.363281 L 32.066406 81.390625 C 32.066406 81.390625 32.0625 81.390625 32.058594 81.390625 " fill-opacity="1" fill-rule="nonzero"/></g><path fill="#ff66c4" d="M 33.886719 63.542969 C 31.597656 63.542969 29.503906 65.082031 28.902344 67.394531 C 28.1875 70.144531 29.839844 72.960938 32.585938 73.675781 C 35.335938 74.394531 38.152344 72.738281 38.867188 69.992188 C 39.585938 67.242188 37.929688 64.425781 35.183594 63.710938 C 34.75 63.597656 34.3125 63.542969 33.886719 63.542969 Z M 33.882812 74.894531 C 33.367188 74.894531 32.84375 74.828125 32.324219 74.691406 C 29.015625 73.832031 27.023438 70.4375 27.886719 67.132812 C 28.746094 63.824219 32.140625 61.832031 35.445312 62.695312 C 37.050781 63.113281 38.394531 64.128906 39.230469 65.554688 C 40.070312 66.984375 40.300781 68.652344 39.882812 70.253906 C 39.160156 73.042969 36.636719 74.894531 33.882812 74.894531 " fill-opacity="1" fill-rule="nonzero"/><path fill="#ff66c4" d="M 128.070312 65.28125 C 128.050781 66.417969 128.5 67.53125 129.332031 68.335938 C 130.972656 69.921875 133.597656 69.875 135.183594 68.234375 C 136.765625 66.59375 136.71875 63.96875 135.082031 62.386719 C 134.246094 61.578125 133.121094 61.171875 131.984375 61.230469 L 134.113281 63.289062 C 134.46875 63.628906 134.582031 64.128906 134.441406 64.699219 C 134.148438 65.867188 132.777344 67.285156 131.621094 67.617188 C 131.058594 67.777344 130.554688 67.679688 130.203125 67.339844 Z M 132.207031 70.542969 C 130.90625 70.542969 129.609375 70.058594 128.605469 69.089844 C 127.261719 67.792969 126.71875 65.867188 127.1875 64.058594 C 127.234375 63.878906 127.371094 63.734375 127.550781 63.683594 C 127.730469 63.632812 127.925781 63.683594 128.058594 63.8125 L 130.929688 66.585938 C 131.003906 66.65625 131.140625 66.664062 131.332031 66.609375 C 132.128906 66.382812 133.222656 65.246094 133.425781 64.441406 C 133.472656 64.25 133.460938 64.113281 133.386719 64.042969 L 130.515625 61.269531 C 130.382812 61.140625 130.324219 60.949219 130.371094 60.769531 C 130.414062 60.585938 130.550781 60.441406 130.730469 60.390625 C 132.519531 59.859375 134.46875 60.335938 135.808594 61.632812 C 137.863281 63.617188 137.921875 66.90625 135.933594 68.964844 C 134.917969 70.015625 133.5625 70.542969 132.207031 70.542969 " fill-opacity="1" fill-rule="nonzero"/><g clip-path="url(#f40249afdd)"><path fill="#ff66c4" d="M 145.691406 81.027344 C 145.007812 81.027344 144.359375 80.765625 143.863281 80.289062 L 133.363281 70.144531 C 133.152344 69.945312 133.148438 69.613281 133.347656 69.402344 C 133.550781 69.195312 133.882812 69.1875 134.089844 69.390625 L 144.589844 79.535156 C 144.898438 79.828125 145.296875 79.988281 145.722656 79.980469 C 146.148438 79.972656 146.542969 79.800781 146.839844 79.492188 C 147.449219 78.863281 147.429688 77.855469 146.800781 77.246094 L 136.300781 67.101562 C 136.089844 66.902344 136.085938 66.570312 136.285156 66.363281 C 136.488281 66.152344 136.820312 66.148438 137.027344 66.347656 L 147.527344 76.492188 C 148.574219 77.503906 148.605469 79.175781 147.59375 80.222656 C 147.105469 80.730469 146.445312 81.015625 145.742188 81.027344 C 145.726562 81.027344 145.710938 81.027344 145.691406 81.027344 " fill-opacity="1" fill-rule="nonzero"/></g><path fill="#ff66c4" d="M 74.339844 112.917969 C 74.246094 114.273438 74.738281 115.628906 75.71875 116.609375 C 76.617188 117.507812 77.8125 118 79.082031 118 C 80.351562 118 81.546875 117.507812 82.441406 116.609375 C 84.296875 114.753906 84.296875 111.738281 82.441406 109.886719 C 81.460938 108.90625 80.109375 108.414062 78.753906 108.503906 L 81.234375 110.988281 C 82.121094 111.875 81.410156 113.378906 80.3125 114.476562 C 79.214844 115.578125 77.707031 116.289062 76.820312 115.398438 Z M 79.082031 119.050781 C 77.53125 119.050781 76.074219 118.445312 74.980469 117.351562 C 73.503906 115.875 72.933594 113.707031 73.488281 111.691406 C 73.539062 111.511719 73.679688 111.371094 73.863281 111.324219 C 74.042969 111.277344 74.234375 111.328125 74.367188 111.460938 L 77.5625 114.660156 C 77.820312 114.914062 78.707031 114.601562 79.570312 113.738281 C 80.433594 112.875 80.75 111.984375 80.492188 111.730469 L 77.296875 108.53125 C 77.164062 108.398438 77.113281 108.207031 77.160156 108.027344 C 77.207031 107.847656 77.347656 107.707031 77.527344 107.65625 C 79.539062 107.097656 81.707031 107.667969 83.183594 109.144531 C 85.445312 111.40625 85.445312 115.085938 83.183594 117.351562 C 82.089844 118.445312 80.632812 119.050781 79.082031 119.050781 " fill-opacity="1" fill-rule="nonzero"/><g clip-path="url(#6547c2db6b)"><path fill="#ff66c4" d="M 94.101562 131.1875 C 93.320312 131.1875 92.589844 130.882812 92.039062 130.332031 L 80.34375 118.636719 C 80.140625 118.433594 80.140625 118.101562 80.34375 117.898438 C 80.550781 117.691406 80.882812 117.691406 81.085938 117.898438 L 92.777344 129.589844 C 93.132812 129.941406 93.601562 130.136719 94.101562 130.136719 C 94.601562 130.136719 95.070312 129.941406 95.425781 129.589844 C 96.152344 128.859375 96.152344 127.675781 95.425781 126.945312 L 83.730469 115.25 C 83.527344 115.046875 83.527344 114.714844 83.730469 114.511719 C 83.9375 114.304688 84.269531 114.304688 84.472656 114.511719 L 96.164062 126.203125 C 97.304688 127.339844 97.304688 129.191406 96.164062 130.332031 C 95.613281 130.882812 94.882812 131.1875 94.101562 131.1875 " fill-opacity="1" fill-rule="nonzero"/></g><path fill="#ff66c4" d="M 96.898438 108.492188 C 95.652344 108.492188 94.433594 108.984375 93.53125 109.886719 C 91.675781 111.738281 91.675781 114.753906 93.53125 116.609375 C 95.382812 118.460938 98.398438 118.460938 100.253906 116.609375 C 101.234375 115.628906 101.726562 114.273438 101.636719 112.917969 L 99.152344 115.398438 C 98.265625 116.289062 96.757812 115.578125 95.660156 114.476562 C 94.5625 113.378906 93.851562 111.875 94.738281 110.988281 L 97.222656 108.503906 C 97.113281 108.496094 97.003906 108.492188 96.898438 108.492188 Z M 96.890625 119.046875 C 95.40625 119.046875 93.921875 118.480469 92.789062 117.351562 C 90.527344 115.085938 90.527344 111.40625 92.789062 109.144531 C 94.265625 107.667969 96.433594 107.097656 98.445312 107.65625 C 98.625 107.707031 98.765625 107.847656 98.8125 108.027344 C 98.859375 108.207031 98.808594 108.398438 98.675781 108.53125 L 95.480469 111.730469 C 95.222656 111.984375 95.539062 112.875 96.402344 113.738281 C 97.265625 114.601562 98.152344 114.914062 98.410156 114.660156 L 101.605469 111.460938 C 101.738281 111.328125 101.929688 111.277344 102.113281 111.324219 C 102.292969 111.371094 102.433594 111.511719 102.484375 111.691406 C 103.042969 113.707031 102.472656 115.875 100.996094 117.351562 C 99.863281 118.480469 98.378906 119.046875 96.890625 119.046875 " fill-opacity="1" fill-rule="nonzero"/><g clip-path="url(#11e6c80552)"><path fill="#ff66c4" d="M 81.871094 131.183594 C 81.125 131.183594 80.375 130.898438 79.808594 130.332031 C 79.257812 129.78125 78.953125 129.046875 78.953125 128.265625 C 78.953125 127.488281 79.253906 126.753906 79.808594 126.203125 L 84.230469 121.78125 C 84.433594 121.578125 84.765625 121.578125 84.96875 121.78125 C 85.175781 121.988281 85.175781 122.320312 84.96875 122.523438 L 80.546875 126.945312 C 80.195312 127.296875 80 127.769531 80 128.265625 C 80 128.769531 80.195312 129.234375 80.546875 129.589844 C 81.277344 130.316406 82.464844 130.316406 83.195312 129.589844 L 87.617188 125.167969 C 87.820312 124.964844 88.152344 124.964844 88.355469 125.167969 C 88.5625 125.375 88.5625 125.707031 88.355469 125.910156 L 83.933594 130.332031 C 83.367188 130.898438 82.621094 131.183594 81.871094 131.183594 " fill-opacity="1" fill-rule="nonzero"/></g><path fill="#ff66c4" d="M 91.375 122.675781 C 91.238281 122.675781 91.105469 122.625 91.003906 122.523438 C 90.796875 122.320312 90.796875 121.988281 91.003906 121.78125 L 94.886719 117.898438 C 95.09375 117.691406 95.421875 117.691406 95.628906 117.898438 C 95.832031 118.101562 95.832031 118.433594 95.628906 118.636719 L 91.742188 122.523438 C 91.640625 122.625 91.507812 122.675781 91.375 122.675781 " fill-opacity="1" fill-rule="nonzero"/><path fill="#ff66c4" d="M 87.988281 119.289062 C 87.851562 119.289062 87.71875 119.238281 87.617188 119.136719 C 87.410156 118.929688 87.410156 118.601562 87.617188 118.394531 L 91.5 114.511719 C 91.707031 114.304688 92.039062 114.304688 92.242188 114.511719 C 92.445312 114.714844 92.445312 115.046875 92.242188 115.25 L 88.355469 119.136719 C 88.253906 119.238281 88.121094 119.289062 87.988281 119.289062 " fill-opacity="1" fill-rule="nonzero"/><path fill="#ff66c4" d="M 108.296875 21.484375 C 108.226562 21.484375 108.15625 21.46875 108.089844 21.441406 C 106.398438 20.714844 104.652344 20.070312 102.898438 19.527344 C 102.621094 19.441406 102.464844 19.148438 102.550781 18.871094 C 102.636719 18.59375 102.929688 18.441406 103.207031 18.527344 C 104.996094 19.082031 106.777344 19.738281 108.503906 20.476562 C 108.769531 20.589844 108.894531 20.898438 108.777344 21.164062 C 108.695312 21.363281 108.5 21.484375 108.296875 21.484375 Z M 66.253906 21.488281 C 66.050781 21.488281 65.855469 21.367188 65.773438 21.167969 C 65.660156 20.902344 65.78125 20.59375 66.046875 20.480469 C 67.769531 19.746094 69.554688 19.089844 71.347656 18.539062 C 71.625 18.453125 71.917969 18.609375 72.003906 18.886719 C 72.089844 19.160156 71.933594 19.457031 71.65625 19.539062 C 69.898438 20.082031 68.148438 20.722656 66.460938 21.445312 C 66.394531 21.472656 66.324219 21.488281 66.253906 21.488281 Z M 119.140625 27.71875 C 119.03125 27.71875 118.921875 27.6875 118.828125 27.617188 C 117.351562 26.519531 115.800781 25.488281 114.21875 24.550781 C 113.96875 24.40625 113.886719 24.082031 114.035156 23.835938 C 114.183594 23.585938 114.503906 23.503906 114.753906 23.648438 C 116.367188 24.605469 117.949219 25.65625 119.453125 26.773438 C 119.6875 26.945312 119.734375 27.273438 119.5625 27.507812 C 119.460938 27.648438 119.300781 27.71875 119.140625 27.71875 Z M 55.414062 27.722656 C 55.253906 27.722656 55.097656 27.648438 54.992188 27.507812 C 54.820312 27.277344 54.871094 26.949219 55.101562 26.777344 C 56.605469 25.65625 58.1875 24.605469 59.796875 23.648438 C 60.046875 23.503906 60.367188 23.585938 60.515625 23.835938 C 60.664062 24.082031 60.582031 24.40625 60.332031 24.550781 C 58.75 25.488281 57.203125 26.519531 55.726562 27.617188 C 55.632812 27.6875 55.523438 27.722656 55.414062 27.722656 Z M 128.246094 36.292969 C 128.097656 36.292969 127.949219 36.230469 127.84375 36.105469 C 126.664062 34.699219 125.394531 33.339844 124.070312 32.0625 C 123.859375 31.859375 123.855469 31.527344 124.058594 31.320312 C 124.257812 31.109375 124.589844 31.105469 124.796875 31.304688 C 126.148438 32.609375 127.441406 33.996094 128.648438 35.433594 C 128.832031 35.652344 128.804688 35.984375 128.582031 36.171875 C 128.484375 36.253906 128.363281 36.292969 128.246094 36.292969 Z M 46.328125 36.308594 C 46.207031 36.308594 46.089844 36.269531 45.988281 36.1875 C 45.769531 36 45.738281 35.671875 45.925781 35.449219 C 47.128906 34.011719 48.421875 32.621094 49.765625 31.316406 C 49.972656 31.113281 50.304688 31.117188 50.507812 31.328125 C 50.707031 31.535156 50.703125 31.867188 50.496094 32.066406 C 49.175781 33.347656 47.910156 34.710938 46.730469 36.121094 C 46.625 36.246094 46.476562 36.308594 46.328125 36.308594 Z M 135.105469 46.746094 C 134.914062 46.746094 134.726562 46.640625 134.636719 46.457031 C 133.816406 44.8125 132.898438 43.191406 131.910156 41.640625 C 131.753906 41.398438 131.824219 41.074219 132.066406 40.917969 C 132.3125 40.761719 132.636719 40.835938 132.792969 41.078125 C 133.800781 42.660156 134.738281 44.3125 135.574219 45.988281 C 135.703125 46.25 135.597656 46.5625 135.339844 46.691406 C 135.265625 46.730469 135.183594 46.746094 135.105469 46.746094 Z M 39.46875 46.769531 C 39.390625 46.769531 39.308594 46.753906 39.234375 46.714844 C 38.976562 46.585938 38.871094 46.269531 39 46.011719 C 39.835938 44.335938 40.773438 42.683594 41.78125 41.101562 C 41.9375 40.855469 42.261719 40.785156 42.507812 40.941406 C 42.75 41.097656 42.824219 41.421875 42.667969 41.664062 C 41.679688 43.214844 40.757812 44.835938 39.9375 46.480469 C 39.847656 46.664062 39.660156 46.769531 39.46875 46.769531 Z M 139.332031 58.519531 C 139.09375 58.519531 138.878906 58.355469 138.820312 58.113281 C 138.40625 56.316406 137.894531 54.527344 137.296875 52.792969 C 137.199219 52.519531 137.347656 52.21875 137.621094 52.125 C 137.894531 52.03125 138.191406 52.175781 138.285156 52.449219 C 138.894531 54.222656 139.421875 56.046875 139.84375 57.875 C 139.910156 58.15625 139.730469 58.4375 139.449219 58.503906 C 139.410156 58.511719 139.371094 58.519531 139.332031 58.519531 Z M 135.984375 92.613281 C 135.914062 92.613281 135.839844 92.597656 135.769531 92.566406 C 135.507812 92.449219 135.386719 92.136719 135.507812 91.875 C 136.269531 90.195312 136.945312 88.460938 137.523438 86.71875 C 137.617188 86.445312 137.914062 86.292969 138.1875 86.386719 C 138.460938 86.476562 138.609375 86.773438 138.519531 87.050781 C 137.929688 88.828125 137.238281 90.597656 136.464844 92.304688 C 136.375 92.5 136.1875 92.613281 135.984375 92.613281 Z M 39.785156 95.105469 C 39.59375 95.105469 39.410156 95 39.316406 94.820312 C 38.457031 93.152344 37.679688 91.421875 37 89.671875 C 36.894531 89.402344 37.027344 89.101562 37.296875 88.996094 C 37.570312 88.890625 37.875 89.023438 37.976562 89.292969 C 38.644531 91.007812 39.40625 92.707031 40.25 94.339844 C 40.382812 94.597656 40.28125 94.914062 40.023438 95.046875 C 39.945312 95.085938 39.863281 95.105469 39.785156 95.105469 Z M 129.53125 103.328125 C 129.417969 103.328125 129.304688 103.292969 129.210938 103.222656 C 128.980469 103.042969 128.941406 102.714844 129.117188 102.484375 C 130.242188 101.03125 131.304688 99.5 132.273438 97.9375 C 132.425781 97.691406 132.75 97.617188 132.996094 97.769531 C 133.242188 97.921875 133.316406 98.246094 133.164062 98.492188 C 132.175781 100.085938 131.09375 101.644531 129.945312 103.128906 C 129.84375 103.261719 129.6875 103.328125 129.53125 103.328125 Z M 46.777344 105.464844 C 46.628906 105.464844 46.484375 105.402344 46.378906 105.28125 C 45.15625 103.863281 43.992188 102.359375 42.925781 100.820312 C 42.757812 100.582031 42.820312 100.257812 43.058594 100.09375 C 43.292969 99.925781 43.621094 99.984375 43.785156 100.222656 C 44.835938 101.734375 45.972656 103.203125 47.171875 104.597656 C 47.363281 104.816406 47.339844 105.148438 47.121094 105.335938 C 47.019531 105.421875 46.898438 105.464844 46.777344 105.464844 Z M 120.777344 112.257812 C 120.625 112.257812 120.472656 112.191406 120.367188 112.0625 C 120.1875 111.839844 120.222656 111.507812 120.449219 111.328125 C 121.878906 110.175781 123.265625 108.933594 124.570312 107.636719 C 124.773438 107.429688 125.105469 107.433594 125.3125 107.636719 C 125.515625 107.84375 125.511719 108.175781 125.308594 108.378906 C 123.980469 109.703125 122.566406 110.96875 121.105469 112.144531 C 121.007812 112.222656 120.894531 112.257812 120.777344 112.257812 Z M 55.988281 113.921875 C 55.882812 113.921875 55.777344 113.886719 55.683594 113.820312 C 54.164062 112.722656 52.683594 111.53125 51.289062 110.28125 C 51.070312 110.089844 51.054688 109.757812 51.246094 109.542969 C 51.4375 109.324219 51.773438 109.308594 51.988281 109.5 C 53.355469 110.726562 54.808594 111.894531 56.296875 112.972656 C 56.53125 113.140625 56.585938 113.46875 56.414062 113.703125 C 56.3125 113.84375 56.152344 113.921875 55.988281 113.921875 Z M 110.1875 118.90625 C 109.992188 118.90625 109.800781 118.796875 109.710938 118.605469 C 109.589844 118.34375 109.699219 118.03125 109.960938 117.90625 C 111.621094 117.121094 113.261719 116.238281 114.832031 115.277344 C 115.078125 115.128906 115.402344 115.207031 115.550781 115.453125 C 115.703125 115.699219 115.625 116.023438 115.378906 116.175781 C 113.777344 117.152344 112.105469 118.054688 110.410156 118.855469 C 110.339844 118.890625 110.261719 118.90625 110.1875 118.90625 Z M 66.914062 120.019531 C 66.847656 120.019531 66.777344 120.003906 66.714844 119.976562 C 64.980469 119.261719 63.265625 118.445312 61.617188 117.550781 C 61.363281 117.414062 61.269531 117.09375 61.40625 116.839844 C 61.542969 116.585938 61.863281 116.492188 62.117188 116.628906 C 63.734375 117.507812 65.414062 118.308594 67.113281 119.007812 C 67.382812 119.121094 67.507812 119.425781 67.398438 119.695312 C 67.316406 119.894531 67.117188 120.019531 66.914062 120.019531 " fill-opacity="1" fill-rule="nonzero"/></svg>