<svg xmlns="http://www.w3.org/2000/svg" xmlns:xlink="http://www.w3.org/1999/xlink" width="226" zoomAndPan="magnify" viewBox="0 0 169.92 141.750002" height="188" preserveAspectRatio="xMidYMid meet" version="1.0"><defs><clipPath id="b3ca8a4623"><path d="M 2.679688 14.148438 L 167.390625 14.148438 L 167.390625 121.957031 L 2.679688 121.957031 Z M 2.679688 14.148438 " clip-rule="nonzero"/></clipPath><clipPath id="320a8a736b"><path d="M 165.578125 14.5 L 4.488281 14.5 C 4.246094 14.5 4.011719 14.546875 3.789062 14.636719 C 3.566406 14.730469 3.367188 14.863281 3.195312 15.035156 C 3.023438 15.207031 2.890625 15.402344 2.796875 15.628906 C 2.707031 15.851562 2.660156 16.085938 2.660156 16.328125 L 2.660156 119.597656 C 2.660156 119.839844 2.707031 120.070312 2.796875 120.296875 C 2.890625 120.519531 3.023438 120.71875 3.195312 120.890625 C 3.367188 121.0625 3.566406 121.191406 3.789062 121.285156 C 4.011719 121.378906 4.246094 121.425781 4.488281 121.425781 L 165.578125 121.425781 C 165.820312 121.425781 166.054688 121.378906 166.277344 121.285156 C 166.503906 121.191406 166.703125 121.0625 166.871094 120.890625 C 167.042969 120.71875 167.175781 120.519531 167.269531 120.296875 C 167.363281 120.070312 167.410156 119.839844 167.410156 119.597656 L 167.410156 16.328125 C 167.410156 16.085938 167.363281 15.851562 167.269531 15.628906 C 167.175781 15.402344 167.042969 15.207031 166.871094 15.035156 C 166.703125 14.863281 166.503906 14.730469 166.277344 14.636719 C 166.054688 14.546875 165.820312 14.5 165.578125 14.5 Z M 6.320312 117.765625 L 6.320312 18.15625 L 47.761719 18.15625 L 47.761719 117.765625 Z M 163.75 117.765625 L 51.421875 117.765625 L 51.421875 18.15625 L 163.75 18.15625 Z M 157.722656 23.132812 C 157.722656 22.890625 157.769531 22.65625 157.863281 22.429688 C 157.957031 22.203125 158.089844 22.003906 158.265625 21.832031 C 158.4375 21.660156 158.636719 21.527344 158.863281 21.433594 C 159.089844 21.339844 159.324219 21.292969 159.570312 21.292969 C 159.816406 21.296875 160.050781 21.34375 160.277344 21.4375 C 160.5 21.53125 160.699219 21.664062 160.875 21.835938 C 161.046875 22.011719 161.179688 22.210938 161.273438 22.433594 C 161.367188 22.660156 161.410156 22.894531 161.410156 23.140625 C 161.410156 23.386719 161.363281 23.621094 161.269531 23.847656 C 161.175781 24.070312 161.042969 24.269531 160.871094 24.445312 C 160.695312 24.617188 160.496094 24.75 160.269531 24.84375 C 160.046875 24.9375 159.808594 24.980469 159.566406 24.980469 C 159.320312 24.980469 159.085938 24.933594 158.859375 24.839844 C 158.632812 24.746094 158.433594 24.613281 158.261719 24.441406 C 158.085938 24.265625 157.953125 24.066406 157.863281 23.839844 C 157.769531 23.613281 157.722656 23.378906 157.722656 23.132812 Z M 151.683594 23.132812 C 151.683594 22.890625 151.730469 22.65625 151.824219 22.429688 C 151.917969 22.203125 152.050781 22.003906 152.226562 21.832031 C 152.398438 21.660156 152.597656 21.527344 152.824219 21.433594 C 153.050781 21.339844 153.285156 21.292969 153.53125 21.292969 C 153.773438 21.296875 154.007812 21.34375 154.234375 21.4375 C 154.460938 21.53125 154.660156 21.664062 154.832031 21.835938 C 155.003906 22.007812 155.136719 22.207031 155.230469 22.433594 C 155.324219 22.660156 155.371094 22.894531 155.371094 23.136719 C 155.371094 23.382812 155.324219 23.617188 155.230469 23.84375 C 155.136719 24.070312 155.003906 24.269531 154.832031 24.441406 C 154.660156 24.613281 154.460938 24.746094 154.234375 24.839844 C 154.007812 24.933594 153.773438 24.980469 153.53125 24.980469 C 153.285156 24.980469 153.050781 24.933594 152.824219 24.839844 C 152.597656 24.746094 152.398438 24.613281 152.226562 24.441406 C 152.050781 24.265625 151.917969 24.066406 151.824219 23.839844 C 151.734375 23.613281 151.6875 23.378906 151.6875 23.132812 Z M 145.644531 23.132812 C 145.644531 22.890625 145.691406 22.65625 145.785156 22.429688 C 145.878906 22.203125 146.011719 22.007812 146.183594 21.832031 C 146.359375 21.660156 146.558594 21.527344 146.78125 21.433594 C 147.007812 21.339844 147.242188 21.292969 147.488281 21.292969 C 147.734375 21.292969 147.96875 21.339844 148.195312 21.433594 C 148.417969 21.527344 148.617188 21.660156 148.792969 21.832031 C 148.964844 22.007812 149.097656 22.203125 149.191406 22.429688 C 149.285156 22.65625 149.332031 22.890625 149.332031 23.132812 C 149.332031 23.378906 149.289062 23.613281 149.195312 23.839844 C 149.101562 24.066406 148.96875 24.265625 148.796875 24.4375 C 148.625 24.609375 148.425781 24.746094 148.199219 24.839844 C 147.976562 24.933594 147.738281 24.980469 147.496094 24.980469 C 147.25 24.980469 147.015625 24.933594 146.789062 24.839844 C 146.5625 24.746094 146.363281 24.613281 146.191406 24.441406 C 146.015625 24.265625 145.882812 24.066406 145.789062 23.839844 C 145.695312 23.613281 145.648438 23.378906 145.652344 23.132812 Z M 8.191406 23.132812 C 8.191406 22.890625 8.234375 22.660156 8.328125 22.433594 C 8.421875 22.210938 8.554688 22.011719 8.726562 21.839844 C 8.898438 21.671875 9.09375 21.539062 9.320312 21.445312 C 9.542969 21.351562 9.777344 21.304688 10.019531 21.304688 L 22.261719 21.304688 C 22.503906 21.304688 22.738281 21.351562 22.960938 21.445312 C 23.1875 21.539062 23.382812 21.671875 23.554688 21.839844 C 23.726562 22.011719 23.859375 22.210938 23.953125 22.433594 C 24.046875 22.660156 24.089844 22.890625 24.089844 23.132812 C 24.089844 23.378906 24.046875 23.609375 23.953125 23.835938 C 23.859375 24.058594 23.726562 24.257812 23.554688 24.429688 C 23.382812 24.597656 23.1875 24.730469 22.960938 24.824219 C 22.738281 24.917969 22.503906 24.964844 22.261719 24.964844 L 10.027344 24.964844 C 9.785156 24.964844 9.550781 24.917969 9.328125 24.824219 C 9.101562 24.730469 8.90625 24.597656 8.734375 24.429688 C 8.5625 24.257812 8.429688 24.058594 8.335938 23.835938 C 8.242188 23.609375 8.195312 23.378906 8.195312 23.132812 Z M 38.511719 33.882812 C 38.511719 34.125 38.464844 34.355469 38.375 34.582031 C 38.28125 34.804688 38.148438 35.003906 37.976562 35.175781 C 37.804688 35.347656 37.605469 35.476562 37.382812 35.570312 C 37.160156 35.664062 36.925781 35.710938 36.683594 35.710938 L 10.027344 35.710938 C 9.785156 35.710938 9.550781 35.664062 9.328125 35.570312 C 9.101562 35.476562 8.90625 35.347656 8.734375 35.175781 C 8.5625 35.003906 8.429688 34.804688 8.335938 34.582031 C 8.242188 34.355469 8.195312 34.125 8.195312 33.882812 C 8.195312 33.640625 8.242188 33.40625 8.335938 33.179688 C 8.429688 32.957031 8.5625 32.757812 8.734375 32.589844 C 8.90625 32.417969 9.101562 32.285156 9.328125 32.191406 C 9.550781 32.097656 9.785156 32.050781 10.027344 32.050781 L 36.683594 32.050781 C 36.925781 32.050781 37.160156 32.097656 37.382812 32.191406 C 37.605469 32.285156 37.804688 32.417969 37.976562 32.589844 C 38.148438 32.757812 38.28125 32.957031 38.375 33.179688 C 38.464844 33.40625 38.511719 33.640625 38.511719 33.882812 Z M 38.511719 40.417969 C 38.511719 40.660156 38.464844 40.890625 38.375 41.117188 C 38.28125 41.339844 38.148438 41.539062 37.976562 41.710938 C 37.804688 41.882812 37.605469 42.011719 37.382812 42.105469 C 37.160156 42.199219 36.925781 42.246094 36.683594 42.246094 L 10.027344 42.246094 C 9.785156 42.246094 9.550781 42.199219 9.328125 42.105469 C 9.101562 42.011719 8.90625 41.882812 8.734375 41.710938 C 8.5625 41.539062 8.429688 41.339844 8.335938 41.117188 C 8.242188 40.890625 8.195312 40.660156 8.195312 40.417969 C 8.195312 40.171875 8.242188 39.941406 8.335938 39.714844 C 8.429688 39.492188 8.5625 39.292969 8.734375 39.121094 C 8.90625 38.953125 9.101562 38.820312 9.328125 38.726562 C 9.550781 38.632812 9.785156 38.585938 10.027344 38.585938 L 36.683594 38.585938 C 36.925781 38.585938 37.160156 38.632812 37.382812 38.726562 C 37.605469 38.820312 37.804688 38.953125 37.976562 39.121094 C 38.148438 39.292969 38.28125 39.492188 38.375 39.714844 C 38.464844 39.941406 38.511719 40.171875 38.511719 40.417969 Z M 38.511719 46.949219 C 38.511719 47.191406 38.464844 47.425781 38.375 47.648438 C 38.28125 47.875 38.148438 48.070312 37.976562 48.242188 C 37.804688 48.414062 37.605469 48.546875 37.382812 48.640625 C 37.160156 48.730469 36.925781 48.777344 36.683594 48.777344 L 10.027344 48.777344 C 9.785156 48.777344 9.550781 48.730469 9.328125 48.640625 C 9.101562 48.546875 8.90625 48.414062 8.734375 48.242188 C 8.5625 48.070312 8.429688 47.875 8.335938 47.648438 C 8.242188 47.425781 8.195312 47.191406 8.195312 46.949219 C 8.195312 46.707031 8.242188 46.472656 8.335938 46.25 C 8.429688 46.023438 8.5625 45.828125 8.734375 45.65625 C 8.90625 45.484375 9.101562 45.351562 9.328125 45.257812 C 9.550781 45.167969 9.785156 45.121094 10.027344 45.121094 L 36.683594 45.121094 C 36.925781 45.121094 37.160156 45.167969 37.382812 45.257812 C 37.605469 45.351562 37.804688 45.484375 37.976562 45.65625 C 38.148438 45.828125 38.28125 46.023438 38.375 46.25 C 38.464844 46.472656 38.511719 46.707031 38.511719 46.949219 Z M 38.511719 53.484375 C 38.511719 53.726562 38.464844 53.960938 38.375 54.183594 C 38.28125 54.40625 38.148438 54.605469 37.976562 54.777344 C 37.804688 54.949219 37.605469 55.082031 37.382812 55.171875 C 37.160156 55.265625 36.925781 55.3125 36.683594 55.3125 L 10.027344 55.3125 C 9.785156 55.3125 9.550781 55.265625 9.328125 55.171875 C 9.101562 55.082031 8.90625 54.949219 8.734375 54.777344 C 8.5625 54.605469 8.429688 54.40625 8.335938 54.183594 C 8.242188 53.960938 8.195312 53.726562 8.195312 53.484375 C 8.195312 53.242188 8.242188 53.007812 8.335938 52.785156 C 8.429688 52.558594 8.5625 52.363281 8.734375 52.191406 C 8.90625 52.019531 9.101562 51.886719 9.328125 51.792969 C 9.550781 51.703125 9.785156 51.65625 10.027344 51.65625 L 36.683594 51.65625 C 36.925781 51.65625 37.160156 51.703125 37.382812 51.792969 C 37.605469 51.886719 37.804688 52.019531 37.976562 52.191406 C 38.148438 52.363281 38.28125 52.558594 38.375 52.785156 C 38.464844 53.007812 38.511719 53.242188 38.511719 53.484375 Z M 56.128906 72.402344 L 82.785156 72.402344 C 83.027344 72.402344 83.261719 72.355469 83.484375 72.261719 C 83.710938 72.167969 83.90625 72.035156 84.078125 71.863281 C 84.25 71.695312 84.382812 71.496094 84.476562 71.273438 C 84.570312 71.046875 84.613281 70.8125 84.613281 70.570312 L 84.613281 33.882812 C 84.613281 33.640625 84.570312 33.40625 84.476562 33.179688 C 84.382812 32.957031 84.25 32.757812 84.078125 32.589844 C 83.90625 32.417969 83.710938 32.285156 83.484375 32.191406 C 83.261719 32.097656 83.027344 32.050781 82.785156 32.050781 L 56.128906 32.050781 C 55.886719 32.050781 55.652344 32.097656 55.429688 32.191406 C 55.203125 32.285156 55.007812 32.417969 54.835938 32.589844 C 54.664062 32.757812 54.53125 32.957031 54.4375 33.179688 C 54.347656 33.40625 54.300781 33.640625 54.300781 33.882812 L 54.300781 70.570312 C 54.300781 70.8125 54.347656 71.046875 54.4375 71.273438 C 54.53125 71.496094 54.664062 71.695312 54.835938 71.863281 C 55.007812 72.035156 55.203125 72.167969 55.429688 72.261719 C 55.652344 72.355469 55.886719 72.402344 56.128906 72.402344 Z M 57.960938 35.710938 L 80.953125 35.710938 L 80.953125 68.742188 L 57.960938 68.742188 Z M 132.324219 72.402344 L 158.980469 72.402344 C 159.222656 72.402344 159.457031 72.355469 159.679688 72.261719 C 159.902344 72.167969 160.101562 72.035156 160.273438 71.863281 C 160.445312 71.695312 160.578125 71.496094 160.671875 71.273438 C 160.761719 71.046875 160.808594 70.8125 160.808594 70.570312 L 160.808594 33.882812 C 160.808594 33.640625 160.761719 33.40625 160.671875 33.179688 C 160.578125 32.957031 160.445312 32.757812 160.273438 32.589844 C 160.101562 32.417969 159.902344 32.285156 159.679688 32.191406 C 159.457031 32.097656 159.222656 32.050781 158.980469 32.050781 L 132.324219 32.050781 C 132.082031 32.050781 131.847656 32.097656 131.625 32.191406 C 131.398438 32.285156 131.203125 32.417969 131.03125 32.589844 C 130.859375 32.757812 130.726562 32.957031 130.632812 33.179688 C 130.539062 33.40625 130.492188 33.640625 130.492188 33.882812 L 130.492188 70.570312 C 130.492188 70.8125 130.539062 71.046875 130.632812 71.273438 C 130.726562 71.496094 130.859375 71.695312 131.03125 71.863281 C 131.203125 72.035156 131.398438 72.167969 131.625 72.261719 C 131.847656 72.355469 132.082031 72.402344 132.324219 72.402344 Z M 134.152344 35.710938 L 157.148438 35.710938 L 157.148438 68.742188 L 134.152344 68.742188 Z M 94.226562 72.402344 L 120.882812 72.402344 C 121.125 72.402344 121.359375 72.355469 121.582031 72.261719 C 121.808594 72.167969 122.003906 72.035156 122.175781 71.863281 C 122.347656 71.695312 122.480469 71.496094 122.574219 71.273438 C 122.664062 71.046875 122.710938 70.8125 122.710938 70.570312 L 122.710938 33.882812 C 122.710938 33.640625 122.664062 33.40625 122.574219 33.179688 C 122.480469 32.957031 122.347656 32.757812 122.175781 32.589844 C 122.003906 32.417969 121.808594 32.285156 121.582031 32.191406 C 121.359375 32.097656 121.125 32.050781 120.882812 32.050781 L 94.226562 32.050781 C 93.984375 32.050781 93.75 32.097656 93.527344 32.191406 C 93.300781 32.285156 93.105469 32.417969 92.933594 32.589844 C 92.761719 32.757812 92.628906 32.957031 92.535156 33.179688 C 92.441406 33.40625 92.398438 33.640625 92.398438 33.882812 L 92.398438 70.570312 C 92.398438 70.8125 92.441406 71.046875 92.535156 71.273438 C 92.628906 71.496094 92.761719 71.695312 92.933594 71.863281 C 93.105469 72.035156 93.300781 72.167969 93.527344 72.261719 C 93.75 72.355469 93.984375 72.402344 94.226562 72.402344 Z M 96.058594 35.710938 L 119.050781 35.710938 L 119.050781 68.742188 L 96.058594 68.742188 Z M 56.128906 115.792969 L 82.785156 115.792969 C 83.027344 115.792969 83.261719 115.746094 83.484375 115.65625 C 83.710938 115.5625 83.90625 115.429688 84.078125 115.257812 C 84.25 115.085938 84.382812 114.890625 84.476562 114.664062 C 84.570312 114.441406 84.613281 114.207031 84.613281 113.964844 L 84.613281 77.273438 C 84.613281 77.03125 84.570312 76.800781 84.476562 76.574219 C 84.382812 76.351562 84.25 76.152344 84.078125 75.980469 C 83.90625 75.808594 83.710938 75.679688 83.484375 75.585938 C 83.261719 75.492188 83.027344 75.445312 82.785156 75.445312 L 56.128906 75.445312 C 55.886719 75.445312 55.652344 75.492188 55.429688 75.585938 C 55.203125 75.679688 55.007812 75.808594 54.835938 75.980469 C 54.664062 76.152344 54.53125 76.351562 54.4375 76.574219 C 54.347656 76.800781 54.300781 77.03125 54.300781 77.273438 L 54.300781 113.964844 C 54.300781 114.207031 54.347656 114.441406 54.4375 114.664062 C 54.53125 114.890625 54.664062 115.085938 54.835938 115.257812 C 55.007812 115.429688 55.203125 115.5625 55.429688 115.65625 C 55.652344 115.746094 55.886719 115.792969 56.128906 115.792969 Z M 57.960938 79.105469 L 80.953125 79.105469 L 80.953125 112.136719 L 57.960938 112.136719 Z M 132.324219 115.792969 L 158.980469 115.792969 C 159.222656 115.792969 159.457031 115.746094 159.679688 115.65625 C 159.902344 115.5625 160.101562 115.429688 160.273438 115.257812 C 160.445312 115.085938 160.578125 114.890625 160.671875 114.664062 C 160.761719 114.441406 160.808594 114.207031 160.808594 113.964844 L 160.808594 77.273438 C 160.808594 77.03125 160.761719 76.800781 160.671875 76.574219 C 160.578125 76.351562 160.445312 76.152344 160.273438 75.980469 C 160.101562 75.808594 159.902344 75.679688 159.679688 75.585938 C 159.457031 75.492188 159.222656 75.445312 158.980469 75.445312 L 132.324219 75.445312 C 132.082031 75.445312 131.847656 75.492188 131.625 75.585938 C 131.398438 75.679688 131.203125 75.808594 131.03125 75.980469 C 130.859375 76.152344 130.726562 76.351562 130.632812 76.574219 C 130.539062 76.800781 130.492188 77.03125 130.492188 77.273438 L 130.492188 113.964844 C 130.492188 114.207031 130.539062 114.441406 130.632812 114.664062 C 130.726562 114.890625 130.859375 115.085938 131.03125 115.257812 C 131.203125 115.429688 131.398438 115.5625 131.625 115.65625 C 131.847656 115.746094 132.082031 115.792969 132.324219 115.792969 Z M 134.152344 79.105469 L 157.148438 79.105469 L 157.148438 112.136719 L 134.152344 112.136719 Z M 94.226562 115.792969 L 120.882812 115.792969 C 121.125 115.792969 121.359375 115.746094 121.582031 115.65625 C 121.808594 115.5625 122.003906 115.429688 122.175781 115.257812 C 122.347656 115.085938 122.480469 114.890625 122.574219 114.664062 C 122.664062 114.441406 122.710938 114.207031 122.710938 113.964844 L 122.710938 77.273438 C 122.710938 77.03125 122.664062 76.800781 122.574219 76.574219 C 122.480469 76.351562 122.347656 76.152344 122.175781 75.980469 C 122.003906 75.808594 121.808594 75.679688 121.582031 75.585938 C 121.359375 75.492188 121.125 75.445312 120.882812 75.445312 L 94.226562 75.445312 C 93.984375 75.445312 93.75 75.492188 93.527344 75.585938 C 93.300781 75.679688 93.105469 75.808594 92.933594 75.980469 C 92.761719 76.152344 92.628906 76.351562 92.535156 76.574219 C 92.441406 76.800781 92.398438 77.03125 92.398438 77.273438 L 92.398438 113.964844 C 92.398438 114.207031 92.441406 114.441406 92.535156 114.664062 C 92.628906 114.890625 92.761719 115.085938 92.933594 115.257812 C 93.105469 115.429688 93.300781 115.5625 93.527344 115.65625 C 93.75 115.746094 93.984375 115.792969 94.226562 115.792969 Z M 96.058594 79.105469 L 119.050781 79.105469 L 119.050781 112.136719 L 96.058594 112.136719 Z M 96.058594 79.105469 " clip-rule="nonzero"/></clipPath><linearGradient x1="50" gradientTransform="matrix(1.830106, 0, 0, 1.828929, -6.471217, -23.484681)" y1="79.232006" x2="50" gradientUnits="userSpaceOnUse" y2="20.768004" id="6bcd377b0a"><stop stop-opacity="1" stop-color="rgb(0.799561%, 0%, 53.29895%)" offset="0"/><stop stop-opacity="1" stop-color="rgb(0.971985%, 0.434875%, 53.530884%)" offset="0.00390625"/><stop stop-opacity="1" stop-color="rgb(1.145935%, 0.869751%, 53.764343%)" offset="0.0078125"/><stop stop-opacity="1" stop-color="rgb(1.318359%, 1.304626%, 53.996277%)" offset="0.0117187"/><stop stop-opacity="1" stop-color="rgb(1.490784%, 1.739502%, 54.22821%)" offset="0.015625"/><stop stop-opacity="1" stop-color="rgb(1.663208%, 2.174377%, 54.460144%)" offset="0.0195312"/><stop stop-opacity="1" stop-color="rgb(1.837158%, 2.609253%, 54.693604%)" offset="0.0234375"/><stop stop-opacity="1" stop-color="rgb(2.009583%, 3.044128%, 54.925537%)" offset="0.0273438"/><stop stop-opacity="1" stop-color="rgb(2.183533%, 3.48053%, 55.158997%)" offset="0.03125"/><stop stop-opacity="1" stop-color="rgb(2.355957%, 3.915405%, 55.39093%)" offset="0.0351562"/><stop stop-opacity="1" stop-color="rgb(2.529907%, 4.350281%, 55.622864%)" offset="0.0390625"/><stop stop-opacity="1" stop-color="rgb(2.702332%, 4.785156%, 55.854797%)" offset="0.0429687"/><stop stop-opacity="1" stop-color="rgb(2.876282%, 5.220032%, 56.088257%)" offset="0.046875"/><stop stop-opacity="1" stop-color="rgb(3.048706%, 5.654907%, 56.32019%)" offset="0.0507812"/><stop stop-opacity="1" stop-color="rgb(3.222656%, 6.091309%, 56.552124%)" offset="0.0546875"/><stop stop-opacity="1" stop-color="rgb(3.395081%, 6.526184%, 56.784058%)" offset="0.0585937"/><stop stop-opacity="1" stop-color="rgb(3.567505%, 6.96106%, 57.017517%)" offset="0.0625"/><stop stop-opacity="1" stop-color="rgb(3.739929%, 7.395935%, 57.249451%)" offset="0.0664062"/><stop stop-opacity="1" stop-color="rgb(3.913879%, 7.830811%, 57.48291%)" offset="0.0703125"/><stop stop-opacity="1" stop-color="rgb(4.086304%, 8.265686%, 57.714844%)" offset="0.0742188"/><stop stop-opacity="1" stop-color="rgb(4.260254%, 8.702087%, 57.946777%)" offset="0.078125"/><stop stop-opacity="1" stop-color="rgb(4.432678%, 9.136963%, 58.178711%)" offset="0.0820312"/><stop stop-opacity="1" stop-color="rgb(4.606628%, 9.571838%, 58.41217%)" offset="0.0859375"/><stop stop-opacity="1" stop-color="rgb(4.779053%, 10.006714%, 58.644104%)" offset="0.0898438"/><stop stop-opacity="1" stop-color="rgb(4.953003%, 10.441589%, 58.876038%)" offset="0.09375"/><stop stop-opacity="1" stop-color="rgb(5.125427%, 10.876465%, 59.107971%)" offset="0.0976562"/><stop stop-opacity="1" stop-color="rgb(5.299377%, 11.312866%, 59.341431%)" offset="0.101563"/><stop stop-opacity="1" stop-color="rgb(5.471802%, 11.747742%, 59.573364%)" offset="0.105469"/><stop stop-opacity="1" stop-color="rgb(5.644226%, 12.182617%, 59.806824%)" offset="0.109375"/><stop stop-opacity="1" stop-color="rgb(5.81665%, 12.617493%, 60.038757%)" offset="0.113281"/><stop stop-opacity="1" stop-color="rgb(5.990601%, 13.052368%, 60.270691%)" offset="0.117188"/><stop stop-opacity="1" stop-color="rgb(6.163025%, 13.487244%, 60.502625%)" offset="0.121094"/><stop stop-opacity="1" stop-color="rgb(6.336975%, 13.923645%, 60.736084%)" offset="0.125"/><stop stop-opacity="1" stop-color="rgb(6.509399%, 14.358521%, 60.968018%)" offset="0.128906"/><stop stop-opacity="1" stop-color="rgb(6.68335%, 14.793396%, 61.201477%)" offset="0.132812"/><stop stop-opacity="1" stop-color="rgb(6.855774%, 15.228271%, 61.433411%)" offset="0.136719"/><stop stop-opacity="1" stop-color="rgb(7.029724%, 15.663147%, 61.665344%)" offset="0.140625"/><stop stop-opacity="1" stop-color="rgb(7.202148%, 16.098022%, 61.897278%)" offset="0.144531"/><stop stop-opacity="1" stop-color="rgb(7.376099%, 16.534424%, 62.130737%)" offset="0.148437"/><stop stop-opacity="1" stop-color="rgb(7.548523%, 16.969299%, 62.362671%)" offset="0.152344"/><stop stop-opacity="1" stop-color="rgb(7.720947%, 17.404175%, 62.594604%)" offset="0.15625"/><stop stop-opacity="1" stop-color="rgb(7.887268%, 17.822266%, 62.812805%)" offset="0.160156"/><stop stop-opacity="1" stop-color="rgb(8.055115%, 18.241882%, 63.032532%)" offset="0.164062"/><stop stop-opacity="1" stop-color="rgb(8.21991%, 18.655396%, 63.246155%)" offset="0.167969"/><stop stop-opacity="1" stop-color="rgb(8.38623%, 19.070435%, 63.461304%)" offset="0.171875"/><stop stop-opacity="1" stop-color="rgb(8.551025%, 19.483948%, 63.674927%)" offset="0.175781"/><stop stop-opacity="1" stop-color="rgb(8.717346%, 19.898987%, 63.890076%)" offset="0.179687"/><stop stop-opacity="1" stop-color="rgb(8.882141%, 20.3125%, 64.103699%)" offset="0.183594"/><stop stop-opacity="1" stop-color="rgb(9.048462%, 20.727539%, 64.318848%)" offset="0.1875"/><stop stop-opacity="1" stop-color="rgb(9.213257%, 21.141052%, 64.532471%)" offset="0.191406"/><stop stop-opacity="1" stop-color="rgb(9.378052%, 21.556091%, 64.74762%)" offset="0.195312"/><stop stop-opacity="1" stop-color="rgb(9.542847%, 21.969604%, 64.961243%)" offset="0.199219"/><stop stop-opacity="1" stop-color="rgb(9.709167%, 22.384644%, 65.176392%)" offset="0.203125"/><stop stop-opacity="1" stop-color="rgb(9.873962%, 22.798157%, 65.390015%)" offset="0.207031"/><stop stop-opacity="1" stop-color="rgb(10.040283%, 23.213196%, 65.605164%)" offset="0.210937"/><stop stop-opacity="1" stop-color="rgb(10.205078%, 23.626709%, 65.818787%)" offset="0.214844"/><stop stop-opacity="1" stop-color="rgb(10.369873%, 24.041748%, 66.033936%)" offset="0.21875"/><stop stop-opacity="1" stop-color="rgb(10.534668%, 24.455261%, 66.247559%)" offset="0.222656"/><stop stop-opacity="1" stop-color="rgb(10.700989%, 24.8703%, 66.462708%)" offset="0.226562"/><stop stop-opacity="1" stop-color="rgb(10.865784%, 25.283813%, 66.676331%)" offset="0.230469"/><stop stop-opacity="1" stop-color="rgb(11.032104%, 25.698853%, 66.891479%)" offset="0.234375"/><stop stop-opacity="1" stop-color="rgb(11.196899%, 26.112366%, 67.105103%)" offset="0.238281"/><stop stop-opacity="1" stop-color="rgb(11.36322%, 26.527405%, 67.320251%)" offset="0.242187"/><stop stop-opacity="1" stop-color="rgb(11.528015%, 26.940918%, 67.533875%)" offset="0.246094"/><stop stop-opacity="1" stop-color="rgb(11.69281%, 27.355957%, 67.749023%)" offset="0.25"/><stop stop-opacity="1" stop-color="rgb(11.857605%, 27.76947%, 67.962646%)" offset="0.253906"/><stop stop-opacity="1" stop-color="rgb(12.023926%, 28.184509%, 68.177795%)" offset="0.257813"/><stop stop-opacity="1" stop-color="rgb(12.188721%, 28.598022%, 68.391418%)" offset="0.261719"/><stop stop-opacity="1" stop-color="rgb(12.355042%, 29.013062%, 68.606567%)" offset="0.265625"/><stop stop-opacity="1" stop-color="rgb(12.519836%, 29.426575%, 68.82019%)" offset="0.269531"/><stop stop-opacity="1" stop-color="rgb(12.684631%, 29.841614%, 69.035339%)" offset="0.273438"/><stop stop-opacity="1" stop-color="rgb(12.849426%, 30.255127%, 69.248962%)" offset="0.277344"/><stop stop-opacity="1" stop-color="rgb(13.015747%, 30.670166%, 69.464111%)" offset="0.28125"/><stop stop-opacity="1" stop-color="rgb(13.180542%, 31.083679%, 69.677734%)" offset="0.285156"/><stop stop-opacity="1" stop-color="rgb(13.346863%, 31.497192%, 69.892883%)" offset="0.289062"/><stop stop-opacity="1" stop-color="rgb(13.511658%, 31.910706%, 70.106506%)" offset="0.292969"/><stop stop-opacity="1" stop-color="rgb(13.676453%, 32.325745%, 70.321655%)" offset="0.296875"/><stop stop-opacity="1" stop-color="rgb(13.841248%, 32.739258%, 70.535278%)" offset="0.300781"/><stop stop-opacity="1" stop-color="rgb(14.007568%, 33.154297%, 70.750427%)" offset="0.304687"/><stop stop-opacity="1" stop-color="rgb(14.172363%, 33.56781%, 70.96405%)" offset="0.308594"/><stop stop-opacity="1" stop-color="rgb(14.338684%, 33.982849%, 71.179199%)" offset="0.3125"/><stop stop-opacity="1" stop-color="rgb(14.503479%, 34.396362%, 71.392822%)" offset="0.316406"/><stop stop-opacity="1" stop-color="rgb(14.6698%, 34.811401%, 71.607971%)" offset="0.320312"/><stop stop-opacity="1" stop-color="rgb(14.834595%, 35.224915%, 71.821594%)" offset="0.324219"/><stop stop-opacity="1" stop-color="rgb(14.99939%, 35.639954%, 72.036743%)" offset="0.328125"/><stop stop-opacity="1" stop-color="rgb(15.164185%, 36.053467%, 72.250366%)" offset="0.332031"/><stop stop-opacity="1" stop-color="rgb(15.330505%, 36.468506%, 72.465515%)" offset="0.335937"/><stop stop-opacity="1" stop-color="rgb(15.4953%, 36.882019%, 72.679138%)" offset="0.339844"/><stop stop-opacity="1" stop-color="rgb(15.661621%, 37.297058%, 72.894287%)" offset="0.34375"/><stop stop-opacity="1" stop-color="rgb(15.826416%, 37.710571%, 73.10791%)" offset="0.347656"/><stop stop-opacity="1" stop-color="rgb(15.991211%, 38.12561%, 73.323059%)" offset="0.351562"/><stop stop-opacity="1" stop-color="rgb(16.156006%, 38.539124%, 73.536682%)" offset="0.355469"/><stop stop-opacity="1" stop-color="rgb(16.322327%, 38.954163%, 73.751831%)" offset="0.359375"/><stop stop-opacity="1" stop-color="rgb(16.487122%, 39.367676%, 73.965454%)" offset="0.363281"/><stop stop-opacity="1" stop-color="rgb(16.653442%, 39.782715%, 74.180603%)" offset="0.367188"/><stop stop-opacity="1" stop-color="rgb(16.818237%, 40.188599%, 74.391174%)" offset="0.371094"/><stop stop-opacity="1" stop-color="rgb(16.983032%, 40.596008%, 74.601746%)" offset="0.375"/><stop stop-opacity="1" stop-color="rgb(17.144775%, 40.98053%, 74.80011%)" offset="0.378906"/><stop stop-opacity="1" stop-color="rgb(17.308044%, 41.366577%, 75%)" offset="0.382812"/><stop stop-opacity="1" stop-color="rgb(17.471313%, 41.751099%, 75.19989%)" offset="0.386719"/><stop stop-opacity="1" stop-color="rgb(17.634583%, 42.13562%, 75.39978%)" offset="0.390625"/><stop stop-opacity="1" stop-color="rgb(17.797852%, 42.520142%, 75.598145%)" offset="0.394531"/><stop stop-opacity="1" stop-color="rgb(17.961121%, 42.906189%, 75.798035%)" offset="0.398437"/><stop stop-opacity="1" stop-color="rgb(18.122864%, 43.29071%, 75.997925%)" offset="0.402344"/><stop stop-opacity="1" stop-color="rgb(18.286133%, 43.676758%, 76.197815%)" offset="0.40625"/><stop stop-opacity="1" stop-color="rgb(18.449402%, 44.061279%, 76.396179%)" offset="0.410156"/><stop stop-opacity="1" stop-color="rgb(18.612671%, 44.445801%, 76.596069%)" offset="0.414062"/><stop stop-opacity="1" stop-color="rgb(18.77594%, 44.830322%, 76.795959%)" offset="0.417969"/><stop stop-opacity="1" stop-color="rgb(18.939209%, 45.21637%, 76.99585%)" offset="0.421875"/><stop stop-opacity="1" stop-color="rgb(19.100952%, 45.600891%, 77.194214%)" offset="0.425781"/><stop stop-opacity="1" stop-color="rgb(19.264221%, 45.986938%, 77.394104%)" offset="0.429688"/><stop stop-opacity="1" stop-color="rgb(19.42749%, 46.37146%, 77.593994%)" offset="0.433594"/><stop stop-opacity="1" stop-color="rgb(19.590759%, 46.755981%, 77.793884%)" offset="0.4375"/><stop stop-opacity="1" stop-color="rgb(19.754028%, 47.140503%, 77.992249%)" offset="0.441406"/><stop stop-opacity="1" stop-color="rgb(19.917297%, 47.52655%, 78.192139%)" offset="0.445312"/><stop stop-opacity="1" stop-color="rgb(20.079041%, 47.911072%, 78.392029%)" offset="0.449219"/><stop stop-opacity="1" stop-color="rgb(20.24231%, 48.297119%, 78.591919%)" offset="0.453125"/><stop stop-opacity="1" stop-color="rgb(20.405579%, 48.681641%, 78.791809%)" offset="0.457031"/><stop stop-opacity="1" stop-color="rgb(20.568848%, 49.066162%, 78.991699%)" offset="0.460937"/><stop stop-opacity="1" stop-color="rgb(20.730591%, 49.450684%, 79.190063%)" offset="0.464844"/><stop stop-opacity="1" stop-color="rgb(20.89386%, 49.836731%, 79.389954%)" offset="0.46875"/><stop stop-opacity="1" stop-color="rgb(21.057129%, 50.221252%, 79.589844%)" offset="0.472656"/><stop stop-opacity="1" stop-color="rgb(21.220398%, 50.605774%, 79.789734%)" offset="0.476563"/><stop stop-opacity="1" stop-color="rgb(21.383667%, 50.990295%, 79.988098%)" offset="0.480469"/><stop stop-opacity="1" stop-color="rgb(21.546936%, 51.376343%, 80.187988%)" offset="0.484375"/><stop stop-opacity="1" stop-color="rgb(21.708679%, 51.760864%, 80.387878%)" offset="0.488281"/><stop stop-opacity="1" stop-color="rgb(21.871948%, 52.146912%, 80.587769%)" offset="0.492188"/><stop stop-opacity="1" stop-color="rgb(22.035217%, 52.531433%, 80.786133%)" offset="0.496094"/><stop stop-opacity="1" stop-color="rgb(22.198486%, 52.915955%, 80.986023%)" offset="0.5"/><stop stop-opacity="1" stop-color="rgb(22.361755%, 53.300476%, 81.185913%)" offset="0.503906"/><stop stop-opacity="1" stop-color="rgb(22.525024%, 53.686523%, 81.385803%)" offset="0.507813"/><stop stop-opacity="1" stop-color="rgb(22.674561%, 54.051208%, 81.576538%)" offset="0.511719"/><stop stop-opacity="1" stop-color="rgb(22.825623%, 54.415894%, 81.768799%)" offset="0.515625"/><stop stop-opacity="1" stop-color="rgb(22.961426%, 54.756165%, 81.951904%)" offset="0.519531"/><stop stop-opacity="1" stop-color="rgb(23.098755%, 55.097961%, 82.13501%)" offset="0.523438"/><stop stop-opacity="1" stop-color="rgb(23.234558%, 55.438232%, 82.318115%)" offset="0.527344"/><stop stop-opacity="1" stop-color="rgb(23.371887%, 55.780029%, 82.501221%)" offset="0.53125"/><stop stop-opacity="1" stop-color="rgb(23.50769%, 56.1203%, 82.6828%)" offset="0.535156"/><stop stop-opacity="1" stop-color="rgb(23.64502%, 56.462097%, 82.865906%)" offset="0.539062"/><stop stop-opacity="1" stop-color="rgb(23.780823%, 56.802368%, 83.049011%)" offset="0.542969"/><stop stop-opacity="1" stop-color="rgb(23.916626%, 57.144165%, 83.232117%)" offset="0.546875"/><stop stop-opacity="1" stop-color="rgb(24.052429%, 57.484436%, 83.415222%)" offset="0.550781"/><stop stop-opacity="1" stop-color="rgb(24.189758%, 57.826233%, 83.598328%)" offset="0.554688"/><stop stop-opacity="1" stop-color="rgb(24.325562%, 58.166504%, 83.781433%)" offset="0.558594"/><stop stop-opacity="1" stop-color="rgb(24.462891%, 58.508301%, 83.964539%)" offset="0.5625"/><stop stop-opacity="1" stop-color="rgb(24.598694%, 58.848572%, 84.146118%)" offset="0.566406"/><stop stop-opacity="1" stop-color="rgb(24.736023%, 59.190369%, 84.329224%)" offset="0.570312"/><stop stop-opacity="1" stop-color="rgb(24.871826%, 59.53064%, 84.512329%)" offset="0.574219"/><stop stop-opacity="1" stop-color="rgb(25.007629%, 59.872437%, 84.695435%)" offset="0.578125"/><stop stop-opacity="1" stop-color="rgb(25.143433%, 60.212708%, 84.87854%)" offset="0.582031"/><stop stop-opacity="1" stop-color="rgb(25.280762%, 60.554504%, 85.061646%)" offset="0.585938"/><stop stop-opacity="1" stop-color="rgb(25.416565%, 60.894775%, 85.244751%)" offset="0.589844"/><stop stop-opacity="1" stop-color="rgb(25.553894%, 61.236572%, 85.427856%)" offset="0.59375"/><stop stop-opacity="1" stop-color="rgb(25.689697%, 61.576843%, 85.609436%)" offset="0.597656"/><stop stop-opacity="1" stop-color="rgb(25.827026%, 61.91864%, 85.792542%)" offset="0.601562"/><stop stop-opacity="1" stop-color="rgb(25.96283%, 62.258911%, 85.975647%)" offset="0.605469"/><stop stop-opacity="1" stop-color="rgb(26.100159%, 62.600708%, 86.158752%)" offset="0.609375"/><stop stop-opacity="1" stop-color="rgb(26.235962%, 62.940979%, 86.341858%)" offset="0.613281"/><stop stop-opacity="1" stop-color="rgb(26.371765%, 63.282776%, 86.524963%)" offset="0.617187"/><stop stop-opacity="1" stop-color="rgb(26.507568%, 63.623047%, 86.708069%)" offset="0.621094"/><stop stop-opacity="1" stop-color="rgb(26.644897%, 63.964844%, 86.891174%)" offset="0.625"/><stop stop-opacity="1" stop-color="rgb(26.780701%, 64.305115%, 87.072754%)" offset="0.628906"/><stop stop-opacity="1" stop-color="rgb(26.91803%, 64.646912%, 87.255859%)" offset="0.632812"/><stop stop-opacity="1" stop-color="rgb(27.053833%, 64.982605%, 87.432861%)" offset="0.636719"/><stop stop-opacity="1" stop-color="rgb(27.189636%, 65.319824%, 87.609863%)" offset="0.640625"/><stop stop-opacity="1" stop-color="rgb(27.322388%, 65.649414%, 87.774658%)" offset="0.644531"/><stop stop-opacity="1" stop-color="rgb(27.456665%, 65.979004%, 87.939453%)" offset="0.648437"/><stop stop-opacity="1" stop-color="rgb(27.590942%, 66.308594%, 88.104248%)" offset="0.652344"/><stop stop-opacity="1" stop-color="rgb(27.72522%, 66.638184%, 88.269043%)" offset="0.65625"/><stop stop-opacity="1" stop-color="rgb(27.859497%, 66.967773%, 88.433838%)" offset="0.660156"/><stop stop-opacity="1" stop-color="rgb(27.993774%, 67.297363%, 88.598633%)" offset="0.664062"/><stop stop-opacity="1" stop-color="rgb(28.128052%, 67.625427%, 88.761902%)" offset="0.667969"/><stop stop-opacity="1" stop-color="rgb(28.262329%, 67.955017%, 88.926697%)" offset="0.671875"/><stop stop-opacity="1" stop-color="rgb(28.395081%, 68.284607%, 89.091492%)" offset="0.675781"/><stop stop-opacity="1" stop-color="rgb(28.529358%, 68.614197%, 89.256287%)" offset="0.679687"/><stop stop-opacity="1" stop-color="rgb(28.663635%, 68.943787%, 89.421082%)" offset="0.683594"/><stop stop-opacity="1" stop-color="rgb(28.797913%, 69.273376%, 89.585876%)" offset="0.6875"/><stop stop-opacity="1" stop-color="rgb(28.93219%, 69.60144%, 89.750671%)" offset="0.691406"/><stop stop-opacity="1" stop-color="rgb(29.066467%, 69.93103%, 89.915466%)" offset="0.695312"/><stop stop-opacity="1" stop-color="rgb(29.199219%, 70.26062%, 90.080261%)" offset="0.699219"/><stop stop-opacity="1" stop-color="rgb(29.333496%, 70.59021%, 90.245056%)" offset="0.703125"/><stop stop-opacity="1" stop-color="rgb(29.467773%, 70.9198%, 90.409851%)" offset="0.707031"/><stop stop-opacity="1" stop-color="rgb(29.602051%, 71.24939%, 90.574646%)" offset="0.710938"/><stop stop-opacity="1" stop-color="rgb(29.736328%, 71.577454%, 90.737915%)" offset="0.714844"/><stop stop-opacity="1" stop-color="rgb(29.870605%, 71.907043%, 90.90271%)" offset="0.71875"/><stop stop-opacity="1" stop-color="rgb(30.003357%, 72.236633%, 91.067505%)" offset="0.722656"/><stop stop-opacity="1" stop-color="rgb(30.137634%, 72.566223%, 91.2323%)" offset="0.726562"/><stop stop-opacity="1" stop-color="rgb(30.271912%, 72.895813%, 91.397095%)" offset="0.730469"/><stop stop-opacity="1" stop-color="rgb(30.406189%, 73.225403%, 91.56189%)" offset="0.734375"/><stop stop-opacity="1" stop-color="rgb(30.532837%, 73.536682%, 91.719055%)" offset="0.738281"/><stop stop-opacity="1" stop-color="rgb(30.661011%, 73.849487%, 91.876221%)" offset="0.742188"/><stop stop-opacity="1" stop-color="rgb(30.770874%, 74.118042%, 92.012024%)" offset="0.746094"/><stop stop-opacity="1" stop-color="rgb(30.882263%, 74.386597%, 92.149353%)" offset="0.75"/><stop stop-opacity="1" stop-color="rgb(30.992126%, 74.653625%, 92.285156%)" offset="0.753906"/><stop stop-opacity="1" stop-color="rgb(31.103516%, 74.92218%, 92.420959%)" offset="0.757812"/><stop stop-opacity="1" stop-color="rgb(31.213379%, 75.190735%, 92.556763%)" offset="0.761719"/><stop stop-opacity="1" stop-color="rgb(31.324768%, 75.45929%, 92.694092%)" offset="0.765625"/><stop stop-opacity="1" stop-color="rgb(31.434631%, 75.726318%, 92.829895%)" offset="0.769531"/><stop stop-opacity="1" stop-color="rgb(31.546021%, 75.994873%, 92.967224%)" offset="0.773437"/><stop stop-opacity="1" stop-color="rgb(31.655884%, 76.263428%, 93.103027%)" offset="0.777344"/><stop stop-opacity="1" stop-color="rgb(31.767273%, 76.531982%, 93.240356%)" offset="0.78125"/><stop stop-opacity="1" stop-color="rgb(31.877136%, 76.800537%, 93.37616%)" offset="0.785156"/><stop stop-opacity="1" stop-color="rgb(31.988525%, 77.069092%, 93.513489%)" offset="0.789062"/><stop stop-opacity="1" stop-color="rgb(32.098389%, 77.336121%, 93.649292%)" offset="0.792969"/><stop stop-opacity="1" stop-color="rgb(32.209778%, 77.604675%, 93.786621%)" offset="0.796875"/><stop stop-opacity="1" stop-color="rgb(32.319641%, 77.87323%, 93.922424%)" offset="0.800781"/><stop stop-opacity="1" stop-color="rgb(32.43103%, 78.141785%, 94.059753%)" offset="0.804687"/><stop stop-opacity="1" stop-color="rgb(32.540894%, 78.410339%, 94.195557%)" offset="0.808594"/><stop stop-opacity="1" stop-color="rgb(32.652283%, 78.678894%, 94.332886%)" offset="0.8125"/><stop stop-opacity="1" stop-color="rgb(32.762146%, 78.945923%, 94.468689%)" offset="0.816406"/><stop stop-opacity="1" stop-color="rgb(32.873535%, 79.214478%, 94.606018%)" offset="0.820313"/><stop stop-opacity="1" stop-color="rgb(32.983398%, 79.483032%, 94.741821%)" offset="0.824219"/><stop stop-opacity="1" stop-color="rgb(33.094788%, 79.751587%, 94.877625%)" offset="0.828125"/><stop stop-opacity="1" stop-color="rgb(33.204651%, 80.018616%, 95.013428%)" offset="0.832031"/><stop stop-opacity="1" stop-color="rgb(33.31604%, 80.28717%, 95.150757%)" offset="0.835938"/><stop stop-opacity="1" stop-color="rgb(33.425903%, 80.555725%, 95.28656%)" offset="0.839844"/><stop stop-opacity="1" stop-color="rgb(33.537292%, 80.82428%, 95.423889%)" offset="0.84375"/><stop stop-opacity="1" stop-color="rgb(33.647156%, 81.092834%, 95.559692%)" offset="0.847656"/><stop stop-opacity="1" stop-color="rgb(33.758545%, 81.361389%, 95.697021%)" offset="0.851562"/><stop stop-opacity="1" stop-color="rgb(33.868408%, 81.628418%, 95.832825%)" offset="0.855469"/><stop stop-opacity="1" stop-color="rgb(33.979797%, 81.896973%, 95.970154%)" offset="0.859375"/><stop stop-opacity="1" stop-color="rgb(34.089661%, 82.165527%, 96.105957%)" offset="0.863281"/><stop stop-opacity="1" stop-color="rgb(34.20105%, 82.434082%, 96.243286%)" offset="0.867188"/><stop stop-opacity="1" stop-color="rgb(34.310913%, 82.701111%, 96.379089%)" offset="0.871094"/><stop stop-opacity="1" stop-color="rgb(34.420776%, 82.969666%, 96.516418%)" offset="0.875"/><stop stop-opacity="1" stop-color="rgb(34.53064%, 83.23822%, 96.652222%)" offset="0.878906"/><stop stop-opacity="1" stop-color="rgb(34.642029%, 83.506775%, 96.789551%)" offset="0.882812"/><stop stop-opacity="1" stop-color="rgb(34.751892%, 83.77533%, 96.925354%)" offset="0.886719"/><stop stop-opacity="1" stop-color="rgb(34.863281%, 84.043884%, 97.062683%)" offset="0.890625"/><stop stop-opacity="1" stop-color="rgb(34.973145%, 84.310913%, 97.198486%)" offset="0.894531"/><stop stop-opacity="1" stop-color="rgb(35.084534%, 84.579468%, 97.33429%)" offset="0.898437"/><stop stop-opacity="1" stop-color="rgb(35.192871%, 84.844971%, 97.470093%)" offset="0.902344"/><stop stop-opacity="1" stop-color="rgb(35.302734%, 85.110474%, 97.605896%)" offset="0.90625"/><stop stop-opacity="1" stop-color="rgb(35.369873%, 85.289001%, 97.705078%)" offset="0.914062"/><stop stop-opacity="1" stop-color="rgb(35.502625%, 85.646057%, 97.904968%)" offset="0.921875"/><stop stop-opacity="1" stop-color="rgb(35.635376%, 86.004639%, 98.103333%)" offset="0.929687"/><stop stop-opacity="1" stop-color="rgb(35.768127%, 86.361694%, 98.303223%)" offset="0.9375"/><stop stop-opacity="1" stop-color="rgb(35.900879%, 86.71875%, 98.503113%)" offset="0.945313"/><stop stop-opacity="1" stop-color="rgb(36.03363%, 87.075806%, 98.701477%)" offset="0.953125"/><stop stop-opacity="1" stop-color="rgb(36.167908%, 87.432861%, 98.901367%)" offset="0.960938"/><stop stop-opacity="1" stop-color="rgb(36.300659%, 87.791443%, 99.101257%)" offset="0.96875"/><stop stop-opacity="1" stop-color="rgb(36.433411%, 88.148499%, 99.301147%)" offset="0.976562"/><stop stop-opacity="1" stop-color="rgb(36.566162%, 88.505554%, 99.499512%)" offset="0.984375"/><stop stop-opacity="1" stop-color="rgb(36.698914%, 88.86261%, 99.699402%)" offset="0.992188"/><stop stop-opacity="1" stop-color="rgb(36.831665%, 89.219666%, 99.899292%)" offset="1"/></linearGradient></defs><g clip-path="url(#b3ca8a4623)"><g clip-path="url(#320a8a736b)"><path fill="url(#6bcd377b0a)" d="M 2.679688 14.5 L 2.679688 121.425781 L 167.390625 121.425781 L 167.390625 14.5 Z M 2.679688 14.5 " fill-rule="nonzero"/></g></g></svg>