<svg xmlns="http://www.w3.org/2000/svg" xmlns:xlink="http://www.w3.org/1999/xlink" width="226" zoomAndPan="magnify" viewBox="0 0 170.25 141.749996" height="188" preserveAspectRatio="xMidYMid meet" version="1.0"><defs><clipPath id="8a987fdcb6"><path d="M 76 5.796875 L 98 5.796875 L 98 32 L 76 32 Z M 76 5.796875 " clip-rule="nonzero"/></clipPath><clipPath id="c9b2e83485"><path d="M 21.363281 56 L 46 56 L 46 82 L 21.363281 82 Z M 21.363281 56 " clip-rule="nonzero"/></clipPath><clipPath id="9f8f472cb3"><path d="M 79.667969 114.105469 L 96.835938 114.105469 L 96.835938 131.027344 L 79.667969 131.027344 Z M 79.667969 114.105469 " clip-rule="nonzero"/></clipPath><clipPath id="d5dcf60315"><path d="M 78.40625 121.425781 L 88.25 121.425781 L 88.25 131.027344 L 78.40625 131.027344 Z M 78.40625 121.425781 " clip-rule="nonzero"/></clipPath></defs><path fill="#ff66c4" d="M 58.539062 63.933594 L 58.539062 86.710938 C 58.539062 86.867188 58.664062 86.992188 58.816406 86.992188 L 117.710938 86.992188 C 117.863281 86.992188 117.988281 86.867188 117.988281 86.710938 L 117.988281 47.886719 C 117.988281 47.730469 117.863281 47.605469 117.710938 47.605469 L 76.210938 47.605469 C 76.527344 50.601562 75.921875 53.664062 74.484375 56.324219 L 79.117188 63.304688 C 79.234375 63.484375 79.234375 63.714844 79.109375 63.890625 C 78.988281 64.070312 78.769531 64.152344 78.558594 64.101562 L 69.25 61.902344 C 68.019531 62.671875 66.679688 63.261719 65.269531 63.648438 C 63.074219 64.253906 60.761719 64.347656 58.539062 63.933594 Z M 117.710938 88.039062 L 58.816406 88.039062 C 58.085938 88.039062 57.492188 87.445312 57.492188 86.710938 L 57.492188 63.289062 C 57.492188 63.128906 57.566406 62.976562 57.691406 62.878906 C 57.816406 62.777344 57.976562 62.742188 58.132812 62.777344 C 60.378906 63.304688 62.753906 63.257812 64.992188 62.640625 C 66.375 62.261719 67.679688 61.675781 68.871094 60.902344 C 68.992188 60.828125 69.136719 60.800781 69.277344 60.832031 L 77.511719 62.78125 L 73.4375 56.636719 C 73.328125 56.472656 73.320312 56.261719 73.417969 56.089844 C 74.957031 53.390625 75.550781 50.21875 75.097656 47.160156 C 75.078125 47.007812 75.121094 46.855469 75.21875 46.742188 C 75.320312 46.625 75.464844 46.558594 75.617188 46.558594 L 117.710938 46.558594 C 118.441406 46.558594 119.035156 47.15625 119.035156 47.886719 L 119.035156 86.710938 C 119.035156 87.445312 118.441406 88.039062 117.710938 88.039062 " fill-opacity="1" fill-rule="nonzero"/><path fill="#ff66c4" d="M 120.582031 92.039062 C 120.292969 92.039062 120.058594 91.804688 120.058594 91.515625 L 120.058594 45.867188 C 120.058594 45.648438 119.898438 45.46875 119.699219 45.46875 L 75.132812 45.46875 C 74.84375 45.46875 74.609375 45.234375 74.609375 44.945312 C 74.609375 44.65625 74.84375 44.425781 75.132812 44.425781 L 119.699219 44.425781 C 120.476562 44.425781 121.105469 45.070312 121.105469 45.867188 L 121.105469 91.515625 C 121.105469 91.804688 120.871094 92.039062 120.582031 92.039062 " fill-opacity="1" fill-rule="nonzero"/><path fill="#ff66c4" d="M 55.941406 92.039062 C 55.65625 92.039062 55.417969 91.804688 55.417969 91.515625 L 55.417969 62.636719 C 55.417969 62.347656 55.65625 62.113281 55.941406 62.113281 C 56.230469 62.113281 56.464844 62.347656 56.464844 62.636719 L 56.464844 91.515625 C 56.464844 91.804688 56.230469 92.039062 55.941406 92.039062 " fill-opacity="1" fill-rule="nonzero"/><path fill="#ff66c4" d="M 51.433594 95.363281 L 125.089844 95.363281 L 126.960938 93.605469 L 126.960938 92.007812 L 49.566406 92.007812 L 49.566406 93.605469 Z M 125.214844 96.410156 L 51.3125 96.410156 C 51.125 96.410156 50.945312 96.339844 50.804688 96.210938 L 48.757812 94.277344 C 48.605469 94.136719 48.519531 93.9375 48.519531 93.726562 L 48.519531 91.714844 C 48.519531 91.300781 48.851562 90.960938 49.261719 90.960938 L 127.265625 90.960938 C 127.671875 90.960938 128.007812 91.300781 128.007812 91.714844 L 128.007812 93.726562 C 128.007812 93.9375 127.921875 94.136719 127.769531 94.277344 L 125.71875 96.207031 C 125.582031 96.339844 125.402344 96.410156 125.214844 96.410156 " fill-opacity="1" fill-rule="nonzero"/><path fill="#ff66c4" d="M 127.484375 94.351562 L 49.042969 94.351562 C 48.753906 94.351562 48.519531 94.117188 48.519531 93.832031 C 48.519531 93.542969 48.753906 93.304688 49.042969 93.304688 L 127.484375 93.304688 C 127.773438 93.304688 128.007812 93.542969 128.007812 93.832031 C 128.007812 94.117188 127.773438 94.351562 127.484375 94.351562 " fill-opacity="1" fill-rule="nonzero"/><path fill="#ff66c4" d="M 88.265625 52.757812 C 84.445312 52.757812 81.339844 55.863281 81.339844 59.679688 C 81.339844 63.5 84.445312 66.605469 88.265625 66.605469 C 92.082031 66.605469 95.1875 63.5 95.1875 59.679688 C 95.1875 55.863281 92.082031 52.757812 88.265625 52.757812 Z M 88.265625 67.648438 C 83.871094 67.648438 80.292969 64.074219 80.292969 59.679688 C 80.292969 55.289062 83.871094 51.710938 88.265625 51.710938 C 92.65625 51.710938 96.234375 55.289062 96.234375 59.679688 C 96.234375 64.074219 92.65625 67.648438 88.265625 67.648438 " fill-opacity="1" fill-rule="nonzero"/><path fill="#ff66c4" d="M 76.804688 84.75 L 75.277344 84.75 C 74.164062 84.75 73.140625 84.1875 72.539062 83.25 C 71.9375 82.3125 71.855469 81.148438 72.320312 80.132812 C 73.464844 77.648438 75.148438 74.082031 76.675781 71.167969 C 76.855469 70.636719 77.53125 69.996094 80.753906 69.542969 C 82.777344 69.261719 85.449219 69.105469 88.289062 69.105469 C 88.296875 69.105469 88.300781 69.105469 88.308594 69.105469 C 91.140625 69.105469 93.808594 69.265625 95.816406 69.546875 C 99.011719 69.996094 99.683594 70.640625 99.859375 71.167969 C 101.382812 74.070312 103.0625 77.644531 104.207031 80.136719 C 104.671875 81.148438 104.589844 82.3125 103.988281 83.25 C 103.386719 84.1875 102.363281 84.75 101.25 84.75 L 99.726562 84.75 C 99.574219 84.75 99.433594 84.683594 99.332031 84.574219 L 95.316406 80.042969 C 95.128906 79.828125 95.148438 79.496094 95.363281 79.304688 C 95.578125 79.113281 95.910156 79.132812 96.101562 79.351562 L 99.960938 83.703125 L 101.25 83.703125 C 102.003906 83.703125 102.699219 83.324219 103.109375 82.6875 C 103.515625 82.050781 103.570312 81.261719 103.253906 80.574219 C 102.109375 78.082031 100.429688 74.5 98.910156 71.609375 C 98.894531 71.578125 98.878906 71.542969 98.871094 71.511719 C 98.84375 71.472656 98.457031 70.964844 95.585938 70.570312 C 93.695312 70.308594 91.191406 70.160156 88.535156 70.152344 C 85.785156 70.140625 83.167969 70.285156 81.15625 70.546875 C 78.105469 70.945312 77.695312 71.46875 77.664062 71.511719 C 77.65625 71.546875 77.644531 71.578125 77.625 71.609375 C 76.097656 74.511719 74.414062 78.085938 73.273438 80.570312 C 72.957031 81.257812 73.011719 82.050781 73.417969 82.6875 C 73.824219 83.324219 74.523438 83.703125 75.277344 83.703125 L 76.566406 83.703125 L 80.425781 79.351562 C 80.617188 79.132812 80.949219 79.113281 81.164062 79.304688 C 81.378906 79.496094 81.402344 79.828125 81.207031 80.042969 L 77.195312 84.574219 C 77.09375 84.6875 76.953125 84.75 76.804688 84.75 " fill-opacity="1" fill-rule="nonzero"/><path fill="#ff66c4" d="M 97.007812 81.683594 L 79.519531 81.683594 C 79.234375 81.683594 79 81.449219 79 81.160156 C 79 80.871094 79.234375 80.636719 79.519531 80.636719 L 97.007812 80.636719 C 97.292969 80.636719 97.53125 80.871094 97.53125 81.160156 C 97.53125 81.449219 97.292969 81.683594 97.007812 81.683594 " fill-opacity="1" fill-rule="nonzero"/><path fill="#ff66c4" d="M 61.527344 54.011719 C 61.949219 54.019531 62.304688 53.695312 62.339844 53.277344 L 63.351562 41.0625 C 63.371094 40.839844 63.296875 40.628906 63.148438 40.460938 C 62.996094 40.296875 62.792969 40.203125 62.566406 40.199219 L 60.96875 40.171875 C 60.746094 40.167969 60.535156 40.253906 60.378906 40.414062 C 60.222656 40.574219 60.144531 40.785156 60.15625 41.007812 L 60.742188 53.25 C 60.765625 53.667969 61.109375 54.003906 61.527344 54.011719 Z M 61.542969 55.054688 C 61.53125 55.054688 61.519531 55.054688 61.511719 55.054688 C 60.539062 55.039062 59.746094 54.265625 59.699219 53.300781 L 59.109375 41.058594 C 59.085938 40.550781 59.273438 40.050781 59.628906 39.6875 C 59.984375 39.320312 60.476562 39.117188 60.984375 39.125 L 62.585938 39.152344 C 63.09375 39.160156 63.582031 39.382812 63.921875 39.757812 C 64.265625 40.136719 64.433594 40.644531 64.394531 41.152344 L 63.382812 53.363281 C 63.304688 54.316406 62.496094 55.054688 61.542969 55.054688 " fill-opacity="1" fill-rule="nonzero"/><path fill="#ff66c4" d="M 61.605469 56.492188 C 61.542969 56.492188 61.480469 56.5 61.417969 56.511719 C 61.195312 56.5625 61.003906 56.695312 60.882812 56.886719 C 60.761719 57.082031 60.71875 57.308594 60.769531 57.53125 C 60.871094 57.992188 61.328125 58.28125 61.789062 58.179688 C 62.246094 58.078125 62.539062 57.621094 62.4375 57.160156 C 62.386719 56.9375 62.253906 56.75 62.0625 56.625 C 61.921875 56.539062 61.765625 56.492188 61.605469 56.492188 Z M 61.601562 59.246094 C 60.730469 59.246094 59.945312 58.640625 59.75 57.757812 C 59.636719 57.261719 59.726562 56.753906 60 56.324219 C 60.273438 55.898438 60.695312 55.601562 61.191406 55.492188 C 61.6875 55.382812 62.195312 55.472656 62.625 55.742188 C 63.050781 56.015625 63.347656 56.441406 63.457031 56.933594 C 63.683594 57.957031 63.035156 58.972656 62.015625 59.199219 C 61.875 59.230469 61.738281 59.246094 61.601562 59.246094 " fill-opacity="1" fill-rule="nonzero"/><path fill="#ff66c4" d="M 58.015625 63.8125 C 57.976562 63.8125 57.933594 63.804688 57.894531 63.796875 C 57.167969 63.625 56.445312 63.398438 55.75 63.121094 C 53.640625 62.28125 51.71875 60.953125 50.195312 59.28125 C 48.597656 57.523438 47.464844 55.46875 46.832031 53.164062 C 45.769531 49.300781 46.273438 45.253906 48.253906 41.773438 C 50.234375 38.289062 53.453125 35.785156 57.316406 34.722656 C 61.105469 33.679688 65.089844 34.152344 68.53125 36.050781 C 71.964844 37.941406 74.488281 41.046875 75.632812 44.792969 C 75.671875 44.914062 75.710938 45.050781 75.753906 45.207031 C 75.917969 45.804688 76.046875 46.410156 76.132812 47.007812 C 76.175781 47.292969 75.976562 47.558594 75.691406 47.601562 C 75.40625 47.640625 75.140625 47.445312 75.097656 47.160156 C 75.015625 46.601562 74.898438 46.039062 74.746094 45.484375 C 74.707031 45.34375 74.671875 45.21875 74.632812 45.105469 C 72.410156 37.832031 64.925781 33.714844 57.59375 35.730469 C 54 36.71875 51.007812 39.046875 49.164062 42.289062 C 47.320312 45.527344 46.851562 49.292969 47.839844 52.886719 C 49.007812 57.136719 52.035156 60.515625 56.136719 62.148438 C 56.785156 62.410156 57.457031 62.621094 58.132812 62.777344 C 58.414062 62.84375 58.589844 63.125 58.523438 63.40625 C 58.46875 63.648438 58.253906 63.8125 58.015625 63.8125 " fill-opacity="1" fill-rule="nonzero"/><g clip-path="url(#8a987fdcb6)"><path fill="#ff66c4" d="M 77.472656 10.394531 C 76.742188 19.359375 79.753906 25.792969 86.925781 30.59375 C 94.214844 25.570312 97.234375 19.136719 96.394531 10.394531 L 86.933594 6.878906 Z M 86.933594 31.746094 C 86.832031 31.746094 86.734375 31.71875 86.644531 31.664062 C 78.8125 26.550781 75.578125 19.65625 76.460938 9.972656 C 76.476562 9.769531 76.609375 9.597656 76.796875 9.527344 L 86.75 5.828125 C 86.867188 5.785156 86.996094 5.785156 87.113281 5.828125 L 97.066406 9.527344 C 97.25 9.597656 97.382812 9.765625 97.402344 9.964844 C 98.402344 19.414062 95.167969 26.308594 87.222656 31.660156 C 87.136719 31.71875 87.035156 31.746094 86.933594 31.746094 " fill-opacity="1" fill-rule="nonzero"/></g><g clip-path="url(#c9b2e83485)"><path fill="#ff66c4" d="M 27.929688 74.695312 C 28.175781 74.695312 28.425781 74.78125 28.625 74.945312 C 29.304688 75.496094 30.074219 75.933594 30.910156 76.242188 C 31.332031 76.398438 31.617188 76.785156 31.640625 77.230469 L 31.800781 80.253906 C 31.800781 80.289062 31.832031 80.320312 31.867188 80.320312 C 31.867188 80.320312 35.671875 80.289062 35.671875 80.289062 C 35.707031 80.289062 35.738281 80.261719 35.738281 80.226562 L 35.851562 77.199219 C 35.871094 76.753906 36.148438 76.363281 36.5625 76.207031 C 36.96875 76.050781 37.371094 75.855469 37.753906 75.628906 C 38.136719 75.40625 38.503906 75.148438 38.835938 74.871094 C 39.175781 74.585938 39.652344 74.535156 40.050781 74.734375 L 42.75 76.113281 C 42.78125 76.128906 42.820312 76.117188 42.835938 76.085938 L 44.71875 72.777344 C 44.734375 72.746094 44.726562 72.707031 44.695312 72.6875 L 42.132812 71.074219 C 41.753906 70.835938 41.554688 70.398438 41.625 69.953125 C 41.765625 69.074219 41.757812 68.191406 41.605469 67.324219 C 41.527344 66.886719 41.722656 66.449219 42.097656 66.203125 L 44.636719 64.558594 C 44.667969 64.535156 44.675781 64.496094 44.65625 64.46875 L 42.730469 61.1875 C 42.714844 61.15625 42.675781 61.144531 42.644531 61.160156 L 39.964844 62.574219 C 39.570312 62.78125 39.09375 62.734375 38.746094 62.457031 C 38.066406 61.902344 37.296875 61.464844 36.464844 61.15625 C 36.042969 61.003906 35.753906 60.613281 35.730469 60.167969 L 35.574219 57.144531 C 35.574219 57.109375 35.542969 57.082031 35.507812 57.082031 C 35.507812 57.082031 31.703125 57.109375 31.703125 57.109375 C 31.664062 57.109375 31.636719 57.136719 31.632812 57.171875 L 31.519531 60.199219 C 31.503906 60.644531 31.226562 61.035156 30.8125 61.195312 C 30.40625 61.347656 30.003906 61.542969 29.617188 61.769531 C 29.234375 61.996094 28.871094 62.25 28.535156 62.527344 C 28.195312 62.8125 27.71875 62.867188 27.320312 62.664062 L 24.625 61.285156 C 24.59375 61.269531 24.554688 61.28125 24.535156 61.3125 L 22.65625 64.621094 C 22.636719 64.652344 22.648438 64.691406 22.679688 64.710938 L 25.242188 66.324219 C 25.621094 66.5625 25.816406 67 25.746094 67.445312 C 25.609375 68.324219 25.617188 69.207031 25.765625 70.074219 C 25.84375 70.511719 25.652344 70.953125 25.277344 71.195312 L 22.734375 72.84375 C 22.703125 72.863281 22.695312 72.902344 22.714844 72.933594 L 24.636719 76.214844 C 24.65625 76.246094 24.695312 76.257812 24.726562 76.238281 L 27.40625 74.824219 C 27.570312 74.738281 27.75 74.695312 27.929688 74.695312 Z M 31.867188 81.363281 C 31.273438 81.363281 30.785156 80.902344 30.753906 80.308594 L 30.597656 77.285156 C 30.597656 77.257812 30.578125 77.234375 30.546875 77.222656 C 29.605469 76.875 28.734375 76.382812 27.964844 75.753906 C 27.945312 75.738281 27.917969 75.738281 27.894531 75.75 L 25.214844 77.164062 C 24.6875 77.445312 24.039062 77.257812 23.734375 76.746094 L 21.8125 73.464844 C 21.507812 72.949219 21.664062 72.292969 22.164062 71.96875 L 24.707031 70.316406 C 24.730469 70.300781 24.742188 70.277344 24.738281 70.253906 C 24.566406 69.273438 24.558594 68.277344 24.714844 67.28125 C 24.71875 67.253906 24.707031 67.222656 24.683594 67.210938 L 22.121094 65.597656 C 21.617188 65.28125 21.449219 64.625 21.746094 64.105469 L 23.625 60.796875 C 23.921875 60.277344 24.566406 60.085938 25.101562 60.355469 L 27.796875 61.730469 C 27.820312 61.742188 27.847656 61.742188 27.867188 61.726562 C 28.242188 61.410156 28.65625 61.121094 29.089844 60.867188 C 29.523438 60.613281 29.976562 60.394531 30.4375 60.21875 C 30.457031 60.207031 30.476562 60.183594 30.476562 60.160156 L 30.589844 57.132812 C 30.613281 56.535156 31.097656 56.066406 31.695312 56.0625 L 35.5 56.035156 C 35.5 56.035156 35.503906 56.035156 35.507812 56.035156 C 36.101562 56.035156 36.585938 56.496094 36.617188 57.089844 L 36.777344 60.113281 C 36.777344 60.140625 36.796875 60.164062 36.824219 60.175781 C 37.769531 60.523438 38.636719 61.015625 39.40625 61.644531 C 39.425781 61.660156 39.453125 61.660156 39.476562 61.648438 L 42.15625 60.234375 C 42.683594 59.957031 43.332031 60.140625 43.632812 60.65625 L 45.558594 63.9375 C 45.863281 64.453125 45.707031 65.109375 45.207031 65.433594 L 42.667969 67.082031 C 42.644531 67.097656 42.632812 67.121094 42.636719 67.144531 C 42.808594 68.125 42.816406 69.125 42.65625 70.117188 C 42.652344 70.148438 42.664062 70.175781 42.6875 70.191406 L 45.25 71.800781 C 45.757812 72.121094 45.921875 72.777344 45.625 73.292969 L 43.746094 76.601562 C 43.453125 77.121094 42.804688 77.316406 42.273438 77.042969 L 39.578125 75.667969 C 39.550781 75.65625 39.523438 75.660156 39.507812 75.671875 C 39.128906 75.988281 38.71875 76.277344 38.285156 76.53125 C 37.847656 76.789062 37.394531 77.003906 36.9375 77.183594 C 36.914062 77.191406 36.898438 77.214844 36.898438 77.238281 L 36.785156 80.265625 C 36.761719 80.863281 36.277344 81.332031 35.679688 81.335938 L 31.875 81.363281 C 31.871094 81.363281 31.871094 81.363281 31.867188 81.363281 " fill-opacity="1" fill-rule="nonzero"/></g><path fill="#ff66c4" d="M 33.6875 63.5625 C 31.40625 63.5625 29.316406 65.097656 28.714844 67.40625 C 28.003906 70.148438 29.652344 72.957031 32.390625 73.671875 C 35.132812 74.382812 37.941406 72.734375 38.65625 69.992188 C 39.371094 67.253906 37.722656 64.441406 34.980469 63.730469 C 34.546875 63.617188 34.113281 63.5625 33.6875 63.5625 Z M 33.6875 74.882812 C 33.171875 74.882812 32.648438 74.816406 32.128906 74.683594 C 28.828125 73.824219 26.84375 70.441406 27.703125 67.140625 C 28.5625 63.84375 31.945312 61.859375 35.242188 62.714844 C 36.84375 63.132812 38.183594 64.144531 39.019531 65.570312 C 39.855469 66.996094 40.085938 68.660156 39.667969 70.257812 C 38.945312 73.035156 36.429688 74.882812 33.6875 74.882812 " fill-opacity="1" fill-rule="nonzero"/><path fill="#ff66c4" d="M 127.625 65.296875 C 127.605469 66.429688 128.050781 67.539062 128.882812 68.34375 C 130.519531 69.921875 133.136719 69.878906 134.71875 68.242188 C 136.296875 66.605469 136.25 63.988281 134.617188 62.40625 C 133.78125 61.605469 132.660156 61.195312 131.527344 61.257812 L 133.652344 63.308594 C 134.003906 63.648438 134.121094 64.144531 133.976562 64.714844 C 133.6875 65.878906 132.320312 67.292969 131.164062 67.625 C 130.605469 67.785156 130.101562 67.6875 129.75 67.351562 Z M 131.75 70.542969 C 130.453125 70.542969 129.160156 70.0625 128.15625 69.09375 C 126.820312 67.800781 126.277344 65.878906 126.742188 64.078125 C 126.789062 63.898438 126.929688 63.753906 127.109375 63.703125 C 127.285156 63.652344 127.480469 63.703125 127.613281 63.832031 L 130.476562 66.597656 C 130.550781 66.667969 130.683594 66.675781 130.878906 66.621094 C 131.671875 66.394531 132.761719 65.261719 132.964844 64.460938 C 133.011719 64.265625 133 64.132812 132.925781 64.0625 L 130.0625 61.292969 C 129.929688 61.164062 129.875 60.976562 129.917969 60.792969 C 129.960938 60.613281 130.101562 60.46875 130.277344 60.417969 C 132.0625 59.890625 134.003906 60.363281 135.34375 61.65625 C 137.394531 63.636719 137.449219 66.917969 135.46875 68.96875 C 134.457031 70.015625 133.101562 70.542969 131.75 70.542969 " fill-opacity="1" fill-rule="nonzero"/><path fill="#ff66c4" d="M 145.199219 81 C 144.515625 81 143.867188 80.742188 143.375 80.261719 L 132.902344 70.148438 C 132.691406 69.945312 132.6875 69.613281 132.886719 69.40625 C 133.089844 69.199219 133.421875 69.195312 133.628906 69.394531 L 144.101562 79.511719 C 144.40625 79.804688 144.808594 79.964844 145.230469 79.957031 C 145.652344 79.949219 146.050781 79.777344 146.34375 79.472656 C 146.949219 78.84375 146.933594 77.835938 146.304688 77.230469 L 135.832031 67.113281 C 135.625 66.914062 135.617188 66.582031 135.820312 66.375 C 136.019531 66.167969 136.351562 66.160156 136.558594 66.363281 L 147.03125 76.476562 C 148.074219 77.484375 148.105469 79.15625 147.097656 80.199219 C 146.609375 80.703125 145.953125 80.988281 145.25 81 C 145.234375 81 145.21875 81 145.199219 81 " fill-opacity="1" fill-rule="nonzero"/><path fill="#ff66c4" d="M 74.035156 112.804688 C 73.941406 114.160156 74.433594 115.511719 75.410156 116.488281 C 76.304688 117.382812 77.496094 117.878906 78.765625 117.878906 C 80.03125 117.878906 81.222656 117.382812 82.117188 116.488281 C 83.964844 114.640625 83.964844 111.632812 82.117188 109.78125 C 81.140625 108.804688 79.789062 108.3125 78.4375 108.40625 L 80.910156 110.882812 C 81.796875 111.765625 81.085938 113.269531 79.992188 114.363281 C 78.898438 115.460938 77.394531 116.167969 76.511719 115.28125 Z M 78.765625 118.921875 C 77.21875 118.921875 75.765625 118.320312 74.671875 117.226562 C 73.199219 115.757812 72.628906 113.59375 73.1875 111.585938 C 73.238281 111.40625 73.378906 111.265625 73.558594 111.21875 C 73.738281 111.171875 73.929688 111.222656 74.0625 111.355469 L 77.25 114.542969 C 77.503906 114.800781 78.390625 114.484375 79.253906 113.625 C 80.113281 112.761719 80.429688 111.878906 80.171875 111.621094 L 76.984375 108.433594 C 76.851562 108.300781 76.800781 108.109375 76.847656 107.929688 C 76.894531 107.75 77.035156 107.609375 77.214844 107.558594 C 79.222656 107 81.382812 107.570312 82.855469 109.042969 C 85.113281 111.300781 85.113281 114.972656 82.855469 117.226562 C 81.765625 118.320312 80.308594 118.921875 78.765625 118.921875 " fill-opacity="1" fill-rule="nonzero"/><g clip-path="url(#9f8f472cb3)"><path fill="#ff66c4" d="M 93.742188 131.027344 C 92.964844 131.027344 92.234375 130.726562 91.6875 130.175781 L 80.023438 118.511719 C 79.820312 118.308594 79.820312 117.976562 80.023438 117.773438 C 80.226562 117.570312 80.558594 117.570312 80.765625 117.773438 L 92.425781 129.433594 C 92.777344 129.785156 93.246094 129.980469 93.742188 129.980469 C 94.242188 129.980469 94.710938 129.785156 95.0625 129.433594 C 95.789062 128.707031 95.789062 127.523438 95.0625 126.796875 L 83.402344 115.136719 C 83.199219 114.929688 83.199219 114.597656 83.402344 114.394531 C 83.605469 114.191406 83.9375 114.191406 84.140625 114.394531 L 95.804688 126.058594 C 96.9375 127.191406 96.9375 129.039062 95.804688 130.175781 C 95.253906 130.726562 94.523438 131.027344 93.746094 131.027344 C 93.746094 131.027344 93.742188 131.027344 93.742188 131.027344 " fill-opacity="1" fill-rule="nonzero"/></g><path fill="#ff66c4" d="M 96.535156 108.394531 C 95.289062 108.394531 94.074219 108.882812 93.175781 109.78125 C 91.328125 111.632812 91.328125 114.640625 93.175781 116.488281 C 95.023438 118.335938 98.03125 118.335938 99.878906 116.488281 C 100.859375 115.511719 101.351562 114.160156 101.257812 112.804688 L 98.78125 115.28125 C 97.894531 116.167969 96.394531 115.460938 95.300781 114.363281 C 94.203125 113.269531 93.496094 111.765625 94.378906 110.882812 L 96.855469 108.40625 C 96.75 108.398438 96.640625 108.394531 96.535156 108.394531 Z M 96.527344 118.921875 C 95.046875 118.921875 93.5625 118.355469 92.4375 117.226562 C 90.179688 114.972656 90.179688 111.300781 92.433594 109.042969 C 93.90625 107.570312 96.070312 107 98.078125 107.558594 C 98.257812 107.609375 98.398438 107.75 98.445312 107.929688 C 98.492188 108.109375 98.441406 108.300781 98.308594 108.433594 L 95.117188 111.621094 C 94.863281 111.878906 95.179688 112.761719 96.039062 113.625 C 96.898438 114.484375 97.785156 114.800781 98.042969 114.542969 L 101.230469 111.355469 C 101.363281 111.222656 101.554688 111.171875 101.734375 111.21875 C 101.914062 111.265625 102.054688 111.40625 102.105469 111.585938 C 102.660156 113.59375 102.09375 115.753906 100.621094 117.226562 C 99.492188 118.355469 98.007812 118.921875 96.527344 118.921875 " fill-opacity="1" fill-rule="nonzero"/><g clip-path="url(#d5dcf60315)"><path fill="#ff66c4" d="M 81.546875 131.027344 C 80.800781 131.027344 80.054688 130.742188 79.488281 130.175781 C 78.9375 129.625 78.636719 128.894531 78.636719 128.117188 C 78.636719 127.339844 78.9375 126.609375 79.488281 126.058594 L 83.898438 121.648438 C 84.101562 121.445312 84.433594 121.445312 84.636719 121.648438 C 84.84375 121.851562 84.84375 122.183594 84.636719 122.386719 L 80.226562 126.796875 C 79.875 127.148438 79.679688 127.617188 79.683594 128.117188 C 79.683594 128.617188 79.875 129.082031 80.226562 129.433594 C 80.957031 130.160156 82.140625 130.160156 82.867188 129.433594 L 87.277344 125.027344 C 87.480469 124.820312 87.8125 124.820312 88.015625 125.027344 C 88.21875 125.230469 88.21875 125.5625 88.015625 125.765625 L 83.605469 130.175781 C 83.039062 130.742188 82.292969 131.027344 81.546875 131.027344 " fill-opacity="1" fill-rule="nonzero"/></g><path fill="#ff66c4" d="M 91.023438 122.539062 C 90.890625 122.539062 90.757812 122.488281 90.652344 122.386719 C 90.449219 122.183594 90.449219 121.851562 90.652344 121.648438 L 94.527344 117.773438 C 94.734375 117.570312 95.0625 117.570312 95.265625 117.773438 C 95.472656 117.976562 95.472656 118.308594 95.265625 118.511719 L 91.394531 122.386719 C 91.289062 122.488281 91.15625 122.539062 91.023438 122.539062 " fill-opacity="1" fill-rule="nonzero"/><path fill="#ff66c4" d="M 87.644531 119.164062 C 87.511719 119.164062 87.378906 119.113281 87.277344 119.007812 C 87.070312 118.804688 87.070312 118.472656 87.277344 118.269531 L 91.152344 114.394531 C 91.355469 114.191406 91.6875 114.191406 91.890625 114.394531 C 92.09375 114.597656 92.09375 114.929688 91.890625 115.136719 L 88.015625 119.007812 C 87.914062 119.113281 87.78125 119.164062 87.644531 119.164062 " fill-opacity="1" fill-rule="nonzero"/><path fill="#ff66c4" d="M 107.902344 21.613281 C 107.835938 21.613281 107.765625 21.597656 107.695312 21.570312 C 106.007812 20.847656 104.265625 20.207031 102.515625 19.664062 C 102.242188 19.578125 102.085938 19.285156 102.171875 19.007812 C 102.257812 18.734375 102.550781 18.578125 102.824219 18.664062 C 104.609375 19.21875 106.386719 19.871094 108.109375 20.609375 C 108.375 20.722656 108.496094 21.03125 108.382812 21.296875 C 108.296875 21.496094 108.105469 21.613281 107.902344 21.613281 Z M 65.972656 21.617188 C 65.769531 21.617188 65.574219 21.496094 65.488281 21.300781 C 65.375 21.035156 65.5 20.726562 65.765625 20.613281 C 67.484375 19.878906 69.261719 19.226562 71.050781 18.675781 C 71.328125 18.589844 71.617188 18.746094 71.703125 19.023438 C 71.789062 19.296875 71.632812 19.589844 71.359375 19.675781 C 69.605469 20.214844 67.859375 20.855469 66.175781 21.574219 C 66.109375 21.601562 66.039062 21.617188 65.972656 21.617188 Z M 118.71875 27.832031 C 118.609375 27.832031 118.5 27.800781 118.40625 27.730469 C 116.933594 26.636719 115.386719 25.609375 113.808594 24.671875 C 113.5625 24.527344 113.480469 24.207031 113.625 23.957031 C 113.773438 23.710938 114.09375 23.628906 114.34375 23.773438 C 115.953125 24.726562 117.527344 25.773438 119.03125 26.890625 C 119.261719 27.0625 119.3125 27.390625 119.136719 27.621094 C 119.035156 27.761719 118.878906 27.832031 118.71875 27.832031 Z M 55.160156 27.835938 C 55 27.835938 54.84375 27.761719 54.738281 27.625 C 54.570312 27.390625 54.617188 27.0625 54.847656 26.890625 C 56.347656 25.773438 57.921875 24.726562 59.53125 23.773438 C 59.78125 23.628906 60.101562 23.710938 60.246094 23.957031 C 60.394531 24.207031 60.3125 24.527344 60.0625 24.671875 C 58.488281 25.609375 56.941406 26.636719 55.472656 27.730469 C 55.378906 27.800781 55.269531 27.835938 55.160156 27.835938 Z M 127.800781 36.386719 C 127.648438 36.386719 127.503906 36.320312 127.398438 36.199219 C 126.21875 34.796875 124.953125 33.4375 123.632812 32.164062 C 123.425781 31.960938 123.421875 31.632812 123.621094 31.421875 C 123.820312 31.214844 124.152344 31.210938 124.359375 31.410156 C 125.707031 32.710938 127 34.09375 128.199219 35.527344 C 128.382812 35.746094 128.355469 36.078125 128.136719 36.261719 C 128.039062 36.34375 127.917969 36.386719 127.800781 36.386719 Z M 46.09375 36.398438 C 45.976562 36.398438 45.859375 36.359375 45.761719 36.277344 C 45.539062 36.09375 45.507812 35.761719 45.695312 35.542969 C 46.894531 34.105469 48.183594 32.71875 49.527344 31.417969 C 49.734375 31.21875 50.066406 31.222656 50.265625 31.429688 C 50.464844 31.636719 50.460938 31.96875 50.253906 32.167969 C 48.9375 33.445312 47.675781 34.804688 46.496094 36.210938 C 46.394531 36.335938 46.242188 36.398438 46.09375 36.398438 Z M 134.640625 46.8125 C 134.449219 46.8125 134.265625 46.703125 134.171875 46.519531 C 133.355469 44.882812 132.441406 43.265625 131.453125 41.71875 C 131.296875 41.476562 131.367188 41.152344 131.613281 40.996094 C 131.855469 40.839844 132.179688 40.914062 132.335938 41.15625 C 133.339844 42.734375 134.273438 44.382812 135.109375 46.054688 C 135.238281 46.3125 135.132812 46.625 134.875 46.753906 C 134.800781 46.792969 134.71875 46.8125 134.640625 46.8125 Z M 39.253906 46.832031 C 39.175781 46.832031 39.097656 46.816406 39.023438 46.777344 C 38.765625 46.648438 38.660156 46.335938 38.789062 46.078125 C 39.625 44.40625 40.558594 42.757812 41.5625 41.179688 C 41.71875 40.9375 42.042969 40.863281 42.285156 41.019531 C 42.527344 41.175781 42.601562 41.5 42.445312 41.742188 C 41.457031 43.289062 40.542969 44.90625 39.722656 46.542969 C 39.632812 46.726562 39.445312 46.832031 39.253906 46.832031 Z M 138.855469 58.550781 C 138.617188 58.550781 138.402344 58.386719 138.347656 58.144531 C 137.933594 56.355469 137.421875 54.570312 136.824219 52.839844 C 136.730469 52.566406 136.875 52.269531 137.148438 52.175781 C 137.421875 52.082031 137.71875 52.226562 137.8125 52.5 C 138.421875 54.265625 138.945312 56.085938 139.367188 57.910156 C 139.429688 58.191406 139.253906 58.472656 138.972656 58.535156 C 138.933594 58.546875 138.894531 58.550781 138.855469 58.550781 Z M 135.519531 92.558594 C 135.445312 92.558594 135.371094 92.542969 135.304688 92.511719 C 135.039062 92.390625 134.921875 92.082031 135.042969 91.816406 C 135.800781 90.144531 136.476562 88.414062 137.054688 86.675781 C 137.144531 86.402344 137.441406 86.253906 137.714844 86.347656 C 137.988281 86.4375 138.136719 86.730469 138.046875 87.007812 C 137.457031 88.78125 136.769531 90.542969 135.996094 92.25 C 135.910156 92.441406 135.71875 92.558594 135.519531 92.558594 Z M 39.570312 95.039062 C 39.378906 95.039062 39.199219 94.9375 39.105469 94.757812 C 38.246094 93.09375 37.472656 91.367188 36.792969 89.625 C 36.6875 89.355469 36.820312 89.050781 37.089844 88.949219 C 37.359375 88.84375 37.664062 88.976562 37.769531 89.246094 C 38.433594 90.957031 39.195312 92.648438 40.035156 94.277344 C 40.167969 94.535156 40.066406 94.851562 39.808594 94.980469 C 39.730469 95.019531 39.648438 95.039062 39.570312 95.039062 Z M 129.082031 103.246094 C 128.96875 103.246094 128.855469 103.207031 128.761719 103.136719 C 128.535156 102.957031 128.492188 102.628906 128.667969 102.402344 C 129.789062 100.953125 130.851562 99.425781 131.816406 97.867188 C 131.96875 97.621094 132.289062 97.546875 132.535156 97.699219 C 132.78125 97.851562 132.855469 98.171875 132.707031 98.417969 C 131.71875 100.007812 130.640625 101.5625 129.496094 103.042969 C 129.390625 103.175781 129.238281 103.246094 129.082031 103.246094 Z M 46.542969 105.371094 C 46.398438 105.371094 46.25 105.3125 46.148438 105.191406 C 44.925781 103.773438 43.769531 102.277344 42.703125 100.742188 C 42.539062 100.503906 42.597656 100.179688 42.835938 100.015625 C 43.070312 99.851562 43.398438 99.910156 43.5625 100.148438 C 44.605469 101.652344 45.742188 103.117188 46.941406 104.507812 C 47.128906 104.726562 47.105469 105.058594 46.886719 105.246094 C 46.789062 105.332031 46.664062 105.371094 46.542969 105.371094 Z M 120.351562 112.152344 C 120.195312 112.152344 120.046875 112.082031 119.941406 111.957031 C 119.761719 111.730469 119.796875 111.402344 120.023438 111.222656 C 121.449219 110.070312 122.832031 108.832031 124.132812 107.539062 C 124.335938 107.335938 124.667969 107.335938 124.871094 107.539062 C 125.074219 107.746094 125.074219 108.078125 124.867188 108.28125 C 123.542969 109.597656 122.132812 110.863281 120.675781 112.035156 C 120.582031 112.113281 120.464844 112.152344 120.351562 112.152344 Z M 55.734375 113.808594 C 55.625 113.808594 55.519531 113.773438 55.425781 113.707031 C 53.910156 112.613281 52.4375 111.425781 51.042969 110.179688 C 50.828125 109.984375 50.808594 109.65625 51.003906 109.441406 C 51.195312 109.226562 51.527344 109.207031 51.742188 109.398438 C 53.105469 110.621094 54.554688 111.785156 56.039062 112.859375 C 56.273438 113.03125 56.328125 113.355469 56.15625 113.589844 C 56.054688 113.730469 55.894531 113.808594 55.734375 113.808594 Z M 109.789062 118.78125 C 109.589844 118.78125 109.402344 118.667969 109.316406 118.480469 C 109.191406 118.21875 109.300781 117.90625 109.5625 117.785156 C 111.21875 117 112.855469 116.117188 114.421875 115.160156 C 114.667969 115.011719 114.988281 115.089844 115.136719 115.335938 C 115.289062 115.582031 115.210938 115.902344 114.964844 116.054688 C 113.367188 117.03125 111.699219 117.929688 110.011719 118.730469 C 109.9375 118.761719 109.863281 118.78125 109.789062 118.78125 Z M 66.628906 119.886719 C 66.5625 119.886719 66.492188 119.875 66.429688 119.847656 C 64.699219 119.136719 62.992188 118.320312 61.347656 117.429688 C 61.089844 117.289062 60.996094 116.972656 61.132812 116.71875 C 61.273438 116.464844 61.589844 116.371094 61.84375 116.507812 C 63.457031 117.382812 65.132812 118.183594 66.828125 118.882812 C 67.09375 118.992188 67.222656 119.296875 67.109375 119.566406 C 67.027344 119.765625 66.832031 119.886719 66.628906 119.886719 " fill-opacity="1" fill-rule="nonzero"/></svg>