<?xml version="1.0" standalone="no"?>
<!DOCTYPE svg PUBLIC "-//W3C//DTD SVG 20010904//EN"
 "http://www.w3.org/TR/2001/REC-SVG-20010904/DTD/svg10.dtd">
<svg version="1.0" xmlns="http://www.w3.org/2000/svg"
 width="512.000000pt" height="512.000000pt" viewBox="0 0 512.000000 512.000000"
 preserveAspectRatio="xMidYMid meet">
<metadata>
Created by potrace 1.14, written by Peter Selinger 2001-2017
</metadata>
<g transform="translate(0.000000,512.000000) scale(0.100000,-0.100000)"
fill="#000000" stroke="none">
<path d="M2490 5046 c-26 -7 -62 -22 -80 -33 -19 -12 -544 -532 -1167 -1155
-810 -812 -1138 -1146 -1154 -1178 -31 -62 -32 -176 -1 -240 17 -34 309 -332
1169 -1191 1259 -1258 1176 -1182 1301 -1183 127 -2 42 -79 1300 1178 1267
1265 1197 1188 1196 1321 -1 52 -7 82 -23 115 -17 32 -341 363 -1164 1187
-904 904 -1151 1146 -1187 1162 -57 25 -133 32 -190 17z"/>
</g>
</svg>
