<svg xmlns="http://www.w3.org/2000/svg" xmlns:xlink="http://www.w3.org/1999/xlink" width="566" zoomAndPan="magnify" viewBox="0 0 425.25 226.499992" height="302" preserveAspectRatio="xMidYMid meet" version="1.0"><defs><g/><clipPath id="46fd540106"><path d="M 80.117188 16.886719 L 112.300781 16.886719 L 112.300781 72.054688 L 80.117188 72.054688 Z M 80.117188 16.886719 " clip-rule="nonzero"/></clipPath><clipPath id="1db6358745"><path d="M 39 21 L 109 21 L 109 117 L 39 117 Z M 39 21 " clip-rule="nonzero"/></clipPath><clipPath id="62bee47b97"><path d="M 36.472656 59.359375 L 96.617188 -0.785156 L 156.757812 59.359375 L 96.617188 119.503906 Z M 36.472656 59.359375 " clip-rule="nonzero"/></clipPath><clipPath id="391b0f998a"><path d="M 155.183594 59.359375 L 95.042969 119.503906 L 34.898438 59.359375 L 95.042969 -0.785156 Z M 155.183594 59.359375 " clip-rule="nonzero"/></clipPath><clipPath id="5752352152"><path d="M 108.277344 106.269531 L 100.433594 114.113281 C 97.890625 116.65625 93.765625 116.65625 91.226562 114.113281 L 41.074219 63.960938 C 38.53125 61.421875 38.53125 57.296875 41.074219 54.753906 L 74.234375 21.597656 C 65 40.304688 96.152344 101.898438 108.277344 106.269531 Z M 108.277344 106.269531 " clip-rule="nonzero"/></clipPath><linearGradient x1="20.51749" gradientTransform="matrix(-0.118713, 0.118713, -0.118713, -0.118713, 155.185013, 59.359192)" y1="630.721576" x2="743.34757" gradientUnits="userSpaceOnUse" y2="-32.066523" id="b30a760605"><stop stop-opacity="1" stop-color="rgb(26.298523%, 35.299683%, 76.098633%)" offset="0"/><stop stop-opacity="1" stop-color="rgb(26.298523%, 35.299683%, 76.098633%)" offset="0.0625"/><stop stop-opacity="1" stop-color="rgb(26.298523%, 35.299683%, 76.098633%)" offset="0.09375"/><stop stop-opacity="1" stop-color="rgb(26.330566%, 35.287476%, 76.069641%)" offset="0.109375"/><stop stop-opacity="1" stop-color="rgb(26.541138%, 35.206604%, 75.871277%)" offset="0.125"/><stop stop-opacity="1" stop-color="rgb(26.899719%, 35.070801%, 75.532532%)" offset="0.140625"/><stop stop-opacity="1" stop-color="rgb(27.256775%, 34.934998%, 75.193787%)" offset="0.15625"/><stop stop-opacity="1" stop-color="rgb(27.615356%, 34.799194%, 74.855042%)" offset="0.171875"/><stop stop-opacity="1" stop-color="rgb(27.973938%, 34.663391%, 74.516296%)" offset="0.1875"/><stop stop-opacity="1" stop-color="rgb(28.33252%, 34.527588%, 74.177551%)" offset="0.203125"/><stop stop-opacity="1" stop-color="rgb(28.691101%, 34.390259%, 73.838806%)" offset="0.21875"/><stop stop-opacity="1" stop-color="rgb(29.049683%, 34.254456%, 73.500061%)" offset="0.234375"/><stop stop-opacity="1" stop-color="rgb(29.408264%, 34.118652%, 73.161316%)" offset="0.25"/><stop stop-opacity="1" stop-color="rgb(29.766846%, 33.982849%, 72.822571%)" offset="0.265625"/><stop stop-opacity="1" stop-color="rgb(30.125427%, 33.847046%, 72.483826%)" offset="0.28125"/><stop stop-opacity="1" stop-color="rgb(30.484009%, 33.711243%, 72.145081%)" offset="0.296875"/><stop stop-opacity="1" stop-color="rgb(30.84259%, 33.575439%, 71.806335%)" offset="0.3125"/><stop stop-opacity="1" stop-color="rgb(31.201172%, 33.439636%, 71.46759%)" offset="0.328125"/><stop stop-opacity="1" stop-color="rgb(31.559753%, 33.302307%, 71.128845%)" offset="0.34375"/><stop stop-opacity="1" stop-color="rgb(31.918335%, 33.166504%, 70.7901%)" offset="0.359375"/><stop stop-opacity="1" stop-color="rgb(32.276917%, 33.030701%, 70.451355%)" offset="0.375"/><stop stop-opacity="1" stop-color="rgb(32.635498%, 32.894897%, 70.11261%)" offset="0.390625"/><stop stop-opacity="1" stop-color="rgb(32.99408%, 32.759094%, 69.773865%)" offset="0.40625"/><stop stop-opacity="1" stop-color="rgb(33.352661%, 32.623291%, 69.43512%)" offset="0.421875"/><stop stop-opacity="1" stop-color="rgb(33.709717%, 32.487488%, 69.096375%)" offset="0.4375"/><stop stop-opacity="1" stop-color="rgb(34.068298%, 32.351685%, 68.757629%)" offset="0.453125"/><stop stop-opacity="1" stop-color="rgb(34.42688%, 32.215881%, 68.418884%)" offset="0.46875"/><stop stop-opacity="1" stop-color="rgb(34.785461%, 32.078552%, 68.080139%)" offset="0.478334"/><stop stop-opacity="1" stop-color="rgb(34.965515%, 32.011414%, 67.910767%)" offset="0.484375"/><stop stop-opacity="1" stop-color="rgb(35.144043%, 31.942749%, 67.741394%)" offset="0.5"/><stop stop-opacity="1" stop-color="rgb(35.502625%, 31.806946%, 67.402649%)" offset="0.515625"/><stop stop-opacity="1" stop-color="rgb(35.861206%, 31.671143%, 67.063904%)" offset="0.521666"/><stop stop-opacity="1" stop-color="rgb(36.04126%, 31.604004%, 66.894531%)" offset="0.53125"/><stop stop-opacity="1" stop-color="rgb(36.219788%, 31.535339%, 66.725159%)" offset="0.546875"/><stop stop-opacity="1" stop-color="rgb(36.578369%, 31.399536%, 66.386414%)" offset="0.5625"/><stop stop-opacity="1" stop-color="rgb(36.936951%, 31.263733%, 66.047668%)" offset="0.578125"/><stop stop-opacity="1" stop-color="rgb(37.295532%, 31.12793%, 65.708923%)" offset="0.59375"/><stop stop-opacity="1" stop-color="rgb(37.654114%, 30.990601%, 65.370178%)" offset="0.609375"/><stop stop-opacity="1" stop-color="rgb(38.012695%, 30.854797%, 65.031433%)" offset="0.625"/><stop stop-opacity="1" stop-color="rgb(38.371277%, 30.718994%, 64.692688%)" offset="0.640625"/><stop stop-opacity="1" stop-color="rgb(38.729858%, 30.583191%, 64.353943%)" offset="0.65625"/><stop stop-opacity="1" stop-color="rgb(39.08844%, 30.447388%, 64.015198%)" offset="0.671875"/><stop stop-opacity="1" stop-color="rgb(39.447021%, 30.311584%, 63.676453%)" offset="0.6875"/><stop stop-opacity="1" stop-color="rgb(39.805603%, 30.175781%, 63.337708%)" offset="0.703125"/><stop stop-opacity="1" stop-color="rgb(40.164185%, 30.039978%, 62.998962%)" offset="0.71875"/><stop stop-opacity="1" stop-color="rgb(40.52124%, 29.904175%, 62.660217%)" offset="0.734375"/><stop stop-opacity="1" stop-color="rgb(40.750122%, 29.8172%, 62.445068%)" offset="0.75"/><stop stop-opacity="1" stop-color="rgb(40.79895%, 29.798889%, 62.399292%)" offset="1"/></linearGradient><clipPath id="da30deb72a"><path d="M 67 3 L 133 3 L 133 107 L 67 107 Z M 67 3 " clip-rule="nonzero"/></clipPath><clipPath id="b784265128"><path d="M 36.472656 59.359375 L 96.617188 -0.785156 L 156.757812 59.359375 L 96.617188 119.503906 Z M 36.472656 59.359375 " clip-rule="nonzero"/></clipPath><clipPath id="65e38cbc49"><path d="M 155.183594 59.359375 L 95.042969 119.503906 L 34.898438 59.359375 L 95.042969 -0.785156 Z M 155.183594 59.359375 " clip-rule="nonzero"/></clipPath><clipPath id="7f53874536"><path d="M 74.003906 21.828125 L 91.226562 4.605469 C 91.855469 3.976562 92.582031 3.503906 93.355469 3.1875 C 82.839844 32.332031 129.828125 81.191406 132.496094 82.050781 L 108.144531 106.398438 C 95.941406 102.007812 85.027344 93.714844 77.464844 81.964844 C 65.417969 63.257812 64.863281 40.449219 74.003906 21.828125 Z M 74.003906 21.828125 " clip-rule="nonzero"/></clipPath><linearGradient x1="-190.116841" gradientTransform="matrix(-0.118713, 0.118713, -0.118713, -0.118713, 155.185013, 59.359192)" y1="553.331216" x2="609.21838" gradientUnits="userSpaceOnUse" y2="-62.767047" id="5868f37a8c"><stop stop-opacity="1" stop-color="rgb(26.298523%, 35.299683%, 76.098633%)" offset="0"/><stop stop-opacity="1" stop-color="rgb(26.298523%, 35.299683%, 76.098633%)" offset="0.125"/><stop stop-opacity="1" stop-color="rgb(26.298523%, 35.299683%, 76.098633%)" offset="0.1875"/><stop stop-opacity="1" stop-color="rgb(26.396179%, 35.261536%, 76.005554%)" offset="0.203125"/><stop stop-opacity="1" stop-color="rgb(26.597595%, 35.185242%, 75.816345%)" offset="0.210938"/><stop stop-opacity="1" stop-color="rgb(26.803589%, 35.107422%, 75.621033%)" offset="0.21875"/><stop stop-opacity="1" stop-color="rgb(27.009583%, 35.028076%, 75.427246%)" offset="0.226562"/><stop stop-opacity="1" stop-color="rgb(27.215576%, 34.950256%, 75.231934%)" offset="0.234375"/><stop stop-opacity="1" stop-color="rgb(27.42157%, 34.872437%, 75.036621%)" offset="0.242188"/><stop stop-opacity="1" stop-color="rgb(27.629089%, 34.794617%, 74.842834%)" offset="0.25"/><stop stop-opacity="1" stop-color="rgb(27.835083%, 34.716797%, 74.647522%)" offset="0.257812"/><stop stop-opacity="1" stop-color="rgb(28.041077%, 34.637451%, 74.453735%)" offset="0.265625"/><stop stop-opacity="1" stop-color="rgb(28.24707%, 34.559631%, 74.258423%)" offset="0.273438"/><stop stop-opacity="1" stop-color="rgb(28.453064%, 34.481812%, 74.06311%)" offset="0.28125"/><stop stop-opacity="1" stop-color="rgb(28.659058%, 34.403992%, 73.869324%)" offset="0.289062"/><stop stop-opacity="1" stop-color="rgb(28.865051%, 34.324646%, 73.674011%)" offset="0.296875"/><stop stop-opacity="1" stop-color="rgb(29.071045%, 34.246826%, 73.478699%)" offset="0.304687"/><stop stop-opacity="1" stop-color="rgb(29.277039%, 34.169006%, 73.284912%)" offset="0.3125"/><stop stop-opacity="1" stop-color="rgb(29.483032%, 34.091187%, 73.0896%)" offset="0.320312"/><stop stop-opacity="1" stop-color="rgb(29.689026%, 34.011841%, 72.894287%)" offset="0.328125"/><stop stop-opacity="1" stop-color="rgb(29.89502%, 33.934021%, 72.7005%)" offset="0.335938"/><stop stop-opacity="1" stop-color="rgb(30.102539%, 33.856201%, 72.505188%)" offset="0.34375"/><stop stop-opacity="1" stop-color="rgb(30.308533%, 33.778381%, 72.311401%)" offset="0.351562"/><stop stop-opacity="1" stop-color="rgb(30.514526%, 33.699036%, 72.116089%)" offset="0.359375"/><stop stop-opacity="1" stop-color="rgb(30.72052%, 33.621216%, 71.920776%)" offset="0.367188"/><stop stop-opacity="1" stop-color="rgb(30.926514%, 33.543396%, 71.72699%)" offset="0.375"/><stop stop-opacity="1" stop-color="rgb(31.132507%, 33.465576%, 71.531677%)" offset="0.382812"/><stop stop-opacity="1" stop-color="rgb(31.338501%, 33.38623%, 71.336365%)" offset="0.390625"/><stop stop-opacity="1" stop-color="rgb(31.544495%, 33.308411%, 71.142578%)" offset="0.398438"/><stop stop-opacity="1" stop-color="rgb(31.750488%, 33.230591%, 70.947266%)" offset="0.40625"/><stop stop-opacity="1" stop-color="rgb(31.956482%, 33.152771%, 70.751953%)" offset="0.414062"/><stop stop-opacity="1" stop-color="rgb(32.162476%, 33.073425%, 70.558167%)" offset="0.421875"/><stop stop-opacity="1" stop-color="rgb(32.369995%, 32.995605%, 70.362854%)" offset="0.429688"/><stop stop-opacity="1" stop-color="rgb(32.575989%, 32.917786%, 70.169067%)" offset="0.435272"/><stop stop-opacity="1" stop-color="rgb(32.679749%, 32.879639%, 70.071411%)" offset="0.4375"/><stop stop-opacity="1" stop-color="rgb(32.781982%, 32.839966%, 69.973755%)" offset="0.445312"/><stop stop-opacity="1" stop-color="rgb(32.987976%, 32.762146%, 69.778442%)" offset="0.453125"/><stop stop-opacity="1" stop-color="rgb(33.19397%, 32.6828%, 69.584656%)" offset="0.460938"/><stop stop-opacity="1" stop-color="rgb(33.399963%, 32.60498%, 69.389343%)" offset="0.46875"/><stop stop-opacity="1" stop-color="rgb(33.605957%, 32.527161%, 69.194031%)" offset="0.476562"/><stop stop-opacity="1" stop-color="rgb(33.811951%, 32.449341%, 69.000244%)" offset="0.484375"/><stop stop-opacity="1" stop-color="rgb(34.017944%, 32.369995%, 68.804932%)" offset="0.492188"/><stop stop-opacity="1" stop-color="rgb(34.223938%, 32.292175%, 68.611145%)" offset="0.5"/><stop stop-opacity="1" stop-color="rgb(34.429932%, 32.214355%, 68.415833%)" offset="0.507813"/><stop stop-opacity="1" stop-color="rgb(34.635925%, 32.136536%, 68.22052%)" offset="0.515625"/><stop stop-opacity="1" stop-color="rgb(34.843445%, 32.05719%, 68.026733%)" offset="0.523438"/><stop stop-opacity="1" stop-color="rgb(35.049438%, 31.97937%, 67.831421%)" offset="0.53125"/><stop stop-opacity="1" stop-color="rgb(35.255432%, 31.90155%, 67.636108%)" offset="0.539063"/><stop stop-opacity="1" stop-color="rgb(35.461426%, 31.82373%, 67.442322%)" offset="0.546875"/><stop stop-opacity="1" stop-color="rgb(35.667419%, 31.744385%, 67.247009%)" offset="0.554688"/><stop stop-opacity="1" stop-color="rgb(35.873413%, 31.666565%, 67.051697%)" offset="0.5625"/><stop stop-opacity="1" stop-color="rgb(36.079407%, 31.588745%, 66.85791%)" offset="0.564728"/><stop stop-opacity="1" stop-color="rgb(36.183167%, 31.550598%, 66.760254%)" offset="0.570312"/><stop stop-opacity="1" stop-color="rgb(36.2854%, 31.510925%, 66.662598%)" offset="0.578125"/><stop stop-opacity="1" stop-color="rgb(36.491394%, 31.43158%, 66.468811%)" offset="0.585938"/><stop stop-opacity="1" stop-color="rgb(36.697388%, 31.35376%, 66.273499%)" offset="0.59375"/><stop stop-opacity="1" stop-color="rgb(36.903381%, 31.27594%, 66.078186%)" offset="0.601562"/><stop stop-opacity="1" stop-color="rgb(37.109375%, 31.19812%, 65.884399%)" offset="0.609375"/><stop stop-opacity="1" stop-color="rgb(37.316895%, 31.118774%, 65.689087%)" offset="0.617188"/><stop stop-opacity="1" stop-color="rgb(37.522888%, 31.040955%, 65.493774%)" offset="0.625"/><stop stop-opacity="1" stop-color="rgb(37.728882%, 30.963135%, 65.299988%)" offset="0.632812"/><stop stop-opacity="1" stop-color="rgb(37.934875%, 30.885315%, 65.104675%)" offset="0.640625"/><stop stop-opacity="1" stop-color="rgb(38.140869%, 30.807495%, 64.910889%)" offset="0.648438"/><stop stop-opacity="1" stop-color="rgb(38.346863%, 30.728149%, 64.715576%)" offset="0.65625"/><stop stop-opacity="1" stop-color="rgb(38.552856%, 30.65033%, 64.520264%)" offset="0.664062"/><stop stop-opacity="1" stop-color="rgb(38.75885%, 30.57251%, 64.326477%)" offset="0.671875"/><stop stop-opacity="1" stop-color="rgb(38.964844%, 30.49469%, 64.131165%)" offset="0.679688"/><stop stop-opacity="1" stop-color="rgb(39.170837%, 30.415344%, 63.935852%)" offset="0.6875"/><stop stop-opacity="1" stop-color="rgb(39.376831%, 30.337524%, 63.742065%)" offset="0.695312"/><stop stop-opacity="1" stop-color="rgb(39.582825%, 30.259705%, 63.546753%)" offset="0.703125"/><stop stop-opacity="1" stop-color="rgb(39.790344%, 30.181885%, 63.35144%)" offset="0.710938"/><stop stop-opacity="1" stop-color="rgb(39.996338%, 30.102539%, 63.157654%)" offset="0.71875"/><stop stop-opacity="1" stop-color="rgb(40.202332%, 30.024719%, 62.962341%)" offset="0.726562"/><stop stop-opacity="1" stop-color="rgb(40.408325%, 29.946899%, 62.768555%)" offset="0.734375"/><stop stop-opacity="1" stop-color="rgb(40.655518%, 29.853821%, 62.535095%)" offset="0.75"/><stop stop-opacity="1" stop-color="rgb(40.79895%, 29.798889%, 62.399292%)" offset="1"/></linearGradient><clipPath id="fa68781777"><path d="M 89 2 L 153 2 L 153 83 L 89 83 Z M 89 2 " clip-rule="nonzero"/></clipPath><clipPath id="47f700bb01"><path d="M 36.472656 59.359375 L 96.617188 -0.785156 L 156.757812 59.359375 L 96.617188 119.503906 Z M 36.472656 59.359375 " clip-rule="nonzero"/></clipPath><clipPath id="ed74b31f4d"><path d="M 155.183594 59.359375 L 95.042969 119.503906 L 34.898438 59.359375 L 95.042969 -0.785156 Z M 155.183594 59.359375 " clip-rule="nonzero"/></clipPath><clipPath id="8611bdc475"><path d="M 93.363281 3.183594 C 94.386719 2.765625 95.496094 2.621094 96.578125 2.742188 C 100.050781 14.359375 122.226562 47.710938 147.367188 51.542969 L 150.582031 54.753906 C 153.125 57.296875 153.125 61.421875 150.582031 63.960938 L 132.394531 82.148438 C 129.738281 81.296875 127.105469 80.257812 124.515625 79.015625 C 95.949219 65.328125 82.855469 32.359375 93.363281 3.183594 Z M 93.363281 3.183594 " clip-rule="nonzero"/></clipPath><linearGradient x1="-85.995251" gradientTransform="matrix(-0.118713, 0.118713, -0.118713, -0.118713, 155.185013, 59.359192)" y1="605.849234" x2="242.360249" gradientUnits="userSpaceOnUse" y2="-155.556334" id="eb07ef7ef9"><stop stop-opacity="1" stop-color="rgb(26.298523%, 35.299683%, 76.098633%)" offset="0"/><stop stop-opacity="1" stop-color="rgb(26.416016%, 35.253906%, 75.987244%)" offset="0.125"/><stop stop-opacity="1" stop-color="rgb(26.719666%, 35.139465%, 75.701904%)" offset="0.140625"/><stop stop-opacity="1" stop-color="rgb(27.088928%, 34.999084%, 75.352478%)" offset="0.15625"/><stop stop-opacity="1" stop-color="rgb(27.458191%, 34.860229%, 75.004578%)" offset="0.171875"/><stop stop-opacity="1" stop-color="rgb(27.827454%, 34.719849%, 74.655151%)" offset="0.1875"/><stop stop-opacity="1" stop-color="rgb(28.196716%, 34.579468%, 74.305725%)" offset="0.203125"/><stop stop-opacity="1" stop-color="rgb(28.565979%, 34.439087%, 73.957825%)" offset="0.21875"/><stop stop-opacity="1" stop-color="rgb(28.935242%, 34.298706%, 73.608398%)" offset="0.234375"/><stop stop-opacity="1" stop-color="rgb(29.304504%, 34.159851%, 73.258972%)" offset="0.25"/><stop stop-opacity="1" stop-color="rgb(29.673767%, 34.01947%, 72.909546%)" offset="0.265625"/><stop stop-opacity="1" stop-color="rgb(30.04303%, 33.879089%, 72.561646%)" offset="0.28125"/><stop stop-opacity="1" stop-color="rgb(30.412292%, 33.738708%, 72.212219%)" offset="0.296875"/><stop stop-opacity="1" stop-color="rgb(30.781555%, 33.598328%, 71.862793%)" offset="0.30131"/><stop stop-opacity="1" stop-color="rgb(30.966187%, 33.528137%, 71.688843%)" offset="0.3125"/><stop stop-opacity="1" stop-color="rgb(31.150818%, 33.457947%, 71.514893%)" offset="0.328125"/><stop stop-opacity="1" stop-color="rgb(31.520081%, 33.319092%, 71.165466%)" offset="0.34375"/><stop stop-opacity="1" stop-color="rgb(31.890869%, 33.178711%, 70.81604%)" offset="0.359375"/><stop stop-opacity="1" stop-color="rgb(32.260132%, 33.03833%, 70.466614%)" offset="0.375"/><stop stop-opacity="1" stop-color="rgb(32.629395%, 32.897949%, 70.118713%)" offset="0.390625"/><stop stop-opacity="1" stop-color="rgb(32.998657%, 32.757568%, 69.769287%)" offset="0.40625"/><stop stop-opacity="1" stop-color="rgb(33.36792%, 32.618713%, 69.419861%)" offset="0.421875"/><stop stop-opacity="1" stop-color="rgb(33.737183%, 32.478333%, 69.07196%)" offset="0.4375"/><stop stop-opacity="1" stop-color="rgb(34.106445%, 32.337952%, 68.722534%)" offset="0.453125"/><stop stop-opacity="1" stop-color="rgb(34.475708%, 32.197571%, 68.373108%)" offset="0.46875"/><stop stop-opacity="1" stop-color="rgb(34.844971%, 32.05719%, 68.023682%)" offset="0.484375"/><stop stop-opacity="1" stop-color="rgb(35.214233%, 31.916809%, 67.675781%)" offset="0.5"/><stop stop-opacity="1" stop-color="rgb(35.583496%, 31.777954%, 67.326355%)" offset="0.515625"/><stop stop-opacity="1" stop-color="rgb(35.952759%, 31.637573%, 66.976929%)" offset="0.53125"/><stop stop-opacity="1" stop-color="rgb(36.322021%, 31.497192%, 66.629028%)" offset="0.546875"/><stop stop-opacity="1" stop-color="rgb(36.691284%, 31.356812%, 66.279602%)" offset="0.5625"/><stop stop-opacity="1" stop-color="rgb(37.062073%, 31.216431%, 65.930176%)" offset="0.578125"/><stop stop-opacity="1" stop-color="rgb(37.431335%, 31.07605%, 65.58075%)" offset="0.59375"/><stop stop-opacity="1" stop-color="rgb(37.800598%, 30.937195%, 65.232849%)" offset="0.609375"/><stop stop-opacity="1" stop-color="rgb(38.169861%, 30.796814%, 64.883423%)" offset="0.625"/><stop stop-opacity="1" stop-color="rgb(38.539124%, 30.656433%, 64.533997%)" offset="0.640625"/><stop stop-opacity="1" stop-color="rgb(38.908386%, 30.516052%, 64.186096%)" offset="0.65625"/><stop stop-opacity="1" stop-color="rgb(39.277649%, 30.375671%, 63.83667%)" offset="0.671875"/><stop stop-opacity="1" stop-color="rgb(39.646912%, 30.236816%, 63.487244%)" offset="0.6875"/><stop stop-opacity="1" stop-color="rgb(40.016174%, 30.096436%, 63.137817%)" offset="0.69869"/><stop stop-opacity="1" stop-color="rgb(40.200806%, 30.026245%, 62.963867%)" offset="0.703125"/><stop stop-opacity="1" stop-color="rgb(40.385437%, 29.956055%, 62.789917%)" offset="0.71875"/><stop stop-opacity="1" stop-color="rgb(40.684509%, 29.841614%, 62.507629%)" offset="0.75"/><stop stop-opacity="1" stop-color="rgb(40.79895%, 29.798889%, 62.399292%)" offset="1"/></linearGradient><clipPath id="638c0093c7"><path d="M 96 2 L 148 2 L 148 52 L 96 52 Z M 96 2 " clip-rule="nonzero"/></clipPath><clipPath id="81c431d640"><path d="M 36.472656 59.359375 L 96.617188 -0.785156 L 156.757812 59.359375 L 96.617188 119.503906 Z M 36.472656 59.359375 " clip-rule="nonzero"/></clipPath><clipPath id="142d06c3d1"><path d="M 155.183594 59.359375 L 95.042969 119.503906 L 34.898438 59.359375 L 95.042969 -0.785156 Z M 155.183594 59.359375 " clip-rule="nonzero"/></clipPath><clipPath id="ad9ba0f88a"><path d="M 96.578125 2.742188 C 97.984375 2.90625 99.351562 3.527344 100.433594 4.605469 L 147.371094 51.542969 C 122.226562 47.714844 101.539062 28.398438 96.578125 2.742188 Z M 96.578125 2.742188 " clip-rule="nonzero"/></clipPath><linearGradient x1="-143.79138" gradientTransform="matrix(-0.118713, 0.118713, -0.118713, -0.118713, 155.185013, 59.359192)" y1="522.39733" x2="152.630179" gradientUnits="userSpaceOnUse" y2="28.999944" id="4fd591e6b6"><stop stop-opacity="1" stop-color="rgb(26.298523%, 35.299683%, 76.098633%)" offset="0"/><stop stop-opacity="1" stop-color="rgb(26.446533%, 35.243225%, 75.959778%)" offset="0.0625"/><stop stop-opacity="1" stop-color="rgb(26.742554%, 35.13031%, 75.680542%)" offset="0.078125"/><stop stop-opacity="1" stop-color="rgb(27.038574%, 35.018921%, 75.39978%)" offset="0.09375"/><stop stop-opacity="1" stop-color="rgb(27.336121%, 34.906006%, 75.119019%)" offset="0.109375"/><stop stop-opacity="1" stop-color="rgb(27.633667%, 34.793091%, 74.838257%)" offset="0.125"/><stop stop-opacity="1" stop-color="rgb(27.929688%, 34.680176%, 74.557495%)" offset="0.140625"/><stop stop-opacity="1" stop-color="rgb(28.227234%, 34.567261%, 74.278259%)" offset="0.15625"/><stop stop-opacity="1" stop-color="rgb(28.523254%, 34.455872%, 73.997498%)" offset="0.171875"/><stop stop-opacity="1" stop-color="rgb(28.820801%, 34.342957%, 73.716736%)" offset="0.1875"/><stop stop-opacity="1" stop-color="rgb(29.116821%, 34.230042%, 73.435974%)" offset="0.203125"/><stop stop-opacity="1" stop-color="rgb(29.414368%, 34.117126%, 73.155212%)" offset="0.21875"/><stop stop-opacity="1" stop-color="rgb(29.711914%, 34.004211%, 72.874451%)" offset="0.234375"/><stop stop-opacity="1" stop-color="rgb(30.007935%, 33.892822%, 72.595215%)" offset="0.25"/><stop stop-opacity="1" stop-color="rgb(30.305481%, 33.779907%, 72.314453%)" offset="0.265625"/><stop stop-opacity="1" stop-color="rgb(30.601501%, 33.666992%, 72.033691%)" offset="0.28125"/><stop stop-opacity="1" stop-color="rgb(30.899048%, 33.554077%, 71.75293%)" offset="0.296875"/><stop stop-opacity="1" stop-color="rgb(31.195068%, 33.441162%, 71.472168%)" offset="0.3125"/><stop stop-opacity="1" stop-color="rgb(31.492615%, 33.329773%, 71.191406%)" offset="0.328125"/><stop stop-opacity="1" stop-color="rgb(31.788635%, 33.216858%, 70.91217%)" offset="0.34375"/><stop stop-opacity="1" stop-color="rgb(32.086182%, 33.103943%, 70.631409%)" offset="0.359375"/><stop stop-opacity="1" stop-color="rgb(32.383728%, 32.991028%, 70.350647%)" offset="0.375"/><stop stop-opacity="1" stop-color="rgb(32.679749%, 32.878113%, 70.069885%)" offset="0.375303"/><stop stop-opacity="1" stop-color="rgb(32.829285%, 32.823181%, 69.929504%)" offset="0.390625"/><stop stop-opacity="1" stop-color="rgb(32.977295%, 32.766724%, 69.789124%)" offset="0.40625"/><stop stop-opacity="1" stop-color="rgb(33.273315%, 32.653809%, 69.508362%)" offset="0.421875"/><stop stop-opacity="1" stop-color="rgb(33.570862%, 32.540894%, 69.229126%)" offset="0.4375"/><stop stop-opacity="1" stop-color="rgb(33.866882%, 32.427979%, 68.948364%)" offset="0.453125"/><stop stop-opacity="1" stop-color="rgb(34.164429%, 32.315063%, 68.667603%)" offset="0.46875"/><stop stop-opacity="1" stop-color="rgb(34.460449%, 32.203674%, 68.386841%)" offset="0.484375"/><stop stop-opacity="1" stop-color="rgb(34.757996%, 32.090759%, 68.106079%)" offset="0.5"/><stop stop-opacity="1" stop-color="rgb(35.055542%, 31.977844%, 67.826843%)" offset="0.515625"/><stop stop-opacity="1" stop-color="rgb(35.351562%, 31.864929%, 67.546082%)" offset="0.53125"/><stop stop-opacity="1" stop-color="rgb(35.649109%, 31.752014%, 67.26532%)" offset="0.546875"/><stop stop-opacity="1" stop-color="rgb(35.945129%, 31.640625%, 66.984558%)" offset="0.5625"/><stop stop-opacity="1" stop-color="rgb(36.242676%, 31.52771%, 66.703796%)" offset="0.578125"/><stop stop-opacity="1" stop-color="rgb(36.538696%, 31.414795%, 66.423035%)" offset="0.59375"/><stop stop-opacity="1" stop-color="rgb(36.836243%, 31.30188%, 66.143799%)" offset="0.609375"/><stop stop-opacity="1" stop-color="rgb(37.132263%, 31.188965%, 65.863037%)" offset="0.624697"/><stop stop-opacity="1" stop-color="rgb(37.281799%, 31.134033%, 65.722656%)" offset="0.625"/><stop stop-opacity="1" stop-color="rgb(37.42981%, 31.077576%, 65.582275%)" offset="0.640625"/><stop stop-opacity="1" stop-color="rgb(37.727356%, 30.964661%, 65.301514%)" offset="0.65625"/><stop stop-opacity="1" stop-color="rgb(38.023376%, 30.851746%, 65.020752%)" offset="0.671875"/><stop stop-opacity="1" stop-color="rgb(38.320923%, 30.738831%, 64.73999%)" offset="0.6875"/><stop stop-opacity="1" stop-color="rgb(38.616943%, 30.625916%, 64.460754%)" offset="0.703125"/><stop stop-opacity="1" stop-color="rgb(38.91449%, 30.514526%, 64.179993%)" offset="0.71875"/><stop stop-opacity="1" stop-color="rgb(39.21051%, 30.401611%, 63.899231%)" offset="0.734375"/><stop stop-opacity="1" stop-color="rgb(39.508057%, 30.288696%, 63.618469%)" offset="0.75"/><stop stop-opacity="1" stop-color="rgb(39.805603%, 30.175781%, 63.337708%)" offset="0.765625"/><stop stop-opacity="1" stop-color="rgb(40.101624%, 30.062866%, 63.056946%)" offset="0.78125"/><stop stop-opacity="1" stop-color="rgb(40.39917%, 29.951477%, 62.77771%)" offset="0.796875"/><stop stop-opacity="1" stop-color="rgb(40.672302%, 29.846191%, 62.518311%)" offset="0.8125"/><stop stop-opacity="1" stop-color="rgb(40.79895%, 29.798889%, 62.399292%)" offset="0.875"/><stop stop-opacity="1" stop-color="rgb(40.79895%, 29.798889%, 62.399292%)" offset="1"/></linearGradient></defs><g fill="#553692" fill-opacity="1"><g transform="translate(5.032585, 199.975013)"><g><path d="M 59.125 -82.421875 C 67.9375 -82.421875 74.925781 -78.726562 80.09375 -71.34375 C 85.269531 -63.957031 87.859375 -53.734375 87.859375 -40.671875 C 87.859375 -27.523438 85.25 -17.21875 80.03125 -9.75 C 74.8125 -2.289062 67.554688 1.4375 58.265625 1.4375 C 55.265625 1.4375 52.59375 1.113281 50.25 0.46875 C 47.914062 -0.175781 45.832031 -1.070312 44 -2.21875 C 42.164062 -3.363281 40.035156 -5.269531 37.609375 -7.9375 L 35.890625 -7.9375 L 31.453125 0 L 9.65625 0 L 9.65625 -111.234375 L 37.609375 -111.234375 L 37.609375 -86.078125 C 37.609375 -83.066406 37.273438 -77.894531 36.609375 -70.5625 L 37.609375 -70.5625 C 40.316406 -74.75 43.445312 -77.769531 47 -79.625 C 50.550781 -81.488281 54.59375 -82.421875 59.125 -82.421875 Z M 48.890625 -60.484375 C 44.984375 -60.484375 42.125 -59.125 40.3125 -56.40625 C 38.507812 -53.6875 37.609375 -49.421875 37.609375 -43.609375 L 37.609375 -39.671875 C 37.609375 -33.046875 38.507812 -28.289062 40.3125 -25.40625 C 42.125 -22.53125 45.082031 -21.09375 49.1875 -21.09375 C 52.46875 -21.09375 54.988281 -22.769531 56.75 -26.125 C 58.519531 -29.488281 59.40625 -34.4375 59.40625 -40.96875 C 59.40625 -53.976562 55.898438 -60.484375 48.890625 -60.484375 Z M 48.890625 -60.484375 "/></g></g></g><g fill="#684c9f" fill-opacity="1"><g transform="translate(99.180494, 199.975013)"><g><path d="M 72.203125 -24.875 C 72.203125 -16.195312 69.242188 -9.640625 63.328125 -5.203125 C 57.421875 -0.773438 48.941406 1.4375 37.890625 1.4375 C 31.878906 1.4375 26.65625 1.113281 22.21875 0.46875 C 17.789062 -0.175781 13.269531 -1.359375 8.65625 -3.078125 L 8.65625 -25.453125 C 12.988281 -23.546875 17.738281 -21.972656 22.90625 -20.734375 C 28.082031 -19.492188 32.695312 -18.875 36.75 -18.875 C 42.800781 -18.875 45.828125 -20.253906 45.828125 -23.015625 C 45.828125 -24.441406 44.976562 -25.71875 43.28125 -26.84375 C 41.59375 -27.96875 36.675781 -30.148438 28.53125 -33.390625 C 21.09375 -36.429688 15.894531 -39.894531 12.9375 -43.78125 C 9.976562 -47.664062 8.5 -52.585938 8.5 -58.546875 C 8.5 -66.078125 11.40625 -71.9375 17.21875 -76.125 C 23.039062 -80.320312 31.265625 -82.421875 41.890625 -82.421875 C 47.222656 -82.421875 52.238281 -81.835938 56.9375 -80.671875 C 61.632812 -79.503906 66.507812 -77.800781 71.5625 -75.5625 L 63.984375 -57.546875 C 60.265625 -59.210938 56.332031 -60.628906 52.1875 -61.796875 C 48.039062 -62.960938 44.65625 -63.546875 42.03125 -63.546875 C 37.457031 -63.546875 35.171875 -62.425781 35.171875 -60.1875 C 35.171875 -58.8125 35.96875 -57.632812 37.5625 -56.65625 C 39.164062 -55.675781 43.78125 -53.6875 51.40625 -50.6875 C 57.070312 -48.351562 61.296875 -46.066406 64.078125 -43.828125 C 66.867188 -41.585938 68.921875 -38.953125 70.234375 -35.921875 C 71.546875 -32.898438 72.203125 -29.21875 72.203125 -24.875 Z M 72.203125 -24.875 "/></g></g></g><g fill="#684c9f" fill-opacity="1"><g transform="translate(177.225934, 199.975013)"><g><path d="M 62.484375 0 L 57.125 -10.71875 L 56.546875 -10.71875 C 52.785156 -6.050781 48.945312 -2.859375 45.03125 -1.140625 C 41.125 0.578125 36.070312 1.4375 29.875 1.4375 C 22.25 1.4375 16.242188 -0.847656 11.859375 -5.421875 C 7.484375 -10.003906 5.296875 -16.441406 5.296875 -24.734375 C 5.296875 -33.359375 8.296875 -39.78125 14.296875 -44 C 20.304688 -48.21875 29.003906 -50.585938 40.390625 -51.109375 L 53.90625 -51.546875 L 53.90625 -52.6875 C 53.90625 -59.351562 50.613281 -62.6875 44.03125 -62.6875 C 38.125 -62.6875 30.617188 -60.6875 21.515625 -56.6875 L 13.4375 -75.140625 C 22.875 -79.992188 34.789062 -82.421875 49.1875 -82.421875 C 59.570312 -82.421875 67.613281 -79.847656 73.3125 -74.703125 C 79.007812 -69.554688 81.859375 -62.359375 81.859375 -53.109375 L 81.859375 0 Z M 41.75 -18.296875 C 45.132812 -18.296875 48.03125 -19.367188 50.4375 -21.515625 C 52.84375 -23.660156 54.046875 -26.445312 54.046875 -29.875 L 54.046875 -36.171875 L 47.609375 -35.890625 C 38.410156 -35.554688 33.8125 -32.171875 33.8125 -25.734375 C 33.8125 -20.773438 36.457031 -18.296875 41.75 -18.296875 Z M 41.75 -18.296875 "/></g></g></g><g fill="#684c9f" fill-opacity="1"><g transform="translate(268.421889, 199.975013)"><g><path d="M 59.125 -60.046875 L 41.890625 -60.046875 L 41.890625 0 L 13.9375 0 L 13.9375 -60.046875 L 3.21875 -60.046875 L 3.21875 -73.78125 L 14.515625 -80.640625 L 14.515625 -82 C 14.515625 -92.675781 16.691406 -100.347656 21.046875 -105.015625 C 25.410156 -109.679688 32.40625 -112.015625 42.03125 -112.015625 C 45.75 -112.015625 49.265625 -111.726562 52.578125 -111.15625 C 55.890625 -110.59375 59.738281 -109.59375 64.125 -108.15625 L 58.125 -90.078125 C 54.6875 -91.023438 51.328125 -91.5 48.046875 -91.5 C 45.898438 -91.5 44.335938 -90.84375 43.359375 -89.53125 C 42.378906 -88.226562 41.890625 -86.097656 41.890625 -83.140625 L 41.890625 -81 L 59.125 -81 Z M 59.125 -60.046875 "/></g></g></g><g fill="#684c9f" fill-opacity="1"><g transform="translate(328.885664, 199.975013)"><g><path d="M 48.75 1.4375 C 35.269531 1.4375 24.796875 -2.148438 17.328125 -9.328125 C 9.867188 -16.503906 6.140625 -26.71875 6.140625 -39.96875 C 6.140625 -53.644531 9.59375 -64.140625 16.5 -71.453125 C 23.414062 -78.765625 33.285156 -82.421875 46.109375 -82.421875 C 58.304688 -82.421875 67.726562 -79.238281 74.375 -72.875 C 81.03125 -66.519531 84.359375 -57.359375 84.359375 -45.390625 L 84.359375 -32.953125 L 34.390625 -32.953125 C 34.578125 -28.429688 36.226562 -24.878906 39.34375 -22.296875 C 42.46875 -19.722656 46.722656 -18.4375 52.109375 -18.4375 C 57.023438 -18.4375 61.539062 -18.898438 65.65625 -19.828125 C 69.78125 -20.765625 74.25 -22.351562 79.0625 -24.59375 L 79.0625 -4.5 C 74.675781 -2.257812 70.148438 -0.710938 65.484375 0.140625 C 60.816406 1.003906 55.238281 1.4375 48.75 1.4375 Z M 47.109375 -63.40625 C 43.816406 -63.40625 41.0625 -62.367188 38.84375 -60.296875 C 36.632812 -58.222656 35.335938 -54.972656 34.953125 -50.546875 L 58.984375 -50.546875 C 58.878906 -54.453125 57.765625 -57.570312 55.640625 -59.90625 C 53.523438 -62.238281 50.679688 -63.40625 47.109375 -63.40625 Z M 47.109375 -63.40625 "/></g></g></g><g clip-path="url(#46fd540106)"><path fill="#ffffff" d="M 85.734375 16.945312 L 112.296875 44.378906 L 85.550781 72.003906 L 80.113281 66.386719 L 101.417969 44.378906 L 80.296875 22.5625 L 85.734375 16.945312 " fill-opacity="1" fill-rule="nonzero"/></g><g clip-path="url(#1db6358745)"><g clip-path="url(#62bee47b97)"><g clip-path="url(#391b0f998a)"><g clip-path="url(#5752352152)"><path fill="url(#b30a760605)" d="M 155.804688 69.125 L 73.40625 -13.273438 L -8.996094 69.125 L 73.40625 151.527344 Z M 155.804688 69.125 " fill-rule="nonzero"/></g></g></g></g><g clip-path="url(#da30deb72a)"><g clip-path="url(#b784265128)"><g clip-path="url(#65e38cbc49)"><g clip-path="url(#7f53874536)"><path fill="url(#5868f37a8c)" d="M 184.101562 54.792969 L 98.679688 -30.632812 L 13.253906 54.792969 L 98.679688 140.214844 Z M 184.101562 54.792969 " fill-rule="nonzero"/></g></g></g></g><g clip-path="url(#fa68781777)"><g clip-path="url(#47f700bb01)"><g clip-path="url(#ed74b31f4d)"><g clip-path="url(#8611bdc475)"><path fill="url(#eb07ef7ef9)" d="M 192.886719 42.382812 L 117.988281 -32.515625 L 43.089844 42.382812 L 117.988281 117.28125 Z M 192.886719 42.382812 " fill-rule="nonzero"/></g></g></g></g><g clip-path="url(#638c0093c7)"><g clip-path="url(#81c431d640)"><g clip-path="url(#142d06c3d1)"><g clip-path="url(#ad9ba0f88a)"><path fill="url(#4fd591e6b6)" d="M 171.769531 27.144531 L 121.972656 -22.652344 L 72.175781 27.144531 L 121.972656 76.941406 Z M 171.769531 27.144531 " fill-rule="nonzero"/></g></g></g></g><g fill="#ff5757" fill-opacity="1"><g transform="translate(79.363564, 71.153122)"><g><path d="M 5.921875 0.1875 C 5.179688 0.1875 4.523438 0.0351562 3.953125 -0.265625 C 3.390625 -0.566406 2.957031 -0.984375 2.65625 -1.515625 C 2.351562 -2.046875 2.203125 -2.644531 2.203125 -3.3125 C 2.203125 -3.988281 2.351562 -4.59375 2.65625 -5.125 C 2.957031 -5.65625 3.390625 -6.070312 3.953125 -6.375 C 4.523438 -6.6875 5.179688 -6.84375 5.921875 -6.84375 C 6.671875 -6.84375 7.328125 -6.691406 7.890625 -6.390625 C 8.460938 -6.085938 8.898438 -5.671875 9.203125 -5.140625 C 9.503906 -4.609375 9.65625 -4.007812 9.65625 -3.34375 C 9.65625 -2.320312 9.316406 -1.476562 8.640625 -0.8125 C 7.960938 -0.144531 7.054688 0.1875 5.921875 0.1875 Z M 5.921875 0.1875 "/></g></g><g transform="translate(91.224042, 71.153122)"><g><path d="M 5.640625 4.390625 L 0.125 4.390625 L 11.5625 -32.453125 L 17.109375 -32.453125 Z M 5.640625 4.390625 "/></g></g></g></svg>