<svg xmlns="http://www.w3.org/2000/svg" xmlns:xlink="http://www.w3.org/1999/xlink" width="1366" zoomAndPan="magnify" viewBox="0 0 1024.5 576" height="768" preserveAspectRatio="xMidYMid meet" version="1.0"><defs><clipPath id="b18b5d49e6"><path d="M 32.234375 79 L 314 79 L 314 444 L 32.234375 444 Z M 32.234375 79 " clip-rule="nonzero"/></clipPath><clipPath id="fecca5e12b"><path d="M 309 197 L 688 197 L 688 575.859375 L 309 575.859375 Z M 309 197 " clip-rule="nonzero"/></clipPath></defs><path fill="#808285" d="M 891.53125 489.796875 C 891.609375 489.78125 891.683594 489.757812 891.757812 489.730469 C 891.757812 489.730469 891.761719 489.726562 891.765625 489.726562 C 891.8125 489.707031 891.855469 489.683594 891.898438 489.660156 L 971.738281 444.824219 C 971.816406 444.78125 971.890625 444.726562 971.957031 444.667969 C 971.957031 444.667969 971.957031 444.664062 971.957031 444.664062 C 971.957031 444.664062 971.960938 444.664062 971.960938 444.664062 C 972.078125 444.550781 972.179688 444.414062 972.242188 444.253906 C 972.242188 444.25 972.242188 444.25 972.242188 444.25 C 972.25 444.230469 972.253906 444.214844 972.261719 444.199219 L 1023.917969 302.554688 C 1023.96875 302.421875 1023.996094 302.28125 1023.996094 302.132812 C 1024.007812 302.0625 1023.992188 301.996094 1023.976562 301.929688 C 1023.941406 301.71875 1023.847656 301.527344 1023.714844 301.375 C 1023.652344 301.296875 1023.574219 301.226562 1023.492188 301.167969 C 1023.300781 301.039062 1023.070312 300.964844 1022.828125 300.964844 C 1022.789062 300.964844 1022.753906 300.964844 1022.714844 300.96875 C 1022.714844 300.96875 1022.710938 300.96875 1022.710938 300.96875 C 1022.699219 300.96875 1022.691406 300.972656 1022.679688 300.972656 L 962.292969 308.5 L 914.164062 273.25 C 914.039062 273.15625 913.894531 273.085938 913.734375 273.050781 C 913.734375 273.050781 913.734375 273.050781 913.730469 273.050781 C 913.691406 273.039062 913.652344 273.03125 913.617188 273.027344 C 913.617188 273.027344 913.613281 273.027344 913.613281 273.027344 C 913.609375 273.027344 913.609375 273.027344 913.605469 273.027344 C 913.574219 273.023438 913.542969 273.019531 913.507812 273.019531 L 837.824219 270.347656 C 837.734375 270.34375 837.644531 270.347656 837.554688 270.367188 C 837.554688 270.367188 837.554688 270.367188 837.550781 270.367188 C 837.550781 270.367188 837.546875 270.367188 837.546875 270.367188 C 837.542969 270.367188 837.542969 270.367188 837.542969 270.367188 C 837.539062 270.367188 837.53125 270.367188 837.523438 270.371094 C 837.519531 270.371094 837.519531 270.371094 837.519531 270.371094 C 837.515625 270.371094 837.515625 270.371094 837.511719 270.371094 C 837.507812 270.371094 837.507812 270.371094 837.503906 270.371094 C 837.5 270.371094 837.5 270.371094 837.496094 270.371094 C 837.289062 270.421875 837.101562 270.53125 836.953125 270.671875 L 756.457031 348.105469 C 756.21875 348.332031 756.101562 348.640625 756.101562 348.945312 C 756.101562 348.964844 756.101562 348.984375 756.101562 349.003906 L 761.648438 476.128906 C 761.648438 476.128906 761.652344 476.132812 761.648438 476.136719 C 761.648438 476.136719 761.652344 476.140625 761.648438 476.140625 C 761.648438 476.144531 761.648438 476.144531 761.648438 476.148438 C 761.648438 476.148438 761.648438 476.148438 761.648438 476.152344 C 761.667969 476.40625 761.761719 476.636719 761.914062 476.816406 C 761.976562 476.894531 762.046875 476.960938 762.125 477.015625 C 762.292969 477.140625 762.492188 477.21875 762.710938 477.238281 C 762.753906 477.242188 762.792969 477.242188 762.832031 477.242188 L 857.933594 477.097656 L 890.890625 489.726562 C 890.925781 489.738281 890.957031 489.75 890.988281 489.761719 C 890.992188 489.761719 890.992188 489.761719 890.996094 489.761719 C 891.171875 489.820312 891.355469 489.828125 891.53125 489.796875 Z M 868.730469 335.59375 L 947.386719 373.824219 L 906.5625 393.84375 Z M 903.75 393.804688 L 864.679688 387.9375 L 866.496094 336.449219 Z M 837.503906 380.292969 L 838.867188 276.785156 L 864.152344 332.644531 Z M 864.121094 337.488281 L 862.355469 387.589844 L 838.121094 383.949219 Z M 862.273438 389.941406 L 860.15625 449.953125 L 838.015625 386.296875 Z M 864.597656 390.292969 L 904.046875 396.21875 L 862.402344 452.496094 Z M 908.378906 395.554688 L 949.332031 375.476562 L 969.019531 440.742188 Z M 971.269531 440.097656 L 951.378906 374.15625 L 1019.949219 306.609375 Z M 1019.546875 303.71875 L 951.886719 370.371094 L 962.96875 310.773438 Z M 960.695312 310.230469 L 949.683594 369.417969 L 915.902344 277.421875 Z M 947.957031 371.5 L 867.304688 332.296875 L 913.074219 276.511719 Z M 911.0625 275.273438 L 865.75 330.503906 L 839.609375 272.753906 Z M 759.316406 348.601562 L 836.558594 274.300781 L 835.128906 383.046875 Z M 758.519531 350.804688 L 834.417969 385.296875 L 763.847656 472.9375 Z M 835.859375 387.210938 L 859.554688 455.34375 L 765.757812 474.296875 Z M 859.695312 457.699219 L 857.140625 474.769531 L 774.597656 474.898438 Z M 859.441406 475.179688 L 861.890625 458.789062 L 887.011719 485.742188 Z M 862.617188 456.136719 L 904.238281 399.890625 L 890.535156 486.097656 Z M 907 397.441406 L 969.023438 443.664062 L 892.847656 486.441406 Z M 907 397.441406 " fill-opacity="1" fill-rule="nonzero"/><g clip-path="url(#b18b5d49e6)"><path fill="#808285" d="M 162.972656 443.90625 C 163.054688 443.886719 163.132812 443.859375 163.210938 443.816406 C 163.328125 443.757812 163.433594 443.675781 163.523438 443.585938 L 301.378906 305.578125 C 301.394531 305.566406 301.410156 305.550781 301.421875 305.539062 C 301.425781 305.535156 301.429688 305.535156 301.429688 305.53125 C 301.597656 305.34375 301.699219 305.109375 301.722656 304.867188 L 313.195312 198.980469 C 313.207031 198.90625 313.210938 198.828125 313.199219 198.75 C 313.199219 198.75 313.199219 198.75 313.199219 198.746094 C 313.191406 198.648438 313.171875 198.554688 313.144531 198.460938 C 313.140625 198.460938 313.140625 198.460938 313.140625 198.460938 C 313.140625 198.460938 313.140625 198.457031 313.140625 198.457031 C 313.082031 198.289062 312.984375 198.132812 312.851562 198.003906 C 312.851562 198.003906 312.851562 198.003906 312.851562 198 L 312.847656 198 C 312.820312 197.972656 312.785156 197.945312 312.75 197.914062 L 281.429688 173.421875 L 233.421875 80.160156 C 233.40625 80.128906 233.390625 80.101562 233.375 80.074219 C 233.253906 79.878906 233.082031 79.726562 232.886719 79.632812 C 232.8125 79.59375 232.730469 79.566406 232.644531 79.546875 C 232.644531 79.546875 232.644531 79.546875 232.640625 79.546875 C 232.40625 79.496094 232.15625 79.507812 231.917969 79.609375 C 231.917969 79.609375 231.917969 79.609375 231.914062 79.609375 C 231.894531 79.617188 231.875 79.625 231.859375 79.636719 L 81.835938 152.636719 C 81.828125 152.640625 81.824219 152.640625 81.820312 152.644531 C 81.792969 152.660156 81.816406 152.648438 81.816406 152.648438 C 81.582031 152.765625 81.386719 152.960938 81.277344 153.214844 C 81.269531 153.238281 81.257812 153.257812 81.25 153.277344 L 32.367188 279.921875 C 32.363281 279.9375 32.355469 279.957031 32.351562 279.972656 C 32.351562 279.976562 32.351562 279.976562 32.347656 279.984375 C 32.34375 279.984375 32.34375 279.984375 32.34375 279.992188 C 32.308594 280.101562 32.292969 280.222656 32.292969 280.339844 C 32.292969 280.460938 32.308594 280.582031 32.347656 280.703125 C 32.375 280.785156 32.410156 280.863281 32.453125 280.9375 L 73.890625 353.441406 C 73.902344 353.464844 73.917969 353.488281 73.933594 353.511719 C 73.933594 353.515625 73.9375 353.515625 73.9375 353.519531 C 73.9375 353.519531 73.9375 353.523438 73.945312 353.523438 C 73.964844 353.550781 73.984375 353.582031 74.003906 353.609375 C 74.007812 353.609375 74.007812 353.609375 74.007812 353.609375 C 74.011719 353.613281 74.011719 353.613281 74.011719 353.617188 C 74.011719 353.617188 74.015625 353.617188 74.015625 353.617188 C 74.101562 353.722656 74.207031 353.808594 74.324219 353.875 C 74.324219 353.875 74.324219 353.875 74.328125 353.878906 C 74.328125 353.878906 74.335938 353.878906 74.335938 353.878906 C 74.386719 353.90625 74.433594 353.929688 74.484375 353.949219 L 139.699219 379.359375 L 161.566406 443.148438 C 161.570312 443.15625 161.574219 443.171875 161.578125 443.183594 C 161.679688 443.445312 161.863281 443.652344 162.089844 443.78125 C 162.1875 443.835938 162.285156 443.875 162.390625 443.902344 C 162.484375 443.925781 162.578125 443.9375 162.675781 443.9375 C 162.773438 443.945312 162.875 443.933594 162.972656 443.90625 Z M 165.878906 437.917969 L 209.683594 328.238281 L 296.773438 306.882812 Z M 210.0625 325.734375 L 212.597656 272.605469 L 296.628906 304.511719 Z M 207.746094 325.175781 L 122.449219 270.949219 L 210.277344 272.09375 Z M 299.554688 303.117188 L 213.957031 270.617188 L 310.585938 201.316406 Z M 182.773438 231.5625 L 166.015625 209.71875 L 252.207031 191.882812 Z M 255.972656 192.414062 L 211.375 268.84375 L 184.210938 233.429688 Z M 180.722656 232.730469 L 122.675781 265.90625 L 163.957031 210.875 Z M 182.15625 234.601562 L 209.109375 269.738281 L 122.65625 268.613281 Z M 309.105469 199.5 L 215.28125 266.792969 L 259.773438 190.542969 Z M 307.578125 196.84375 L 262.128906 188.589844 L 280.46875 175.644531 Z M 279 173.816406 L 259.902344 187.304688 L 235.902344 90.09375 Z M 257.746094 188.34375 L 166.160156 207.300781 L 231.972656 83.929688 Z M 229.652344 83.316406 L 163.542969 207.261719 L 84.679688 153.855469 Z M 82.910156 155.480469 L 161.710938 208.84375 L 35.707031 277.78125 Z M 159.773438 212.570312 L 117.710938 268.625 L 39.417969 278.417969 Z M 35.351562 281.285156 L 116.277344 271.164062 L 74.867188 350.429688 Z M 118.796875 271.394531 L 205.703125 326.648438 L 77.070312 351.261719 Z M 79.121094 353.25 L 204.082031 329.339844 L 140.453125 377.148438 Z M 142.015625 378.898438 L 206.1875 330.6875 L 162.761719 439.414062 Z M 142.015625 378.898438 " fill-opacity="1" fill-rule="nonzero"/></g><path fill="#a7a9ac" d="M 767.988281 456.777344 C 768.183594 456.75 768.378906 456.667969 768.542969 456.53125 C 768.589844 456.492188 768.636719 456.449219 768.679688 456.402344 C 768.78125 456.289062 768.855469 456.160156 768.90625 456.019531 L 839.34375 271.117188 C 839.355469 271.089844 839.363281 271.0625 839.375 271.03125 C 839.375 271.027344 839.375 271.027344 839.375 271.027344 C 839.425781 270.851562 839.4375 270.671875 839.40625 270.488281 C 839.40625 270.488281 839.40625 270.488281 839.40625 270.484375 C 839.40625 270.484375 839.40625 270.484375 839.40625 270.480469 C 839.40625 270.480469 839.40625 270.480469 839.40625 270.476562 C 839.40625 270.476562 839.40625 270.472656 839.40625 270.472656 C 839.410156 270.46875 839.40625 270.464844 839.40625 270.464844 C 839.40625 270.464844 839.40625 270.460938 839.40625 270.460938 C 839.40625 270.460938 839.40625 270.457031 839.40625 270.453125 C 839.40625 270.453125 839.402344 270.449219 839.402344 270.441406 C 839.398438 270.433594 839.398438 270.421875 839.394531 270.414062 C 839.394531 270.40625 839.394531 270.40625 839.394531 270.402344 C 839.394531 270.398438 839.394531 270.394531 839.394531 270.394531 C 839.390625 270.390625 839.390625 270.390625 839.390625 270.386719 C 839.390625 270.382812 839.390625 270.382812 839.386719 270.382812 C 839.386719 270.378906 839.386719 270.378906 839.386719 270.378906 C 839.382812 270.355469 839.375 270.332031 839.363281 270.308594 L 798.664062 157.222656 C 798.644531 157.167969 798.621094 157.113281 798.59375 157.0625 C 798.59375 157.0625 798.59375 157.058594 798.59375 157.058594 C 798.5625 157 798.523438 156.945312 798.488281 156.894531 C 798.488281 156.894531 798.488281 156.890625 798.484375 156.890625 C 798.484375 156.890625 798.484375 156.886719 798.484375 156.886719 C 798.375 156.75 798.234375 156.636719 798.070312 156.554688 C 798.070312 156.554688 798.066406 156.554688 798.066406 156.554688 C 798.027344 156.535156 797.988281 156.519531 797.953125 156.503906 L 754.339844 140.699219 L 660.0625 58.808594 C 660.027344 58.777344 659.992188 58.753906 659.957031 58.726562 C 659.777344 58.601562 659.574219 58.53125 659.367188 58.515625 C 659.367188 58.515625 659.367188 58.515625 659.363281 58.515625 C 659.277344 58.511719 659.1875 58.515625 659.101562 58.527344 C 658.875 58.566406 658.65625 58.667969 658.480469 58.835938 C 658.480469 58.835938 658.480469 58.835938 658.476562 58.835938 C 658.464844 58.851562 658.449219 58.863281 658.4375 58.878906 L 543.730469 180.234375 C 543.527344 180.449219 543.402344 180.734375 543.402344 181.046875 C 543.402344 181.070312 543.402344 181.09375 543.40625 181.117188 C 543.40625 181.117188 543.40625 181.121094 543.40625 181.125 C 543.40625 181.132812 543.40625 181.144531 543.40625 181.152344 L 556.75 327.121094 C 556.769531 327.335938 556.847656 327.550781 556.988281 327.730469 C 556.984375 327.738281 556.988281 327.734375 556.988281 327.734375 C 556.988281 327.734375 556.992188 327.738281 556.992188 327.738281 L 556.996094 327.738281 C 556.996094 327.738281 556.996094 327.742188 556.996094 327.742188 C 557.054688 327.816406 557.125 327.886719 557.195312 327.941406 L 634.582031 390.308594 C 634.644531 390.359375 634.714844 390.40625 634.785156 390.441406 C 634.789062 390.441406 634.789062 390.445312 634.789062 390.445312 C 634.792969 390.445312 634.796875 390.445312 634.796875 390.449219 C 634.9375 390.515625 635.082031 390.554688 635.230469 390.566406 L 713.410156 396.945312 L 766.945312 456.402344 C 767.136719 456.617188 767.390625 456.742188 767.652344 456.78125 C 767.652344 456.78125 767.65625 456.78125 767.65625 456.78125 C 767.761719 456.800781 767.878906 456.796875 767.988281 456.777344 Z M 768.5625 450.355469 L 758.414062 322.597656 L 835.910156 273.558594 Z M 834.632812 271.597656 L 757.730469 320.265625 L 733.949219 264.214844 Z M 686.011719 232.320312 L 738.273438 167.472656 L 731.105469 260.882812 Z M 729.300781 262.507812 L 641.179688 287.957031 L 684.535156 234.15625 Z M 684.027344 231.0625 L 656.050781 213.34375 L 734.894531 167.949219 Z M 682.550781 232.898438 L 640.0625 285.613281 L 654.582031 215.183594 Z M 636.917969 289.292969 L 562.191406 323.757812 L 651.714844 217.574219 Z M 731.453125 264.320312 L 755.179688 320.238281 L 642.308594 290.0625 Z M 836.546875 269.394531 L 734.136719 261.886719 L 797.273438 160.277344 Z M 733.65625 258.226562 L 740.820312 164.875 L 795.296875 159.023438 Z M 792.40625 156.980469 L 742.011719 162.394531 L 754.21875 143.140625 Z M 752.207031 141.945312 L 739.636719 161.785156 L 667.410156 68.289062 Z M 737.984375 163.472656 L 655.035156 211.230469 L 660.332031 62.957031 Z M 546.722656 180.460938 L 658 62.738281 L 652.691406 211.753906 Z M 545.882812 182.652344 L 651.738281 213.910156 L 558.816406 324.125 Z M 560.109375 327.292969 L 636.726562 291.960938 L 634.203125 387.007812 Z M 639.070312 291.621094 L 754.085938 322.371094 L 636.53125 387.386719 Z M 639.261719 388.550781 L 754.027344 325.074219 L 713.320312 394.597656 Z M 715.398438 395.675781 L 756.320312 325.792969 L 766.367188 452.28125 Z M 715.398438 395.675781 " fill-opacity="1" fill-rule="nonzero"/><g clip-path="url(#fecca5e12b)"><path fill="#d1d3d4" d="M 607.710938 581.460938 C 607.882812 581.375 608.035156 581.246094 608.148438 581.078125 C 608.175781 581.039062 608.199219 581 608.21875 580.960938 L 686.980469 433.386719 C 687.015625 433.332031 687.042969 433.265625 687.066406 433.203125 C 687.078125 433.167969 687.089844 433.132812 687.097656 433.097656 C 687.15625 432.847656 687.132812 432.570312 687.011719 432.320312 C 687.011719 432.320312 687.011719 432.316406 687.011719 432.316406 C 687.003906 432.300781 686.996094 432.285156 686.988281 432.269531 L 608.378906 285.992188 C 608.316406 285.867188 608.226562 285.753906 608.117188 285.652344 C 608.113281 285.652344 608.113281 285.652344 608.113281 285.652344 C 608.113281 285.652344 608.113281 285.652344 608.109375 285.648438 C 608.109375 285.648438 608.109375 285.648438 608.105469 285.648438 C 608.089844 285.636719 608.074219 285.625 608.058594 285.613281 C 608.058594 285.613281 608.058594 285.609375 608.054688 285.609375 C 608.054688 285.609375 608.050781 285.609375 608.050781 285.605469 L 608.046875 285.605469 C 608.042969 285.605469 608.042969 285.601562 608.042969 285.601562 C 607.960938 285.542969 607.871094 285.492188 607.78125 285.457031 L 492.066406 237.75 C 492.011719 237.726562 491.957031 237.707031 491.898438 237.691406 C 491.761719 237.660156 491.628906 237.648438 491.496094 237.664062 C 491.496094 237.664062 491.496094 237.664062 491.492188 237.664062 L 398.976562 247.304688 L 311.679688 197.542969 C 311.671875 197.539062 311.667969 197.539062 311.664062 197.535156 L 311.65625 197.535156 C 311.480469 197.4375 311.289062 197.390625 311.101562 197.390625 C 310.992188 197.390625 310.882812 197.402344 310.777344 197.433594 C 310.773438 197.433594 310.769531 197.433594 310.769531 197.433594 C 310.765625 197.433594 310.765625 197.433594 310.765625 197.433594 C 310.765625 197.433594 310.761719 197.433594 310.757812 197.433594 C 310.703125 197.449219 310.648438 197.472656 310.597656 197.496094 C 310.398438 197.589844 310.226562 197.738281 310.105469 197.933594 C 310.105469 197.933594 310.101562 197.9375 310.101562 197.9375 C 310.078125 197.976562 310.054688 198.019531 310.035156 198.066406 C 309.960938 198.226562 309.910156 198.390625 309.925781 198.570312 L 309.441406 401.90625 C 309.441406 401.910156 309.441406 401.914062 309.441406 401.914062 C 309.441406 401.945312 309.449219 401.988281 309.441406 402.003906 C 309.449219 402.007812 309.445312 402.011719 309.445312 402.015625 C 309.453125 402.113281 309.476562 402.214844 309.507812 402.308594 C 309.507812 402.3125 309.511719 402.3125 309.511719 402.3125 C 309.558594 402.453125 309.636719 402.582031 309.738281 402.691406 L 405.417969 509.753906 C 405.464844 509.804688 405.511719 509.851562 405.5625 509.890625 C 405.5625 509.890625 405.558594 509.894531 405.566406 509.894531 C 405.566406 509.894531 405.570312 509.894531 405.570312 509.894531 C 405.730469 510.023438 405.925781 510.109375 406.144531 510.136719 L 463.066406 517.285156 L 606.695312 581.472656 C 606.742188 581.492188 606.78125 581.507812 606.828125 581.523438 C 607.039062 581.589844 607.261719 581.59375 607.46875 581.542969 C 607.550781 581.53125 607.632812 581.5 607.710938 581.460938 Z M 683.917969 431.496094 L 548.578125 421.398438 L 607.445312 289.183594 Z M 532.957031 341.257812 L 604.527344 289.988281 L 547.296875 418.519531 Z M 545.351562 420.753906 L 505.089844 408.277344 L 531.242188 344.84375 Z M 527.121094 341.671875 L 435.816406 386.535156 L 384.175781 334.140625 Z M 529.410156 343.152344 L 502.851562 407.582031 L 438.726562 387.707031 Z M 501.957031 409.753906 L 469.964844 487.367188 L 437.402344 389.75 Z M 504.195312 410.449219 L 544.5 422.941406 L 472.855469 486.46875 Z M 604.949219 286.808594 L 532.207031 338.914062 L 493.707031 240.945312 Z M 529.917969 339.476562 L 384.222656 331.796875 L 491.128906 240.769531 Z M 487.984375 240.371094 L 383.0625 329.710938 L 399.695312 249.574219 Z M 397.410156 249.09375 L 380.746094 329.367188 L 313.980469 201.546875 Z M 312.253906 203.300781 L 379.785156 332.582031 L 311.785156 399.128906 Z M 381.210938 334.460938 L 433.046875 387.058594 L 313.855469 400.378906 Z M 312.992188 402.832031 L 434.042969 389.304688 L 405.679688 506.542969 Z M 435.75 392.1875 L 468.347656 489.914062 L 407.902344 507.300781 Z M 412.089844 508.53125 L 468.207031 492.386719 L 462.503906 514.863281 Z M 464.761719 515.488281 L 470.566406 492.570312 L 594.203125 573.335938 Z M 471.769531 490.558594 L 546.34375 424.4375 L 604.804688 577.464844 Z M 548.5625 423.742188 L 684.082031 433.855469 L 607.359375 577.605469 Z M 548.5625 423.742188 " fill-opacity="1" fill-rule="nonzero"/></g></svg>